<svg width="220" height="56" viewBox="0 0 220 56" fill="none" xmlns="http://www.w3.org/2000/svg">
<g clip-path="url(#clip0_274_1300)">
<path fill-rule="evenodd" clip-rule="evenodd" d="M81.369 14.4542H60.623V18.6446H68.2308V41.5458H73.6554V18.6446H81.369V14.4542ZM104.06 25.5534C104.06 21.6017 103.178 18.702 101.414 16.8544C99.6496 15.0067 96.7565 14.0829 92.7343 14.0829C88.765 14.0829 85.8939 14.9846 84.1342 16.735C82.3745 18.4854 81.4881 21.4426 81.4881 25.5004V30.4997C81.4881 34.5221 82.3701 37.4394 84.1342 39.2517C85.8939 41.0817 88.7783 41.9967 92.7607 41.9967C96.7432 41.9967 99.5746 41.0817 101.374 39.2517C103.173 37.4217 104.02 34.5176 104.02 30.4997V25.5534H104.06ZM98.6749 30.4997C98.8702 32.465 98.4045 34.4393 97.3518 36.1089C96.7638 36.7068 96.0501 37.1659 95.2628 37.4526C94.4755 37.7393 93.6343 37.8466 92.8004 37.7665C91.9797 37.8378 91.1535 37.7221 90.3837 37.4282C89.6138 37.1342 88.9203 36.6696 88.3549 36.0692C87.2445 34.4355 86.7262 32.4698 86.8863 30.4997V25.5136C86.8863 20.6337 88.5533 18.3131 92.7078 18.3131C93.5611 18.219 94.4245 18.3312 95.2256 18.6404C96.0267 18.9495 96.7422 19.4466 97.3122 20.09C98.3286 21.7061 98.7929 23.6098 98.6352 25.5136V30.4997H98.6749ZM128.59 25.6197C128.59 21.668 127.708 18.7683 125.944 16.9207C124.171 15.0774 121.273 14.1492 117.277 14.1492C113.282 14.1492 110.424 15.0509 108.664 16.8013C106.905 18.5517 106.018 21.5089 106.018 25.5667V30.4997C106.018 34.5221 106.9 37.4394 108.664 39.2517C110.424 41.0817 113.308 41.9967 117.291 41.9967C121.273 41.9967 124.105 41.0817 125.904 39.2517C127.703 37.4217 128.55 34.5176 128.55 30.4997V25.5534L128.59 25.6197ZM123.192 30.4997C123.387 32.465 122.921 34.4393 121.869 36.1089C121.281 36.7068 120.567 37.1659 119.78 37.4526C118.992 37.7393 118.151 37.8466 117.317 37.7665C116.496 37.8378 115.67 37.7221 114.9 37.4282C114.131 37.1342 113.437 36.6696 112.872 36.0692C111.761 34.4355 111.243 32.4698 111.403 30.4997V25.5136C111.403 20.6337 113.07 18.3131 117.238 18.3131C118.089 18.22 118.95 18.3328 119.749 18.642C120.548 18.9512 121.261 19.4477 121.829 20.09C122.845 21.7061 123.31 23.6098 123.152 25.5136V30.4997H123.192ZM136.634 14.5868H131.21V41.5458H148.74V37.3952H136.634V14.5868Z" fill="#000002"/>
<path fill-rule="evenodd" clip-rule="evenodd" d="M161.933 41.5458C168.191 41.5458 171.75 38.8937 171.75 33.6689C171.75 32.2343 171.286 30.8384 170.427 29.6907C169.522 28.4896 168.191 27.6827 166.709 27.4364C167.839 27.0258 168.813 26.27 169.491 25.2755C170.17 24.281 170.521 23.0981 170.493 21.8934C170.562 20.8179 170.355 19.7426 169.892 18.77C169.428 17.7974 168.724 16.9599 167.847 16.3372C165.613 14.9651 163.014 14.3082 160.398 14.4542H151.533V41.5458H161.933ZM161.933 29.6112C164.936 29.6112 166.418 31.0831 166.418 33.7087C166.418 36.3343 164.883 37.435 161.999 37.435H156.958V29.5714L161.933 29.6112ZM156.958 18.6843H160.398C163.52 18.6843 165.095 19.838 165.095 22.3576C165.095 24.6517 163.481 25.8584 160.583 25.8584H156.958V18.6446V18.6843ZM196.002 25.5932C196.002 21.615 195.102 18.7374 193.356 16.8941C191.609 15.0509 188.685 14.1227 184.676 14.1227C180.668 14.1227 177.823 15.0244 176.063 16.7748C174.303 18.5252 173.417 21.4823 173.417 25.5401V30.4996C173.417 34.5221 174.299 37.4394 176.063 39.2517C177.823 41.0817 180.707 41.9967 184.69 41.9967C188.672 41.9967 191.504 41.0817 193.303 39.2517C195.102 37.4217 195.949 34.5176 195.949 30.4996V25.5534L196.002 25.5932ZM190.524 30.4996C190.72 32.4649 190.254 34.4393 189.201 36.1089C188.616 36.7065 187.905 37.1655 187.119 37.4523C186.334 37.7391 185.495 37.8464 184.663 37.7665C183.841 37.8378 183.012 37.7223 182.24 37.4284C181.468 37.1345 180.772 36.6699 180.204 36.0691C179.117 34.4271 178.622 32.4621 178.802 30.4996V25.5136C178.802 20.6337 180.469 18.313 184.624 18.313C185.472 18.2255 186.33 18.3409 187.126 18.6498C187.921 18.9586 188.633 19.4522 189.201 20.09C190.218 21.7061 190.682 23.6097 190.524 25.5136V30.4996ZM202.723 14.5868H196.452L204.483 27.8475L196.267 41.506H202.591L207.804 31.8257L213.017 41.5458H219.632L211.085 27.8475L219.103 14.4542H212.792L207.725 24.0549L202.723 14.5868Z" fill="#DD1E25"/>
<path fill-rule="evenodd" clip-rule="evenodd" d="M27.9437 2.78098e-05C34.4013 0.00618845 40.6571 2.25591 45.6455 6.366C50.6339 10.4761 54.0463 16.1923 55.3016 22.5411C56.5569 28.8898 55.5774 35.4784 52.5299 41.1846C49.4824 46.8907 44.5554 51.3615 38.5882 53.8355C32.621 56.3094 25.9825 56.6335 19.8036 54.7525C13.6247 52.8715 8.28757 48.9018 4.7012 43.5195C1.11482 38.1371 -0.498933 31.6752 0.134804 25.2342C0.76854 18.7933 3.61057 12.7717 8.17681 8.19515C10.7679 5.5879 13.849 3.52123 17.2418 2.11459C20.6347 0.707955 24.272 -0.0107462 27.9437 2.78098e-05ZM45.2364 10.6086C41.2348 6.60251 35.9713 4.11071 30.3424 3.55765C24.7135 3.00459 19.0674 4.42448 14.3658 7.57546C9.66421 10.7264 6.19795 15.4136 4.55744 20.8386C2.91694 26.2635 3.20367 32.0907 5.36879 37.3276C7.53391 42.5644 11.4435 46.887 16.4316 49.5591C21.4198 52.2311 27.1779 53.0873 32.7252 51.9818C38.2724 50.8764 43.2658 47.8776 46.8546 43.4963C50.4435 39.115 52.4059 33.6223 52.4075 27.9536C52.4099 24.7317 51.7776 21.5411 50.5471 18.5646C49.3165 15.5882 47.5117 12.8845 45.2364 10.6086Z" fill="#AD1D21"/>
<path d="M48.5042 19.4667H7.38281V38.4296H48.5042V19.4667Z" fill="#D11F26"/>
<path d="M48.5042 25.1025H7.38281V25.5799H48.5042V25.1025Z" fill="#8E181A"/>
<path fill-rule="evenodd" clip-rule="evenodd" d="M7.38281 19.4667H48.491L47.1679 16.7483H9.03667L7.38281 19.4667Z" fill="#ED1C24"/>
<path fill-rule="evenodd" clip-rule="evenodd" d="M25.8926 23.9886H29.9809V29.1736H25.8926V23.9886ZM28.1683 26.959C28.2565 26.9112 28.3301 26.8403 28.3813 26.7539C28.4326 26.6676 28.4595 26.5689 28.4594 26.4684C28.4714 26.3926 28.467 26.3151 28.4462 26.2413C28.4255 26.1674 28.3891 26.0989 28.3394 26.0406C28.2897 25.9822 28.228 25.9353 28.1585 25.9032C28.0889 25.871 28.0133 25.8544 27.9367 25.8544C27.8602 25.8544 27.7845 25.871 27.715 25.9032C27.6455 25.9353 27.5838 25.9822 27.5341 26.0406C27.4844 26.0989 27.448 26.1674 27.4273 26.2413C27.4065 26.3151 27.4021 26.3926 27.4141 26.4684C27.414 26.5689 27.4409 26.6676 27.4922 26.7539C27.5434 26.8403 27.617 26.9112 27.7052 26.959L27.467 28.3779H28.4197L28.1683 26.959Z" fill="url(#paint0_linear_274_1300)"/>
<path fill-rule="evenodd" clip-rule="evenodd" d="M29.9839 24.1345H25.8955V23.8693H29.9839L30.1294 24.0152L29.9839 24.161V24.1345ZM29.9839 23.8428H30.1294V23.9886L29.9839 23.8693V23.8428ZM29.8383 29.1471V23.9886H30.1294V29.1736L29.9839 29.3194L29.8383 29.1736V29.1471ZM30.1294 29.1471V29.2929H29.9839L30.1294 29.1471ZM25.8955 29.0012H29.9839V29.2929H25.8955L25.75 29.1736L25.8955 29.0277V29.0012ZM25.8955 29.2929H25.75V29.1736L25.8955 29.3194V29.2929ZM26.0411 23.9886V29.1736H25.75V23.9886L25.8955 23.8428L26.0411 23.9886ZM25.75 23.9886V23.8693H25.8955L25.75 24.0152V23.9886ZM28.3168 26.5214H28.6079V26.654V26.7336H28.4491L28.3168 26.4817H28.5285L28.3168 26.5214ZM27.9463 26.1236V25.8451H28.3168V26.5214H27.9992L27.9463 26.1236ZM27.5626 26.5214H27.2848V26.1104H27.6685V26.3888H27.3509L27.5626 26.5214ZM27.8537 27.0386H27.5759L27.642 27.1977H27.4832V27.1182V26.5214H27.7611H27.7875L27.8669 26.6673L27.8537 27.0386ZM27.7875 26.8397H27.8802V26.9458L27.7875 26.8397ZM27.3377 28.3514L27.5891 26.9325H27.8669L27.6155 28.3514L27.4832 28.4708L27.3377 28.2984V28.3514ZM27.4832 28.5238H27.3112V28.3514L27.4568 28.5238H27.4832ZM27.9595 28.5238H27.4832V28.2321H27.9595V28.5238ZM28.4359 28.5238H27.9595V28.2321H28.4359L28.5682 28.3514L28.4359 28.5238ZM28.5682 28.3514V28.5238H28.4094L28.5417 28.3514H28.5682ZM28.3168 26.9325L28.5682 28.3514H28.2903L28.0389 26.9325L28.1183 26.7867L28.3168 26.8795V26.9325ZM28.0389 26.9325V26.8264H28.1316L28.0389 26.9325Z" fill="#5E5F5F"/>
<path fill-rule="evenodd" clip-rule="evenodd" d="M17.1191 18.4324H21.6176L22.5041 17.3318H17.9924L17.1191 18.4324ZM38.7648 18.4324H34.2531L33.3798 17.3318H37.8783L38.7648 18.4324Z" fill="#731012"/>
<path fill-rule="evenodd" clip-rule="evenodd" d="M27.9457 13.6188C29.6614 13.6242 31.358 13.9797 32.9321 14.6636C34.5062 15.3476 35.9248 16.3456 37.1015 17.597L37.3132 17.8092H35.5138C33.4124 15.9797 30.7226 14.9723 27.9391 14.9723C25.1557 14.9723 22.4658 15.9797 20.3645 17.8092H18.5254L18.7239 17.597C19.9092 16.3388 21.3387 15.3368 22.9246 14.6527C24.5105 13.9685 26.2192 13.6167 27.9457 13.6188Z" fill="#000002"/>
<path d="M21.4481 26.7734H10.8105V29.2929H21.4481V26.7734Z" fill="url(#paint1_linear_274_1300)" stroke="#5E5F5F" stroke-width="0.16" stroke-miterlimit="2.61"/>
<path d="M17.6215 27.7812H14.6445V28.2718H17.6215V27.7812Z" fill="#424242"/>
<path d="M21.4481 31.534H10.8105V34.0535H21.4481V31.534Z" fill="url(#paint2_linear_274_1300)" stroke="#5E5F5F" stroke-width="0.22" stroke-miterlimit="2.61"/>
<path d="M17.6215 32.5551H14.6445V33.0457H17.6215V32.5551Z" fill="#424242"/>
<path d="M45.0653 26.7734H34.4277V29.2929H45.0653V26.7734Z" fill="url(#paint3_linear_274_1300)" stroke="#5E5F5F" stroke-width="0.16" stroke-miterlimit="2.61"/>
<path d="M41.2406 27.7812H38.2637V28.2718H41.2406V27.7812Z" fill="#424242"/>
<path d="M45.0653 31.534H34.4277V34.0535H45.0653V31.534Z" fill="url(#paint4_linear_274_1300)" stroke="#5E5F5F" stroke-width="0.22" stroke-miterlimit="2.61"/>
<path d="M41.2406 32.5551H38.2637V33.0457H41.2406V32.5551Z" fill="#424242"/>
</g>
<defs>
<linearGradient id="paint0_linear_274_1300" x1="24.7547" y1="26.1634" x2="31.7411" y2="27.0479" gradientUnits="userSpaceOnUse">
<stop stop-color="#9A9A9A"/>
<stop offset="0.15" stop-color="#CBCACA"/>
<stop offset="0.53" stop-color="white"/>
<stop offset="0.71" stop-color="#B3B2B3"/>
<stop offset="0.86" stop-color="white"/>
<stop offset="1" stop-color="#CBCACA"/>
</linearGradient>
<linearGradient id="paint1_linear_274_1300" x1="21.5143" y1="27.6088" x2="11.0352" y2="28.4141" gradientUnits="userSpaceOnUse">
<stop stop-color="#9A9A9A"/>
<stop offset="0.15" stop-color="#CBCACA"/>
<stop offset="0.34" stop-color="#5E5F5F"/>
<stop offset="0.53" stop-color="white"/>
<stop offset="0.71" stop-color="#B3B2B3"/>
<stop offset="0.86" stop-color="white"/>
<stop offset="1" stop-color="#CBCACA"/>
</linearGradient>
<linearGradient id="paint2_linear_274_1300" x1="11.1149" y1="32.1572" x2="23.0764" y2="33.6755" gradientUnits="userSpaceOnUse">
<stop stop-color="#9A9A9A"/>
<stop offset="0.15" stop-color="#CBCACA"/>
<stop offset="0.53" stop-color="white"/>
<stop offset="0.71" stop-color="#B3B2B3"/>
<stop offset="0.86" stop-color="white"/>
<stop offset="1" stop-color="#CBCACA"/>
</linearGradient>
<linearGradient id="paint3_linear_274_1300" x1="45.1315" y1="27.6088" x2="34.6391" y2="28.4141" gradientUnits="userSpaceOnUse">
<stop stop-color="#9A9A9A"/>
<stop offset="0.15" stop-color="#CBCACA"/>
<stop offset="0.34" stop-color="#5E5F5F"/>
<stop offset="0.53" stop-color="white"/>
<stop offset="0.71" stop-color="#B3B2B3"/>
<stop offset="0.86" stop-color="white"/>
<stop offset="1" stop-color="#CBCACA"/>
</linearGradient>
<linearGradient id="paint4_linear_274_1300" x1="34.732" y1="32.1572" x2="46.6936" y2="33.6755" gradientUnits="userSpaceOnUse">
<stop stop-color="#9A9A9A"/>
<stop offset="0.15" stop-color="#CBCACA"/>
<stop offset="0.53" stop-color="white"/>
<stop offset="0.71" stop-color="#B3B2B3"/>
<stop offset="0.86" stop-color="white"/>
<stop offset="1" stop-color="#CBCACA"/>
</linearGradient>
<clipPath id="clip0_274_1300">
<rect width="219.579" height="56" fill="white"/>
</clipPath>
</defs>
</svg>
