<svg width="33" height="28" viewBox="0 0 33 28" fill="none" xmlns="http://www.w3.org/2000/svg">
<path d="M22.2791 0C24.8069 0 26.8569 2.05017 26.8569 4.57786C26.8569 7.10554 24.8067 9.15571 22.2791 9.15571C19.7505 9.15571 17.7012 7.10554 17.7012 4.57786C17.7012 2.05017 19.7505 0 22.2791 0ZM30.8626 27.849H16.1332H2.05998C0.795651 27.849 0.232572 26.9342 0.802524 25.8057L8.65898 10.2446C9.22823 9.11616 10.3131 9.01544 11.0814 10.0194L18.9814 20.3434C19.7497 21.3475 21.0926 21.4329 21.9814 20.5333L23.914 18.5763C24.8021 17.6767 26.1106 17.788 26.8355 18.8234L31.8399 25.9719C32.5633 27.0089 32.1269 27.849 30.8626 27.849Z" fill="#ED1C24"/>
</svg>
