<svg width="51" height="52" viewBox="0 0 51 52" fill="none" xmlns="http://www.w3.org/2000/svg">
<path fill-rule="evenodd" clip-rule="evenodd" d="M41.9274 32.5261L42.0302 23.3794L42.2357 13.4105C42.2357 13.3077 42.2357 13.2049 42.1329 13.2049C42.0302 13.1022 38.0221 8.99129 38.1248 9.09406C37.7137 8.5802 37.1999 8.06634 36.7888 7.44971C34.9389 5.2915 32.9862 3.13328 30.9308 1.07784C30.7252 0.872292 30.5197 0.76952 30.2114 0.76952C29.9031 0.76952 29.5947 0.872292 29.3892 1.18061L15.9261 0.76952C7.09743 0.685438 4.95874 0.670147 4.93716 0.674401C4.90741 0.680267 8.90171 0.723282 4.93716 0.674401C4.74766 0.672065 4.53998 0.669518 4.3128 0.666748C4.00448 0.666748 3.49062 0.666748 3.18231 0.76952C2.4629 0.975065 1.7435 1.38615 1.22964 2.00279C0.715776 2.61942 0.40746 3.4416 0.304688 4.26377V4.77763V6.11367V9.7107C0.304688 14.9521 0.304688 21.8378 0.40746 31.1901C0.40746 35.9176 0.510232 40.7479 0.613004 45.4754V47.2225V48.1475C0.613004 48.5586 0.715776 48.8669 0.92132 49.1752C1.22964 49.7918 1.7435 50.4085 2.36013 50.8196C2.97676 51.2306 3.79894 51.3334 4.41557 51.3334C6.26547 51.3334 20.448 51.0251 25.8949 50.9223L33.089 50.8196H36.686L36.5832 50.614H32.9862L25.7922 50.5112C22.6062 50.4085 9.55418 50.2029 4.3128 50.1002C3.28508 50.1002 2.36013 49.5863 2.05181 48.6613C1.84627 48.2503 1.84627 47.8392 1.94904 47.1198V45.3726C2.05181 40.6451 2.15459 35.8148 2.15459 31.0873C2.25736 21.8378 2.25736 14.9521 2.25736 9.60792V5.18872V4.36655C2.25736 3.95546 2.4629 3.64714 2.66845 3.33882C2.87399 3.03051 3.28508 2.82496 3.5934 2.72219C3.90171 2.61942 4.00448 2.61942 5.13498 2.61942C6.36824 2.61942 14.0762 2.51665 15.8233 2.51665L29.0809 2.3111V7.24416V10.019C29.0809 10.4301 29.0809 11.0467 29.2864 11.6634C29.492 12.28 29.8003 12.7939 30.2114 13.2049C30.6225 13.616 31.2391 13.9244 31.753 14.0271C32.3696 14.2327 32.9862 14.1299 33.3973 14.1299C34.425 14.1299 35.35 14.0271 36.3777 13.9244C38.1248 13.7188 39.7692 13.5133 41.208 13.4105L41.3108 13.5133L41.5163 23.3794L41.6191 32.5261H41.9274ZM31.2391 7.14139V9.91624C31.1363 10.4301 31.1363 10.7384 31.2391 10.944C31.4446 11.6634 31.8557 12.1772 32.4724 12.3828C32.7807 12.5883 33.1918 12.5883 33.6029 12.5883C34.425 12.5883 35.2472 12.6911 36.1722 12.7939C37.8165 12.9994 39.5636 13.205 41.4135 13.3077L36.7888 8.88852C35.35 7.65525 33.7056 6.31922 31.2391 3.95546V7.14139Z" fill="#222222"/>
<path d="M31.2403 49.5737C31.3332 49.5737 36.7221 47.7154 36.3504 47.9012C36.4434 47.9012 36.6292 47.8083 36.7221 47.7154C39.4165 44.9281 42.111 42.1407 44.7125 39.3533C46.0133 37.9597 47.314 36.566 48.6148 35.0794L49.5439 33.9645L50.0085 33.407C50.1943 33.2212 50.3801 33.0353 50.4731 32.7566C50.7518 32.292 50.7518 31.7346 50.566 31.1771C50.3801 30.7125 49.9156 30.4338 49.5439 30.0622C49.8227 30.4338 50.1943 30.8055 50.2872 31.27C50.3801 31.7346 50.2872 32.1991 50.0085 32.4779C49.9156 32.6637 49.7298 32.7566 49.5439 32.9424L49.0794 33.4999L47.9644 34.429C46.4778 35.7298 45.0842 37.0306 43.6905 38.3313C40.9031 40.9329 38.2087 43.5344 35.5142 46.1359L32.3552 47.2509L33.3773 43.9989C34.678 42.6982 35.9788 41.3045 37.2796 40.0037C38.6732 38.6101 39.974 37.2164 41.2748 35.7298C42.5755 34.3361 43.9692 32.8495 45.1771 31.4558L46.1991 30.3409C46.5708 29.9692 46.8495 29.5976 47.1282 29.4118C47.4999 29.2259 47.9644 29.133 48.429 29.3189C48.8935 29.5047 49.1723 29.8763 49.5439 30.1551C49.2652 29.7834 49.0794 29.4118 48.6148 29.133C48.1503 28.8543 47.4999 28.7614 47.0353 29.0401C46.7566 29.133 46.5708 29.3189 46.3849 29.5047L45.8275 29.9692L44.7125 30.9913C43.2259 32.292 41.8322 33.5928 40.4386 34.8936C39.0449 36.1943 37.5583 37.588 36.1646 38.8888C34.7709 40.2825 33.3773 41.5832 31.9836 42.9769C31.8907 43.0698 31.7978 43.1627 31.7978 43.3486C31.7978 43.4415 30.0324 48.5516 30.1253 48.4587C30.0324 48.6445 30.0324 48.8304 30.1253 49.0162C30.2183 49.4807 30.7757 49.7595 31.2403 49.5737Z" fill="#222222"/>
<path d="M26.0254 26.2723C24.9947 25.8305 23.8168 25.5361 22.3443 25.0943V17.8794C23.964 17.8794 25.4364 18.1739 26.9088 18.7629C27.0561 18.9101 27.3506 18.9101 27.3506 18.9101C27.6451 18.9101 27.9396 18.7629 28.234 18.4684C28.5285 18.1739 28.5285 17.8794 28.5285 17.5849C28.5285 16.996 28.234 16.5542 27.6451 16.407C26.0254 15.818 24.1112 15.5235 22.1971 15.3763V12.8732C22.1971 12.7259 22.1971 12.4314 22.0498 12.4314C21.9026 12.2842 21.7554 12.137 21.6081 12.137C21.4609 12.137 21.1664 12.137 21.1664 12.2842C21.0191 12.4314 21.0191 12.5787 21.0191 12.7259V15.0818C19.5467 15.2291 18.2215 15.5235 17.0436 16.1125C16.0129 16.7015 15.1294 17.4377 14.5405 18.3212C13.9515 19.2046 13.657 20.2353 13.657 21.4133C13.657 22.7384 13.9515 23.7691 14.6877 24.5054C15.4239 25.2416 16.1601 25.8305 17.1908 26.2723C18.2215 26.714 19.3995 27.1557 20.8719 27.4502V34.5179C18.8105 34.5179 16.8963 34.0761 15.2767 33.3399C15.1294 33.1927 14.8349 33.1927 14.6877 33.1927C14.3932 33.1927 13.9515 33.3399 13.8042 33.4872C13.657 33.6344 13.5098 34.0761 13.5098 34.3706C13.5098 34.6651 13.657 34.8123 13.8042 35.1068C13.9515 35.2541 14.0987 35.5486 14.3932 35.5486C16.4546 36.432 18.6633 36.8737 20.8719 37.021V39.3769C20.8719 39.5241 20.8719 39.6714 21.0191 39.8186C21.1664 39.9658 21.3136 39.9658 21.4609 39.9658C21.6081 39.9658 21.9026 39.9658 21.9026 39.8186C22.0498 39.6714 22.0498 39.5241 22.0498 39.3769V37.1682C23.5223 37.021 24.7002 36.7265 25.8781 36.2848C26.9088 35.6958 27.7923 35.1068 28.3813 34.2234C28.9702 33.3399 29.2647 32.3092 29.2647 31.2785C29.2647 29.9533 28.9702 28.9226 28.234 28.0392C27.7923 27.303 27.0561 26.5668 26.0254 26.2723ZM20.8719 24.7998C19.3995 24.5054 18.3688 24.0636 17.6326 23.4747C16.8963 23.0329 16.4546 22.2967 16.4546 21.266C16.4546 20.2353 16.8963 19.4991 17.6326 18.9101C18.3688 18.3212 19.5467 17.8794 20.8719 17.8794V24.7998ZM22.3443 34.6651V28.0392C23.8168 28.4809 24.8475 28.7754 25.7309 29.3644C26.4671 29.8061 26.9088 30.3951 26.9088 31.2785C26.7616 33.1927 25.2892 34.3706 22.3443 34.6651Z" fill="#ED1C24"/>
</svg>
