<svg width="57" height="46" viewBox="0 0 57 46" fill="none" xmlns="http://www.w3.org/2000/svg">
<path fill-rule="evenodd" clip-rule="evenodd" d="M51.6958 29.6954L51.7475 27.8878H51.6442L51.6958 29.6954Z" fill="#222222"/>
<path d="M51.6442 27.8878H51.7475H52.5738H52.987H53.6068C54.8463 27.6812 55.8792 26.7516 56.2924 25.5121C56.499 25.2022 56.499 24.6857 56.499 24.4791V20.9672V17.4552C56.499 17.2486 56.499 16.7322 56.3957 16.319C56.0858 15.0795 55.0529 14.1499 53.7101 13.9433H53.0903H51.7475C49.5783 13.9433 49.475 13.9433 46.5828 14.0466L43.0709 14.1499C42.3478 14.1499 41.8314 14.1499 41.2116 14.2531C40.5919 14.3564 39.9721 14.563 39.3523 14.8729C37.0799 16.0091 35.6338 18.4882 35.9437 20.8639C36.1503 18.4882 37.6997 16.5256 39.7655 15.8025C40.282 15.596 40.7984 15.4927 41.3149 15.4927H42.9676C46.1697 15.596 48.1322 15.6993 49.9915 15.6993C50.1981 15.6993 52.6771 15.8025 52.5738 15.8025H52.987H53.2969C53.8133 15.9058 54.2265 16.319 54.3298 16.7322V17.3519V20.8639V24.3758V24.9956C54.2265 25.5121 53.8133 25.8219 53.2969 25.9252H52.987H51.6442C49.475 25.9252 48.8553 25.9252 46.3763 26.0285L43.0709 26.3384H42.2446H41.4182C40.9017 26.3384 40.3853 26.1318 39.8688 26.0285C37.803 25.3055 36.2536 23.2396 36.047 20.9672C35.7371 23.3429 37.1832 25.8219 39.4556 26.9582C40.0754 27.268 40.5919 27.4746 41.3149 27.5779C41.6248 27.6812 41.9347 27.6812 42.2446 27.6812H43.0709C46.5828 27.7845 48.0289 27.8878 50.0948 27.8878H51.6442Z" fill="#222222"/>
<path d="M21.7475 40.6961H25.7177L43.8972 40.3862C44.6203 40.3862 45.3433 40.3862 46.1697 40.2829C46.996 40.1796 47.7191 39.9731 48.4421 39.5599C49.8882 38.8368 51.0244 37.494 51.5409 36.0479C51.8508 35.3249 51.8508 34.4985 51.8508 33.7755L51.7475 31.503L51.6958 29.6954L51.6442 31.503C51.5409 33.0524 51.7475 34.6018 51.1277 35.9446C50.3014 37.9072 48.4421 39.3533 46.1697 39.4566H43.8972L25.7177 39.1467L21.7475 39.0434V40.6961Z" fill="#222222"/>
<path d="M51.7475 13.9433L51.8508 10.328L51.9541 8.05558C51.9541 7.33253 51.8508 6.50619 51.6442 5.78314C51.1277 4.23375 49.9915 2.99424 48.5454 2.27119C47.8224 1.85802 46.996 1.65143 46.273 1.54814C45.6532 1.54814 45.1367 1.44484 44.6203 1.44484L44.4137 1.54814C43.4926 1.54814 38.1978 1.45094 32.7959 1.35655L25.7177 1.23826L17.7641 1.13497L16.1115 1.03167L12.083 0.92838C10.4304 0.825087 8.57108 1.44484 7.22827 2.58107C5.88547 3.71729 5.05912 5.36997 4.85254 7.12595V7.74571V9.50168V20.8639V24.2172L6.9184 23.5954V20.8639V8.46875V7.849V7.33253C7.02169 6.09302 7.64145 4.85351 8.57108 4.02716C9.50072 3.20082 10.7402 2.68436 12.083 2.78765H16.6279L25.7177 2.68436L32.7959 2.56371L43.8972 2.37448C44.6203 2.37448 45.4466 2.27119 46.1697 2.37448C48.4421 2.47777 50.3014 3.92387 51.1277 5.88644C51.7475 7.22924 51.5409 8.77863 51.6442 10.328L51.7475 13.9433Z" fill="#222222"/>
<path d="M42.8633 24.376C43.7929 24.2727 44.6193 23.8595 45.0324 23.1365C45.5489 22.5167 45.6522 21.5871 45.4456 20.9673C45.0324 22.3101 43.7929 22.9299 42.8633 22.7233C41.9337 22.62 41.3139 21.6904 41.3139 20.9673C41.3139 20.141 41.9337 19.3146 42.8633 19.2113C43.7929 19.0047 45.0324 19.6245 45.4456 20.9673C45.6522 20.2443 45.5489 19.4179 45.0324 18.7982C44.516 18.1784 43.6896 17.6619 42.8633 17.5586C42.0369 17.4553 41.004 17.7652 40.3843 18.385C39.6612 19.0047 39.248 19.9344 39.248 20.864C39.248 21.7936 39.6612 22.7233 40.3843 23.4463C41.004 24.0661 41.9337 24.4793 42.8633 24.376Z" fill="#222222"/>
<path fill-rule="evenodd" clip-rule="evenodd" d="M0.50757 33.3378C0.414733 36.1229 1.15742 38.7223 3.75684 41.5074C4.96371 42.8071 6.17058 43.6426 7.84163 44.2925C11.4622 45.5922 15.6399 45.3137 18.8891 43.2713C21.3957 41.693 23.4381 38.908 23.9951 35.9372C26.5017 28.139 20.096 19.8765 11.0909 21.0834L8.76999 21.6404C4.77804 22.9401 1.80728 26.2822 0.878916 30.6455L0.50757 33.3378ZM12.9476 42.8071C18.6106 42.8071 23.1596 38.2581 23.1596 32.5951C23.1596 26.9321 18.6106 22.3831 12.9476 22.3831C5.05655 22.3831 0.600406 29.6243 3.57116 36.5871C5.14938 40.3005 8.86283 42.8071 12.9476 42.8071Z" fill="#ED1C24"/>
<path d="M7.93418 31.3882C7.65567 31.1097 7.19149 31.1097 6.91298 31.3882C6.63447 31.6667 6.63447 32.1309 6.91298 32.4094L10.4408 35.8443C10.7193 36.1228 11.1834 36.1228 11.462 35.8443L18.3318 28.9744C18.9817 28.3246 17.9605 27.3034 17.3106 27.9532L10.9049 34.3589L7.93418 31.3882Z" fill="#ED1C24"/>
</svg>
