<svg width="65" height="60" viewBox="0 0 65 60" fill="none" xmlns="http://www.w3.org/2000/svg">
<path fill-rule="evenodd" clip-rule="evenodd" d="M0.5 51.9946V52.5039V53.115C0.703716 54.8466 1.51858 56.4764 2.84274 57.5968C4.16689 58.7172 6.00034 59.3284 7.63007 59.2265H12.1118L21.0753 59.1247L39.0024 58.8191C39.7154 58.8191 40.4284 58.8191 41.2433 58.7172C42.0581 58.6154 42.7711 58.4117 43.4841 58.0042C44.9102 57.2912 46.0306 55.9671 46.5399 54.5411C46.8455 53.828 46.8455 53.0132 46.8455 52.3002L46.7436 50.0593L46.6927 48.2768L46.6417 50.0593C46.5399 51.5872 46.7436 53.115 46.1325 54.4392C45.3176 56.3745 43.4841 57.8005 41.2433 57.9024H39.0024L21.0753 57.5968H12.1118H7.63007C6.30591 57.5968 5.08362 57.1894 4.16689 56.3745C3.25017 55.5596 2.63902 54.3373 2.53716 53.115V52.5039V50.7723V39.5679V27.3449V26.7338V26.2245C2.63902 25.0022 3.25017 23.7799 4.16689 22.965C5.08362 22.1502 6.30591 21.6409 7.63007 21.7427H12.1118L21.0753 21.6409L39.0024 21.3353C39.7154 21.3353 40.5303 21.2335 41.2433 21.3353L41.3451 20.5205C40.734 20.5205 40.2247 20.4186 39.7154 20.4186C39.308 19.0944 38.7987 17.8721 38.2894 16.548L37.3727 14.409L36.9652 13.3904C36.8634 13.0848 36.5578 12.5755 36.2522 12.1681C35.5392 11.4551 34.6225 10.9458 33.502 11.0476C33.1965 11.0476 32.9928 11.0476 32.789 11.1495C32.4835 11.2514 32.3816 11.2514 32.1779 11.3532L31.0574 11.6588L26.7794 13.2885C23.9274 14.409 21.0753 15.5294 18.2233 16.8536C15.9824 17.8721 13.7416 18.8907 11.6025 20.0112L7.63007 19.9093C6.00034 19.8074 4.16689 20.4186 2.84274 21.539C1.51858 22.6595 0.703716 24.2892 0.5 26.0208V26.6319V28.3635V39.5679V51.9946ZM27.3906 15.2238C24.5385 16.2424 21.6865 17.3628 18.7326 18.2796L13.2323 20.113L21.0753 20.2149C27.6961 20.3167 38.1875 20.5205 39.5117 20.5205C38.7987 19.4 38.0857 18.1777 37.3727 17.0573L36.1504 15.0201C35.7429 14.409 35.4373 13.5941 35.0299 13.2885C34.6225 12.8811 34.1132 12.6774 33.6039 12.7792C33.502 12.7792 33.4002 12.7792 33.0946 12.8811L32.6872 13.0848L31.6686 13.4922L27.3906 15.2238Z" fill="#222222"/>
<path d="M46.7436 32.7434L46.8455 29.1784L46.9473 26.9375L46.5825 27.0027C46.6143 27.713 46.5929 28.4457 46.6417 29.1784L46.7436 32.7434Z" fill="#222222"/>
<path d="M46.6417 46.4943H46.7436H47.5585H47.9659H48.5771C49.7994 46.2905 50.8179 45.3738 51.2254 44.1515C51.4291 43.846 51.4291 43.3367 51.4291 43.1329V39.6698V36.2066C51.4291 36.0029 51.4291 35.4936 51.3272 35.0862C51.0216 33.8639 50.0031 32.9471 48.6789 32.7434H48.0678H46.7436C44.6046 32.7434 44.5027 32.7434 41.6507 32.8453L38.1875 32.9471C37.4745 32.9471 36.9652 32.9471 36.3541 33.049C35.7429 33.1509 35.1318 33.3546 34.5206 33.6601C32.2797 34.7806 30.8537 37.2252 31.1593 39.5679C31.363 37.2252 32.8909 35.2899 34.9281 34.5769C35.4373 34.3732 35.9466 34.2713 36.4559 34.2713H38.0857C41.2433 34.3732 43.1786 34.475 45.012 34.475C45.2157 34.475 47.6603 34.5769 47.5585 34.5769H47.9659H48.2715C48.7808 34.6787 49.1882 35.0862 49.2901 35.4936V36.1047V39.5679V43.0311V43.6422C49.1882 44.1515 48.7808 44.4571 48.2715 44.559H47.9659H46.6417C44.5027 44.559 43.8916 44.559 41.447 44.6608L38.1875 44.9664H37.3727H36.5578C36.0485 44.9664 35.5392 44.7627 35.0299 44.6608C32.9928 43.9478 31.4649 41.9107 31.2612 39.6698C30.9556 42.0125 32.3816 44.4571 34.6225 45.5775C35.2336 45.8831 35.7429 46.0868 36.4559 46.1887C36.7615 46.2906 37.0671 46.2906 37.3727 46.2906H38.1875C41.6507 46.3924 43.0767 46.4943 45.1139 46.4943H46.6417Z" fill="#222222"/>
<path d="M37.984 43.0313C38.9007 42.9294 39.7156 42.522 40.123 41.809C40.6323 41.1978 40.7341 40.2811 40.5304 39.6699C40.123 40.9941 38.9007 41.6052 37.984 41.4015C37.0672 41.2997 36.4561 40.3829 36.4561 39.6699C36.4561 38.8551 37.0672 38.0402 37.984 37.9383C38.9007 37.7346 40.123 38.3458 40.5304 39.6699C40.7341 38.9569 40.6323 38.1421 40.123 37.5309C39.6137 36.9198 38.7988 36.4105 37.984 36.3086C37.1691 36.2068 36.1505 36.5123 35.5394 37.1235C34.8264 37.7346 34.4189 38.6513 34.4189 39.5681C34.4189 40.4848 34.8264 41.4015 35.5394 42.1145C36.1505 42.7257 37.0672 43.1331 37.984 43.0313Z" fill="#222222"/>
<path d="M19.9553 52.5039C21.3813 52.4021 22.7055 52.0965 24.1315 51.6891C22.7055 51.2816 21.3813 51.0779 19.9553 50.8742C17.0014 50.5686 14.3531 50.5686 11.6029 50.8742C10.1769 50.9761 8.85277 51.2816 7.42676 51.6891C8.85277 52.0965 10.1769 52.3002 11.6029 52.5039C14.3531 52.8095 17.0014 52.8095 19.9553 52.5039Z" fill="#222222"/>
<g clip-path="url(#clip0_275_268)">
<path d="M48.1225 22.9318C47.6934 21.8763 46.8913 21.067 45.9259 20.7404C47.4569 22.086 47.5961 24.2434 46.6235 25.5282C45.7375 26.863 43.9262 27.2021 42.628 26.4525C41.3298 25.703 40.7177 23.9649 41.4307 22.5302C42.0571 21.0455 43.995 20.0872 45.9259 20.7404C45.1603 20.0676 44.0584 19.7776 42.9297 19.9337C42.0241 20.1033 41.4233 20.2281 40.683 20.8103C40.2694 21.1355 39.9661 21.4692 39.7729 21.8038C39.0867 22.7924 38.9198 24.0808 39.1625 25.2595C39.4052 26.4382 40.2804 27.5205 41.319 28.1201C42.4441 28.7697 43.7325 28.9366 44.8746 28.5574C46.0167 28.1782 46.92 27.5061 47.5832 26.6082C48.2464 25.7104 48.7115 24.6043 48.1225 22.9318Z" fill="#ED1C24"/>
<path d="M60.7941 10.9768C59.2301 8.68905 57.02 6.72069 54.6467 5.23504C52.2233 3.83593 49.4136 2.90614 46.6004 2.78206C43.8371 2.57142 40.9471 2.98001 38.463 4.08456C41.1665 3.7991 43.8933 3.87322 46.4201 4.29353C48.9835 4.85035 51.4836 5.71679 53.6473 6.96599C55.8975 8.26516 57.9479 9.91052 59.5753 11.8887C61.2893 13.9168 62.6303 16.1912 63.7348 18.6752C63.4494 15.9717 62.4447 13.3146 60.7941 10.9768Z" fill="#ED1C24"/>
<path d="M51.7979 10.1682C48.1629 8.0695 43.5286 7.70178 39.8391 9.49512C41.86 9.39256 43.781 9.46309 45.5887 9.92978C49.3041 10.6901 52.5429 12.6754 55.109 15.4263C56.367 16.845 57.4386 18.3868 58.3602 20.1883C58.0685 16.0964 55.4829 12.1803 51.7979 10.1682Z" fill="#ED1C24"/>
<path d="M41.3024 14.9558C42.6408 15.0361 43.7927 15.2396 44.8946 15.5296C47.185 16.1596 49.089 17.2589 50.6067 18.8275C51.4088 19.6368 52.161 20.5326 52.8997 21.6515C53.0604 18.9748 51.3366 16.364 48.9998 15.0149C46.6631 13.6657 43.5402 13.4783 41.3024 14.9558Z" fill="#ED1C24"/>
</g>
<defs>
<clipPath id="clip0_275_268">
<rect width="36.1739" height="34.7826" fill="white" transform="translate(28.3262 0.762451)"/>
</clipPath>
</defs>
</svg>
