<svg width="61" height="57" viewBox="0 0 61 57" fill="none" xmlns="http://www.w3.org/2000/svg">
<path d="M19.214 21.7443C19.1479 21.6661 19.0682 21.5954 19.0144 21.5112C18.8039 21.1836 18.3673 21.0866 18.0392 21.298C17.7111 21.508 17.6155 21.9446 17.8251 22.2732C18.1084 22.7146 18.4969 23.0991 18.9572 23.4084C18.9572 23.4084 20.3293 24.3944 21.3471 24.4634L20.3766 22.5299C20.0049 22.362 19.6153 22.1057 19.214 21.7443Z" fill="#ED1C24"/>
<path d="M25.3555 17.4389C23.7017 15.1003 18.9771 14.7234 18.2387 12.8481C17.8756 11.9092 18.5218 10.6073 19.3186 9.85452C20.1642 9.04202 22.0934 8.49561 23.0034 8.80949C23.3719 8.93586 23.7745 8.74101 23.9014 8.37291C24.0282 8.00434 23.8333 7.60223 23.4648 7.47493C23.0474 7.3316 22.5592 7.29467 22.0496 7.32833L22.0512 6.50112C22.0521 6.11142 21.7368 5.79478 21.3471 5.79386H21.3453C20.9565 5.79386 20.6403 6.10912 20.6394 6.49836L20.6373 7.59384C19.7277 7.87055 18.8764 8.32189 18.3453 8.83246C17.2258 9.88991 16.303 11.7566 16.9234 13.361C18.2357 16.698 24.2486 16.2142 23.9014 20.1504L25.9611 20.9543C26.1258 19.6784 25.9253 18.253 25.3555 17.4389Z" fill="#ED1C24"/>
<path d="M32.3254 28.3859C33.87 27.3281 35.2727 26.0229 36.3364 24.4634C38.16 21.8101 39.9106 16.4671 38.8347 11.9992C37.8279 7.76158 34.9503 4.17528 31.4036 2.22481C28.2804 0.510914 23.5643 -0.0295622 20.0187 0.887786C7.76013 2.71169 3.06818 17.9351 11.9409 26.4869C14.5954 29.0315 18.9873 31.112 23.2275 31.2249C23.7966 31.2401 24.3491 31.2191 24.8828 31.1688L23.9014 29.2714C23.2796 29.2758 22.6323 29.2466 21.9544 29.1866C14.2399 28.5038 8.03987 22.2715 8.83702 14.3132C9.54799 7.2667 15.3908 2.12291 22.189 2.12291C35.1679 2.12291 40.1229 18.8287 32.7246 25.6623C32.1507 26.1924 31.5812 26.6573 31.0081 27.0614L32.3254 28.3859Z" fill="#ED1C24"/>
<path fill-rule="evenodd" clip-rule="evenodd" d="M55.0152 31.9916C53.859 31.487 52.4656 31.0146 50.8728 30.5881C49.2845 30.1662 47.6126 30.9861 46.9913 32.5026C46.7531 33.0829 46.5403 33.6728 46.3275 34.2625L46.3138 34.3004C44.0228 33.2499 41.6422 31.2312 39.4858 30.072C37.2555 28.8623 35.0934 28.9748 33.1691 27.8585C33.1691 27.8585 32.8085 28.0587 31.1141 25.8912C29.4198 23.7238 28.4116 21.7353 26.3481 20.342L25.024 19.6388C23.0281 18.8594 20.8519 19.3432 20.0576 21.2168C19.801 21.8223 19.7542 22.0635 19.8009 22.881C19.8476 23.6984 20.4943 24.9062 22.798 28.6592L24.0711 30.6975C25.55 33.0146 26.9727 35.0673 29.0296 36.9401C26.4932 36.9174 20.7901 34.5749 18.5419 33.6598C12.2693 31.2264 6.7598 25.7552 5.69537 24.8344C4.91312 24.2739 3.19002 21.8408 1.37644 23.1258C0.524819 23.728 0.295499 24.5947 0.388502 25.5265C-0.0574995 26.4995 -0.0249858 27.8668 0.133619 28.7761C0.378679 30.1808 1.01488 31.3827 1.68905 32.5136C5.97938 39.7116 12.2401 45.1057 19.5234 47.8795C26.7043 50.6144 34.8555 50.7877 42.7763 48.3894C42.6487 50.0136 42.4895 51.6883 42.3535 53.326C42.2947 54.0346 42.7792 54.6655 43.4736 54.8184C45.5662 55.2792 47.5635 55.7648 49.6904 56.0578C51.0824 56.2496 51.8178 55.2433 52.9147 54.5907C53.7716 54.5772 53.8593 53.3296 53.0198 53.191C50.4058 52.7526 47.808 52.4657 45.1455 52.0411C45.1337 52.0252 45.1246 52.0074 45.1131 51.9912C44.7404 45.5738 45.8363 39.0344 48.2974 33.0385C48.6558 32.1625 49.5878 31.7048 50.5079 31.9521C54.2027 32.9409 53.4674 33.126 56.6586 33.9741C57.5446 34.2085 59.3884 34.6966 59.5529 35.0752C57.9312 40.9828 57.7871 45.3049 56.5547 49.4107C56.4435 49.7848 56.6549 50.1782 57.0281 50.2903C57.4031 50.4015 57.7946 50.1892 57.9077 49.817C59.1635 45.6272 59.3223 41.2468 60.915 35.4484C61.5446 33.1437 56.8819 32.8109 55.0152 31.9916ZM43.6777 45.3811C43.7285 45.3573 43.7824 45.3421 43.8375 45.331C44.1492 42.0453 44.8302 38.79 45.8551 35.6408C43.3827 34.5448 40.9327 32.4529 38.8148 31.3142C36.7421 30.1875 34.28 30.2966 32.1347 28.8946C29.5955 27.1753 28.2137 23.4077 25.7138 21.6115C23.7893 20.2289 21.2779 20.2556 21.2092 22.5081C21.1492 23.456 21.6286 24.1866 22.1696 25.0072C24.7769 28.9609 26.9266 33.3486 30.4683 36.3344C30.5373 36.3925 30.589 36.4629 30.6298 36.5376C31.2496 36.608 31.4744 37.3755 31.006 37.7728C28.8281 39.6155 21.1326 36.1952 18.0474 34.9824C9.53951 30.5838 10.3133 30.7297 4.82129 25.9406C4.09034 25.4345 2.89427 23.7795 2.19078 24.2784C0.634735 25.3788 3.72734 29.4072 4.68802 30.8482C9.90018 38.337 17.4059 44.0251 26.6402 45.3951C32.1742 46.2446 38.6808 45.7136 43.6777 45.3811Z" fill="#222222"/>
<path d="M50.4237 34.1488C50.2289 34.0753 50.0037 34.0863 49.8107 34.203C48.4015 35.048 48.8441 37.4411 50.7004 37.4411C51.8603 37.4411 52.6533 36.4598 52.409 35.3584C52.203 34.435 51.3422 33.8867 50.4237 34.1488ZM50.7941 35.681C50.7573 35.6736 50.6948 35.6075 50.6893 35.5863C50.7047 35.5298 50.8713 35.4698 50.9366 35.5054C50.9743 35.5275 51.0083 35.5808 51.0257 35.6461C50.955 35.6516 50.8722 35.6562 50.7941 35.681Z" fill="#222222"/>
</svg>
