<svg width="112" height="228" viewBox="0 0 112 228" fill="none" xmlns="http://www.w3.org/2000/svg">
<g opacity="0.5">
<circle cx="4" cy="224" r="4" transform="rotate(-90 4 224)" fill="#E0E0E0"/>
<circle cx="24" cy="224" r="4" transform="rotate(-90 24 224)" fill="#E0E0E0"/>
<circle cx="44" cy="224" r="4" transform="rotate(-90 44 224)" fill="#E0E0E0"/>
<circle cx="64" cy="224" r="4" transform="rotate(-90 64 224)" fill="#E0E0E0"/>
<circle cx="84" cy="224" r="4" transform="rotate(-90 84 224)" fill="#E0E0E0"/>
<circle cx="104" cy="224" r="4" transform="rotate(-90 104 224)" fill="#E0E0E0"/>
<circle cx="4" cy="184" r="4" transform="rotate(-90 4 184)" fill="#E0E0E0"/>
<circle cx="24" cy="184" r="4" transform="rotate(-90 24 184)" fill="#E0E0E0"/>
<circle cx="44" cy="184" r="4" transform="rotate(-90 44 184)" fill="#E0E0E0"/>
<circle cx="64" cy="184" r="4" transform="rotate(-90 64 184)" fill="#E0E0E0"/>
<circle cx="84" cy="184" r="4" transform="rotate(-90 84 184)" fill="#E0E0E0"/>
<circle cx="104" cy="184" r="4" transform="rotate(-90 104 184)" fill="#E0E0E0"/>
<circle cx="4" cy="144" r="4" transform="rotate(-90 4 144)" fill="#E0E0E0"/>
<circle cx="24" cy="144" r="4" transform="rotate(-90 24 144)" fill="#E0E0E0"/>
<circle cx="44" cy="144" r="4" transform="rotate(-90 44 144)" fill="#E0E0E0"/>
<circle cx="64" cy="144" r="4" transform="rotate(-90 64 144)" fill="#E0E0E0"/>
<circle cx="84" cy="144" r="4" transform="rotate(-90 84 144)" fill="#E0E0E0"/>
<circle cx="104" cy="144" r="4" transform="rotate(-90 104 144)" fill="#E0E0E0"/>
<circle cx="4" cy="204" r="4" transform="rotate(-90 4 204)" fill="#E0E0E0"/>
<circle cx="24" cy="204" r="4" transform="rotate(-90 24 204)" fill="#E0E0E0"/>
<circle cx="44" cy="204" r="4" transform="rotate(-90 44 204)" fill="#E0E0E0"/>
<circle cx="64" cy="204" r="4" transform="rotate(-90 64 204)" fill="#E0E0E0"/>
<circle cx="84" cy="204" r="4" transform="rotate(-90 84 204)" fill="#E0E0E0"/>
<circle cx="104" cy="204" r="4" transform="rotate(-90 104 204)" fill="#E0E0E0"/>
<circle cx="4" cy="164" r="4" transform="rotate(-90 4 164)" fill="#E0E0E0"/>
<circle cx="24" cy="164" r="4" transform="rotate(-90 24 164)" fill="#E0E0E0"/>
<circle cx="44" cy="164" r="4" transform="rotate(-90 44 164)" fill="#E0E0E0"/>
<circle cx="64" cy="164" r="4" transform="rotate(-90 64 164)" fill="#E0E0E0"/>
<circle cx="84" cy="164" r="4" transform="rotate(-90 84 164)" fill="#E0E0E0"/>
<circle cx="104" cy="164" r="4" transform="rotate(-90 104 164)" fill="#E0E0E0"/>
<circle cx="4" cy="124" r="4" transform="rotate(-90 4 124)" fill="#E0E0E0"/>
<circle cx="24" cy="124" r="4" transform="rotate(-90 24 124)" fill="#E0E0E0"/>
<circle cx="44" cy="124" r="4" transform="rotate(-90 44 124)" fill="#E0E0E0"/>
<circle cx="64" cy="124" r="4" transform="rotate(-90 64 124)" fill="#E0E0E0"/>
<circle cx="84" cy="124" r="4" transform="rotate(-90 84 124)" fill="#E0E0E0"/>
<circle cx="104" cy="124" r="4" transform="rotate(-90 104 124)" fill="#E0E0E0"/>
<circle cx="4" cy="104" r="4" transform="rotate(-90 4 104)" fill="#E0E0E0"/>
<circle cx="24" cy="104" r="4" transform="rotate(-90 24 104)" fill="#E0E0E0"/>
<circle cx="44" cy="104" r="4" transform="rotate(-90 44 104)" fill="#E0E0E0"/>
<circle cx="64" cy="104" r="4" transform="rotate(-90 64 104)" fill="#E0E0E0"/>
<circle cx="84" cy="104" r="4" transform="rotate(-90 84 104)" fill="#E0E0E0"/>
<circle cx="104" cy="104" r="4" transform="rotate(-90 104 104)" fill="#E0E0E0"/>
<circle cx="4" cy="64" r="4" transform="rotate(-90 4 64)" fill="#E0E0E0"/>
<circle cx="24" cy="64" r="4" transform="rotate(-90 24 64)" fill="#E0E0E0"/>
<circle cx="44" cy="64" r="4" transform="rotate(-90 44 64)" fill="#E0E0E0"/>
<circle cx="64" cy="64" r="4" transform="rotate(-90 64 64)" fill="#E0E0E0"/>
<circle cx="84" cy="64" r="4" transform="rotate(-90 84 64)" fill="#E0E0E0"/>
<circle cx="104" cy="64" r="4" transform="rotate(-90 104 64)" fill="#E0E0E0"/>
<circle cx="4" cy="24" r="4" transform="rotate(-90 4 24)" fill="#E0E0E0"/>
<circle cx="24" cy="24" r="4" transform="rotate(-90 24 24)" fill="#E0E0E0"/>
<circle cx="44" cy="24" r="4" transform="rotate(-90 44 24)" fill="#E0E0E0"/>
<circle cx="64" cy="24" r="4" transform="rotate(-90 64 24)" fill="#E0E0E0"/>
<circle cx="84" cy="24" r="4" transform="rotate(-90 84 24)" fill="#E0E0E0"/>
<circle cx="104" cy="24" r="4" transform="rotate(-90 104 24)" fill="#E0E0E0"/>
<circle cx="4" cy="84" r="4" transform="rotate(-90 4 84)" fill="#E0E0E0"/>
<circle cx="24" cy="84" r="4" transform="rotate(-90 24 84)" fill="#E0E0E0"/>
<circle cx="44" cy="84" r="4" transform="rotate(-90 44 84)" fill="#E0E0E0"/>
<circle cx="64" cy="84" r="4" transform="rotate(-90 64 84)" fill="#E0E0E0"/>
<circle cx="84" cy="84" r="4" transform="rotate(-90 84 84)" fill="#E0E0E0"/>
<circle cx="104" cy="84" r="4" transform="rotate(-90 104 84)" fill="#E0E0E0"/>
<circle cx="4" cy="44" r="4" transform="rotate(-90 4 44)" fill="#E0E0E0"/>
<circle cx="24" cy="44" r="4" transform="rotate(-90 24 44)" fill="#E0E0E0"/>
<circle cx="44" cy="44" r="4" transform="rotate(-90 44 44)" fill="#E0E0E0"/>
<circle cx="64" cy="44" r="4" transform="rotate(-90 64 44)" fill="#E0E0E0"/>
<circle cx="84" cy="44" r="4" transform="rotate(-90 84 44)" fill="#E0E0E0"/>
<circle cx="104" cy="44" r="4" transform="rotate(-90 104 44)" fill="#E0E0E0"/>
<circle cx="4" cy="4" r="4" transform="rotate(-90 4 4)" fill="#E0E0E0"/>
<circle cx="24" cy="4" r="4" transform="rotate(-90 24 4)" fill="#E0E0E0"/>
<circle cx="44" cy="4" r="4" transform="rotate(-90 44 4)" fill="#E0E0E0"/>
<circle cx="64" cy="4" r="4" transform="rotate(-90 64 4)" fill="#E0E0E0"/>
<circle cx="84" cy="4" r="4" transform="rotate(-90 84 4)" fill="#E0E0E0"/>
<circle cx="104" cy="4" r="4" transform="rotate(-90 104 4)" fill="#E0E0E0"/>
</g>
</svg>
