<svg width="58" height="58" viewBox="0 0 58 58" fill="none" xmlns="http://www.w3.org/2000/svg">
<circle cx="29" cy="29" r="28" fill="white" stroke="#E0E0E0"/>
<g clip-path="url(#clip0_229_7700)">
<path d="M48.5943 30.3927C49.1352 30.1222 49.1352 29.2432 48.5943 28.9727C44.4021 26.6738 40.1423 24.5777 35.5444 23.3606C34.8682 23.2253 34.1921 23.9691 34.5978 24.5777C35.5444 25.93 36.6939 27.0795 38.0462 28.0937C28.5799 27.8232 18.7756 26.5385 9.44458 28.7699C8.76842 28.9051 8.90365 30.0545 9.57993 29.9868C19.249 28.7699 28.8505 29.7165 38.5196 29.8516C37.5054 31.0011 36.4911 32.1506 35.4769 33.2324C35.0036 33.7057 35.274 34.7201 36.0854 34.6525C40.548 34.1114 44.7402 32.6239 48.5943 30.3927ZM40.548 29.6489C41.1565 29.2432 41.0213 28.0937 40.0747 28.0937C40.0071 28.0937 39.9394 28.0937 39.9394 28.0937C39.128 27.2823 38.3167 26.5385 37.5053 25.6595C40.6156 26.7414 43.5231 28.0937 46.4306 29.6488C43.7936 31.0011 41.0889 32.0153 38.1814 32.5563C38.8576 31.8125 39.5337 31.0011 40.2775 30.2572C40.548 30.1222 40.6156 29.8516 40.548 29.6489Z" fill="#222222"/>
</g>
<defs>
<clipPath id="clip0_229_7700">
<rect width="40" height="40" fill="white" transform="translate(49 9) rotate(90)"/>
</clipPath>
</defs>
</svg>
