<svg width="24" height="24" viewBox="0 0 24 24" fill="none" xmlns="http://www.w3.org/2000/svg">
<path d="M9.84263 2.82713L0.689023 18.6816C-0.269806 20.3424 0.928741 22.4183 2.8464 22.4183H21.1536C23.0712 22.4183 24.2698 20.3423 23.3109 18.6816L14.1574 2.82713C13.1986 1.16635 10.8015 1.16635 9.84263 2.82713Z" fill="#DA4A54"/>
<path d="M2.84618 20.5433C2.53666 20.5433 2.37902 20.3503 2.3126 20.2352C2.24618 20.1202 2.15782 19.8871 2.3126 19.619L11.4662 3.76461C11.6209 3.49657 11.8669 3.45654 11.9997 3.45654C12.1326 3.45654 12.3786 3.49657 12.5334 3.76465L21.6869 19.619C21.8417 19.8871 21.7533 20.1201 21.6869 20.2352C21.6205 20.3503 21.4629 20.5433 21.1533 20.5433H2.84618Z" fill="#F6E266"/>
<path d="M11.9991 15.237C11.3448 15.237 10.8145 14.7066 10.8145 14.0524V8.62779C10.8145 7.97351 11.3448 7.44312 11.9991 7.44312C12.6534 7.44312 13.1838 7.97351 13.1838 8.62779V14.0524C13.1838 14.7066 12.6534 15.237 11.9991 15.237Z" fill="#544F57"/>
<path d="M11.9991 18.8794C12.6534 18.8794 13.1838 18.349 13.1838 17.6947C13.1838 17.0404 12.6534 16.51 11.9991 16.51C11.3448 16.51 10.8145 17.0404 10.8145 17.6947C10.8145 18.349 11.3448 18.8794 11.9991 18.8794Z" fill="#544F57"/>
<path d="M21.1529 22.7691H2.84703C1.81944 22.7691 0.899144 22.2378 0.385348 21.3479C-0.128449 20.4579 -0.128449 19.3953 0.385348 18.5053L9.5383 2.65196C10.0521 1.76199 10.9724 1.23071 12 1.23071C13.0276 1.23071 13.9479 1.76204 14.4617 2.65196L23.6146 18.5054C24.1284 19.3953 24.1284 20.4579 23.6146 21.3479C23.1008 22.2378 22.1805 22.7691 21.1529 22.7691ZM10.1472 3.00348L0.994207 18.8569C0.607488 19.5267 0.607488 20.3265 0.994207 20.9964C1.38093 21.6661 2.07355 22.066 2.84699 22.066H21.1529C21.9263 22.066 22.619 21.6661 23.0057 20.9964C23.3924 20.3265 23.3924 19.5267 23.0057 18.8569L13.8528 3.00348C13.466 2.33368 12.7734 1.93379 12 1.93379C11.2265 1.93379 10.5339 2.33368 10.1472 3.00348Z" fill="black"/>
<path d="M21.1522 20.8945H2.84593C2.49161 20.8945 2.18636 20.7183 2.00837 20.4113C1.83062 20.1033 1.83057 19.7506 2.00804 19.443L2.63711 18.3535C2.73423 18.1854 2.94925 18.1277 3.11734 18.2249C3.28548 18.322 3.34309 18.537 3.24597 18.7051L2.61695 19.7944C2.59614 19.8305 2.54059 19.9269 2.617 20.0593C2.69359 20.1915 2.80426 20.1915 2.84593 20.1915H21.1522C21.1938 20.1915 21.3046 20.1915 21.3814 20.0588C21.4576 19.9269 21.402 19.8306 21.3811 19.7943L12.228 3.94098C12.2071 3.90474 12.1517 3.80879 11.9991 3.80879C11.8464 3.80879 11.791 3.90474 11.7702 3.94088L3.94909 17.4874C3.85201 17.6555 3.637 17.7131 3.4689 17.6161C3.30076 17.519 3.24315 17.304 3.34023 17.1359L11.1612 3.58942C11.3386 3.28206 11.644 3.10571 11.9991 3.10571C12.3542 3.10571 12.6596 3.28206 12.837 3.58951L21.9901 19.4429C22.1676 19.7506 22.1675 20.1033 21.9901 20.4107C21.8118 20.7184 21.5065 20.8945 21.1522 20.8945Z" fill="black"/>
<path d="M12.0008 15.588C11.1539 15.588 10.4648 14.899 10.4648 14.052V8.62802C10.4648 7.78085 11.1539 7.09155 12.0008 7.09155C12.4115 7.09155 12.7973 7.25154 13.0873 7.54207C13.3771 7.8319 13.5368 8.21768 13.5368 8.62797V9.21668C13.5368 9.41083 13.3794 9.56819 13.1853 9.56819C12.9912 9.56819 12.8338 9.41079 12.8338 9.21668V8.62797C12.8338 8.40541 12.7472 8.19621 12.5899 8.03894C12.4326 7.8813 12.2235 7.79458 12.0009 7.79458C11.5416 7.79458 11.168 8.16846 11.168 8.62797V14.052C11.168 14.5113 11.5416 14.8849 12.0009 14.8849C12.4602 14.8849 12.8338 14.5113 12.8338 14.052V10.6228C12.8338 10.4287 12.9912 10.2713 13.1853 10.2713C13.3794 10.2713 13.5368 10.4287 13.5368 10.6228V14.052C13.5368 14.899 12.8478 15.588 12.0008 15.588Z" fill="black"/>
<path d="M11.999 19.2305C11.152 19.2305 10.4629 18.5414 10.4629 17.6943C10.4629 16.8473 11.152 16.1582 11.999 16.1582C12.8461 16.1582 13.5352 16.8473 13.5352 17.6943C13.5352 18.5414 12.8461 19.2305 11.999 19.2305ZM11.999 16.8613C11.5397 16.8613 11.166 17.235 11.166 17.6943C11.166 18.1537 11.5397 18.5274 11.999 18.5274C12.4584 18.5274 12.8321 18.1537 12.8321 17.6943C12.8321 17.235 12.4584 16.8613 11.999 16.8613Z" fill="black"/>
</svg>
