<svg width="74" height="74" viewBox="0 0 74 74" fill="none" xmlns="http://www.w3.org/2000/svg">
<circle cx="36.8293" cy="37.1117" r="27.1847" transform="rotate(-20.7226 36.8293 37.1117)" stroke="#C4C4C4"/>
<g clip-path="url(#clip0_229_2871)">
<path fill-rule="evenodd" clip-rule="evenodd" d="M47.9431 34.923C46.0446 35.401 44.5488 35.2957 44.0264 36.2829C43.903 36.5157 43.8082 36.898 43.9983 37.3985C43.5215 37.5141 42.7085 37.4349 42.6231 37.4339C40.8733 37.2772 40.0014 36.2906 38.7108 35.1262C38.096 34.5697 36.8209 33.6281 36.057 33.3047C36.0511 33.3022 36.0449 33.3007 36.039 33.2983C34.6989 32.6493 34.1954 32.7941 32.8969 31.5589C31.8986 30.606 31.776 29.6069 30.8331 29.1695C29.6772 28.6271 28.7111 29.4358 28.4343 30.7424L28.4406 32.1542C28.6568 33.4833 29.242 34.3624 30.0356 35.2918C30.7984 35.8414 32.4175 37.0027 32.792 37.251C33.2601 37.5612 33.1331 37.7075 32.6541 37.6863C32.2709 37.6693 30.9049 37.8387 28.6756 38.8083C28.0657 39.0735 27.4201 39.194 26.7755 39.7086C25.0937 41.051 25.5011 43.1086 26.9801 44.0651C26.5968 44.6189 26.3527 45.4367 26.5434 46.0532C26.7612 46.7506 27.3095 47.2799 27.8786 47.5613C27.3964 48.6683 28.022 50.1759 29.6423 50.5253C29.6066 51.5509 30.6816 52.2947 31.6547 52.6335C36.9825 55.018 41.4339 48.94 46.6459 48.319C46.9239 49.0555 47.6717 49.4001 48.3486 49.2197C52.8869 47.9822 52.1531 48.1899 52.2786 48.1424C53.056 47.8483 53.5263 47.0511 53.411 46.1811C52.7278 41.0423 52.0061 39.2665 51.1085 36.8078C50.4598 35.0498 49.7985 34.5548 47.9431 34.923ZM30.0063 30.2251C29.7893 30.3528 29.5881 30.8136 29.5581 31.2535C29.5155 32.238 29.925 33.2534 30.5366 34.0287C31.3677 35.084 32.4653 36.1949 33.6217 36.9371L33.5951 36.98C34.0467 37.2536 33.9417 37.917 33.4486 38.0596C31.7341 38.5416 28.7271 39.6941 27.548 40.6094C27.0657 40.9825 26.8512 41.3754 26.8728 41.8464C26.8993 42.4547 27.4255 43.1092 28.0253 43.2363C29.1932 42.678 32.3537 41.8894 34.0408 40.9858C34.3229 40.8352 34.691 40.9405 34.8472 41.2304C35.0016 41.5202 34.8928 41.8814 34.6026 42.0368C32.3751 43.2273 28.7148 43.9647 28.0676 44.6036C27.8123 44.8535 27.6026 45.4477 27.6814 45.6998C27.8535 46.2531 28.4507 46.5826 28.7086 46.5961C28.716 46.5965 28.7219 46.6008 28.7292 46.6014C29.8657 45.812 31.4669 45.7025 33.1207 45.038C33.7854 44.7708 34.3548 44.5514 34.9253 44.2244C35.219 44.0519 35.5754 44.1591 35.738 44.4442C35.9015 44.7297 35.803 45.0936 35.5182 45.2569C34.1704 46.0297 32.2179 46.6292 30.7223 47.0232C30.2319 47.1515 29.6163 47.3496 29.1842 47.7435C29.0004 47.9109 28.7821 48.1949 29.0014 48.7329C29.1909 49.2009 29.9834 49.4947 30.2989 49.3753L30.3141 49.3695C30.3522 49.3551 30.3911 49.3565 30.4299 49.3502C31.5286 48.7659 33.6172 48.862 34.8464 47.5397C35.0704 47.2991 35.447 47.2843 35.6879 47.509C35.9285 47.733 35.9426 48.1099 35.7186 48.3505C33.6961 50.5258 29.8014 49.8418 31.0827 50.9649C31.581 51.4122 32.2949 51.6777 33.1 51.7171C33.6496 51.7413 34.8531 51.5082 36.317 51.0937C40.2108 49.9704 41.4175 48.2124 43.8032 47.454C44.9155 47.1057 45.4394 46.8004 46.4374 46.5999C46.3611 45.8694 46.2541 45.1522 46.1266 44.4388C45.5356 42.2601 44.6086 40.1107 42.8749 38.6317C40.7962 38.5182 40.0055 37.9855 38.5275 36.5833C35.1123 33.3473 34.1438 34.4899 32.0816 32.4303L32.0527 32.3998C30.9763 31.3627 30.8135 30.4732 30.3294 30.2487C30.1272 30.1545 30.0478 30.2011 30.0063 30.2251ZM51.8012 47.0471C52.0887 46.9657 52.2739 46.6685 52.23 46.3377C51.8393 43.3926 51.2856 40.4299 50.1437 37.6213C50.0727 37.4457 50.011 37.2866 49.9553 37.1428C49.5206 36.0214 49.45 35.8393 48.1753 36.0911C47.4827 36.2337 46.9381 36.339 46.5121 36.4212C45.1217 36.6898 44.9956 36.7142 45.1144 36.998C46.689 40.7547 47.4974 44.0924 47.7352 47.8218C47.7431 47.9391 47.8202 48.0069 47.853 48.0301C47.9567 48.1043 47.9756 48.0989 48.6241 47.9113C49.1476 47.7599 50.0814 47.4898 51.8012 47.0471Z" fill="#222222"/>
<path d="M49.8304 45.8515C49.7523 46.1579 49.8468 46.4778 50.0526 46.7017C50.5676 47.5499 52.0009 46.9047 51.7355 45.8536C51.489 44.8746 50.0754 44.8946 49.8304 45.8515Z" fill="#ED1C24"/>
<path d="M27.5483 27.2212C27.9254 27.0786 28.054 26.6108 27.8045 26.2944C27.0628 25.3572 26.2235 24.4908 25.31 23.7197C25.0591 23.5079 24.6858 23.538 24.4706 23.791C24.2588 24.042 24.2908 24.4179 24.542 24.6304C26.8923 26.6141 26.8178 27.4976 27.5483 27.2212Z" fill="#ED1C24"/>
<path d="M31.2602 26.7066C31.4662 26.6287 31.6203 26.4402 31.6429 26.2062L32.1646 20.7942C32.196 20.4673 31.9563 20.1757 31.6287 20.1446C31.3003 20.1114 31.0107 20.3519 30.9792 20.6805L30.4575 26.0925C30.4152 26.5338 30.8521 26.861 31.2602 26.7066Z" fill="#ED1C24"/>
<path d="M34.6144 29.3938C34.7617 29.338 34.5932 29.428 38.1231 26.8021C38.3869 26.6053 38.4407 26.2326 38.2439 25.9688C38.0464 25.7052 37.6741 25.6504 37.4106 25.8479L34.0474 28.3597C33.4971 28.7703 33.9721 29.6367 34.6144 29.3938Z" fill="#ED1C24"/>
<path d="M21.2301 31.0604C21.3716 31.1296 21.1906 31.0684 25.5212 31.8443C25.8452 31.9019 26.1537 31.686 26.2114 31.362C26.2683 31.0376 26.0534 30.7287 25.7291 30.6718L21.5958 29.9392C20.9199 29.8191 20.6134 30.7585 21.2301 31.0604Z" fill="#ED1C24"/>
</g>
<defs>
<clipPath id="clip0_229_2871">
<rect width="41.527" height="41.527" fill="white" transform="translate(10 24.6941) rotate(-20.7226)"/>
</clipPath>
</defs>
</svg>
