<svg width="32" height="24" viewBox="0 0 32 24" fill="none" xmlns="http://www.w3.org/2000/svg">
<g clip-path="url(#clip0_232_124)">
<path d="M7.44694 21.7667C15.576 22.3238 18.1592 10.8102 10.2863 8.20968C10.8218 7.1723 11.4223 6.16975 12.0841 5.20801C12.5301 4.56982 13.2294 3.91976 12.8012 3.08825C12.0163 1.56497 10.0691 2.52933 9.01965 3.08559C1.27436 6.66675 -4.47417 19.9094 7.44694 21.7667ZM8.47689 4.57117C9.23999 4.23411 11.0216 2.99474 11.1436 3.9045C11.2655 4.81426 8.20782 8.71634 9.14355 9.23783C14.5486 10.78 15.0152 16.3848 10.2863 19.2378C6.09483 21.7667 1.14355 17.2378 2.47689 13.2378C3.36578 10.5712 5.51868 6.55248 8.47689 4.57117Z" fill="white"/>
<path d="M23.2565 21.7667C31.3856 22.3238 33.9688 10.8102 26.0959 8.20968C26.6314 7.1723 27.2318 6.16975 27.8936 5.20801C28.3397 4.56982 29.039 3.91976 28.6107 3.08825C27.8259 1.56497 25.8786 2.52933 24.8292 3.08559C17.0839 6.66675 11.3354 19.9094 23.2565 21.7667ZM24.2865 4.57117C25.0496 4.23411 26.8312 2.99474 26.9531 3.9045C27.0751 4.81426 24.0174 8.71634 24.9531 9.23783C30.3581 10.78 30.8247 16.3848 26.0959 19.2378C21.9044 21.7667 16.9531 17.2378 18.2865 13.2378C19.1753 10.5712 21.3283 6.55248 24.2865 4.57117Z" fill="white"/>
</g>
<defs>
<clipPath id="clip0_232_124">
<rect width="32" height="24" fill="white"/>
</clipPath>
</defs>
</svg>
