<svg width="48" height="48" viewBox="0 0 48 48" fill="none" xmlns="http://www.w3.org/2000/svg">
<path d="M24 0C10.7452 0 0 10.7452 0 24C0 37.2548 10.7452 48 24 48C37.2548 48 48 37.2548 48 24C48 10.7452 37.2548 0 24 0Z" fill="#ED1C24"/>
<path d="M21.88 25.2478C21.808 25.2478 20.224 25.2478 19.504 25.2478C19.12 25.2478 19 25.1038 19 24.7438C19 23.7838 19 22.7998 19 21.8398C19 21.4558 19.144 21.3358 19.504 21.3358H21.88C21.88 21.2638 21.88 19.8718 21.88 19.2238C21.88 18.2638 22.048 17.3518 22.528 16.5118C23.032 15.6478 23.752 15.0718 24.664 14.7358C25.264 14.5198 25.864 14.4238 26.512 14.4238H28.864C29.2 14.4238 29.344 14.5678 29.344 14.9038V17.6398C29.344 17.9758 29.2 18.1198 28.864 18.1198C28.216 18.1198 27.568 18.1198 26.92 18.1438C26.272 18.1438 25.936 18.4558 25.936 19.1278C25.912 19.8478 25.936 20.5438 25.936 21.2878H28.72C29.104 21.2878 29.248 21.4318 29.248 21.8158V24.7198C29.248 25.1038 29.128 25.2238 28.72 25.2238C27.856 25.2238 26.008 25.2238 25.936 25.2238V33.0478C25.936 33.4558 25.816 33.5998 25.384 33.5998C24.376 33.5998 23.392 33.5998 22.384 33.5998C22.024 33.5998 21.88 33.4558 21.88 33.0958C21.88 30.5758 21.88 25.3198 21.88 25.2478Z" fill="white"/>
</svg>
