<svg width="48" height="48" viewBox="0 0 48 48" fill="none" xmlns="http://www.w3.org/2000/svg">
<path d="M24 0C10.7452 0 0 10.7452 0 24C0 37.2548 10.7452 48 24 48C37.2548 48 48 37.2548 48 24C48 10.7452 37.2548 0 24 0Z" fill="#ED1C24"/>
<g clip-path="url(#clip0_229_2462)">
<path d="M24.2362 35.9999C24.1567 35.9999 24.0773 35.9999 23.9973 35.9996C22.116 36.0041 20.3778 35.9564 18.6874 35.8535C17.1376 35.7592 15.7229 35.2236 14.5961 34.3047C13.5088 33.4181 12.7663 32.2194 12.3893 30.7421C12.0612 29.4559 12.0438 28.1934 12.0271 26.9723C12.015 26.0961 12.0026 25.0579 12 24.0021C12.0026 22.9419 12.015 21.9037 12.0271 21.0276C12.0438 19.8066 12.0612 18.5441 12.3893 17.2578C12.7663 15.7805 13.5088 14.5817 14.5961 13.6951C15.7229 12.7763 17.1376 12.2407 18.6876 12.1464C20.378 12.0437 22.1166 11.9957 24.0018 12.0003C25.8836 11.9963 27.6213 12.0437 29.3117 12.1464C30.8615 12.2407 32.2762 12.7763 33.403 13.6951C34.4905 14.5817 35.2328 15.7805 35.6098 17.2578C35.9379 18.5439 35.9553 19.8066 35.972 21.0276C35.9841 21.9037 35.9967 22.9419 35.9991 23.9977V24.0021C35.9967 25.0579 35.9841 26.0961 35.972 26.9723C35.9553 28.1932 35.9381 29.4557 35.6098 30.7421C35.2328 32.2194 34.4905 33.4181 33.403 34.3047C32.2762 35.2236 30.8615 35.7592 29.3117 35.8535C27.6929 35.952 26.0299 35.9999 24.2362 35.9999ZM23.9973 34.1246C25.8479 34.129 27.5471 34.0823 29.1978 33.9819C30.3697 33.9107 31.3857 33.5304 32.2181 32.8516C32.9875 32.2241 33.5175 31.3584 33.793 30.2784C34.0662 29.2078 34.082 28.0583 34.0972 26.9467C34.1091 26.0764 34.1215 25.0455 34.1241 23.9999C34.1215 22.9542 34.1091 21.9235 34.0972 21.0532C34.082 19.9416 34.0662 18.792 33.793 17.7212C33.5175 16.6413 32.9875 15.7756 32.2181 15.1481C31.3857 14.4695 30.3697 14.0892 29.1978 14.0179C27.5471 13.9174 25.8479 13.8711 24.0016 13.8751C22.1514 13.8707 20.452 13.9174 18.8013 14.0179C17.6294 14.0892 16.6133 14.4695 15.7809 15.1481C15.0115 15.7756 14.4816 16.6413 14.2061 17.7212C13.9329 18.792 13.9171 19.9414 13.9019 21.0532C13.89 21.9242 13.8776 22.9557 13.875 24.0021C13.8776 25.044 13.89 26.0756 13.9019 26.9467C13.9171 28.0583 13.9329 29.2078 14.2061 30.2784C14.4816 31.3584 15.0115 32.2241 15.7809 32.8516C16.6133 33.5302 17.6294 33.9105 18.8013 33.9817C20.452 34.0823 22.1517 34.1291 23.9973 34.1246ZM23.9526 29.8593C20.7219 29.8593 18.0932 27.2308 18.0932 23.9999C18.0932 20.769 20.7219 18.1406 23.9526 18.1406C27.1835 18.1406 29.812 20.769 29.812 23.9999C29.812 27.2308 27.1835 29.8593 23.9526 29.8593ZM23.9526 20.0156C21.7557 20.0156 19.9682 21.803 19.9682 23.9999C19.9682 26.1968 21.7557 27.9843 23.9526 27.9843C26.1497 27.9843 27.937 26.1968 27.937 23.9999C27.937 21.803 26.1497 20.0156 23.9526 20.0156ZM30.4682 16.2656C29.6917 16.2656 29.062 16.8951 29.062 17.6718C29.062 18.4485 29.6917 19.0781 30.4682 19.0781C31.2449 19.0781 31.8745 18.4485 31.8745 17.6718C31.8745 16.8951 31.2449 16.2656 30.4682 16.2656Z" fill="white"/>
</g>
<defs>
<clipPath id="clip0_229_2462">
<rect width="24" height="24" fill="white" transform="translate(12 12)"/>
</clipPath>
</defs>
</svg>
