<svg width="48" height="48" viewBox="0 0 48 48" fill="none" xmlns="http://www.w3.org/2000/svg">
<path d="M24 0C10.7452 0 0 10.7452 0 24C0 37.2548 10.7452 48 24 48C37.2548 48 48 37.2548 48 24C48 10.7452 37.2548 0 24 0Z" fill="#ED1C24"/>
<path d="M35.0364 18.3762C34.7771 17.4123 34.0171 16.6524 33.0533 16.3929C31.2926 15.9111 24.2497 15.9111 24.2497 15.9111C24.2497 15.9111 17.2071 15.9111 15.4464 16.3746C14.5011 16.6339 13.7226 17.4124 13.4633 18.3762C13 20.1367 13 23.7879 13 23.7879C13 23.7879 13 27.4575 13.4633 29.1996C13.7229 30.1634 14.4826 30.9233 15.4465 31.1828C17.2256 31.6647 24.25 31.6647 24.25 31.6647C24.25 31.6647 31.2926 31.6647 33.0533 31.2012C34.0173 30.9418 34.7771 30.182 35.0366 29.2182C35.4999 27.4575 35.4999 23.8065 35.4999 23.8065C35.4999 23.8065 35.5184 20.1367 35.0364 18.3762ZM22.0074 27.161V20.4148L27.8639 23.7879L22.0074 27.161Z" fill="white"/>
</svg>
