<svg width="136" height="268" viewBox="0 0 136 268" fill="none" xmlns="http://www.w3.org/2000/svg">
<circle cx="12" cy="4" r="4" fill="#E0E0E0"/>
<circle cx="12" cy="24" r="4" fill="#E0E0E0"/>
<circle cx="12" cy="44" r="4" fill="#E0E0E0"/>
<circle cx="12" cy="64" r="4" fill="#E0E0E0"/>
<circle cx="12" cy="84" r="4" fill="#E0E0E0"/>
<circle cx="12" cy="104" r="4" fill="#E0E0E0"/>
<circle cx="12" cy="124" r="4" fill="#E0E0E0"/>
<circle cx="12" cy="144" r="4" fill="#E0E0E0"/>
<circle cx="12" cy="164" r="4" fill="#E0E0E0"/>
<circle cx="12" cy="184" r="4" fill="#E0E0E0"/>
<circle cx="12" cy="204" r="4" fill="#E0E0E0"/>
<circle cx="12" cy="224" r="4" fill="#E0E0E0"/>
<circle cx="12" cy="244" r="4" fill="#E0E0E0"/>
<circle cx="12" cy="264" r="4" fill="#E0E0E0"/>
<circle cx="32" cy="4" r="4" fill="#E0E0E0"/>
<circle cx="32" cy="24" r="4" fill="#E0E0E0"/>
<circle cx="32" cy="44" r="4" fill="#E0E0E0"/>
<circle cx="32" cy="64" r="4" fill="#E0E0E0"/>
<circle cx="32" cy="84" r="4" fill="#E0E0E0"/>
<circle cx="32" cy="104" r="4" fill="#E0E0E0"/>
<circle cx="32" cy="124" r="4" fill="#E0E0E0"/>
<circle cx="72" cy="4" r="4" fill="#E0E0E0"/>
<circle cx="72" cy="24" r="4" fill="#E0E0E0"/>
<circle cx="72" cy="44" r="4" fill="#E0E0E0"/>
<circle cx="72" cy="64" r="4" fill="#E0E0E0"/>
<circle cx="72" cy="84" r="4" fill="#E0E0E0"/>
<circle cx="72" cy="104" r="4" fill="#E0E0E0"/>
<circle cx="72" cy="124" r="4" fill="#E0E0E0"/>
<circle cx="112" cy="4" r="4" fill="#E0E0E0"/>
<circle cx="112" cy="24" r="4" fill="#E0E0E0"/>
<circle cx="112" cy="44" r="4" fill="#E0E0E0"/>
<circle cx="112" cy="64" r="4" fill="#E0E0E0"/>
<circle cx="112" cy="84" r="4" fill="#E0E0E0"/>
<circle cx="112" cy="104" r="4" fill="#E0E0E0"/>
<circle cx="112" cy="124" r="4" fill="#E0E0E0"/>
<circle cx="52" cy="4" r="4" fill="#E0E0E0"/>
<circle cx="52" cy="24" r="4" fill="#E0E0E0"/>
<circle cx="52" cy="44" r="4" fill="#E0E0E0"/>
<circle cx="52" cy="64" r="4" fill="#E0E0E0"/>
<circle cx="52" cy="84" r="4" fill="#E0E0E0"/>
<circle cx="52" cy="104" r="4" fill="#E0E0E0"/>
<circle cx="52" cy="124" r="4" fill="#E0E0E0"/>
<circle cx="92" cy="4" r="4" fill="#E0E0E0"/>
<circle cx="92" cy="24" r="4" fill="#E0E0E0"/>
<circle cx="92" cy="44" r="4" fill="#E0E0E0"/>
<circle cx="92" cy="64" r="4" fill="#E0E0E0"/>
<circle cx="92" cy="84" r="4" fill="#E0E0E0"/>
<circle cx="92" cy="104" r="4" fill="#E0E0E0"/>
<circle cx="92" cy="124" r="4" fill="#E0E0E0"/>
<circle cx="132" cy="4" r="4" fill="#E0E0E0"/>
<circle cx="132" cy="24" r="4" fill="#E0E0E0"/>
<circle cx="132" cy="44" r="4" fill="#E0E0E0"/>
<circle cx="132" cy="64" r="4" fill="#E0E0E0"/>
<circle cx="132" cy="84" r="4" fill="#E0E0E0"/>
<circle cx="132" cy="104" r="4" fill="#E0E0E0"/>
<circle cx="132" cy="124" r="4" fill="#E0E0E0"/>
<circle cx="32" cy="144" r="4" fill="#E0E0E0"/>
<circle cx="32" cy="164" r="4" fill="#E0E0E0"/>
<circle cx="32" cy="184" r="4" fill="#E0E0E0"/>
<circle cx="32" cy="204" r="4" fill="#E0E0E0"/>
<circle cx="32" cy="224" r="4" fill="#E0E0E0"/>
<circle cx="32" cy="244" r="4" fill="#E0E0E0"/>
<circle cx="32" cy="264" r="4" fill="#E0E0E0"/>
<circle cx="72" cy="144" r="4" fill="#E0E0E0"/>
<circle cx="72" cy="164" r="4" fill="#E0E0E0"/>
<circle cx="72" cy="184" r="4" fill="#E0E0E0"/>
<circle cx="72" cy="204" r="4" fill="#E0E0E0"/>
<circle cx="72" cy="224" r="4" fill="#E0E0E0"/>
<circle cx="72" cy="244" r="4" fill="#E0E0E0"/>
<circle cx="72" cy="264" r="4" fill="#E0E0E0"/>
<circle cx="112" cy="144" r="4" fill="#E0E0E0"/>
<circle cx="112" cy="164" r="4" fill="#E0E0E0"/>
<circle cx="112" cy="184" r="4" fill="#E0E0E0"/>
<circle cx="112" cy="204" r="4" fill="#E0E0E0"/>
<circle cx="112" cy="224" r="4" fill="#E0E0E0"/>
<circle cx="112" cy="244" r="4" fill="#E0E0E0"/>
<circle cx="112" cy="264" r="4" fill="#E0E0E0"/>
<circle cx="52" cy="144" r="4" fill="#E0E0E0"/>
<circle cx="52" cy="164" r="4" fill="#E0E0E0"/>
<circle cx="52" cy="184" r="4" fill="#E0E0E0"/>
<circle cx="52" cy="204" r="4" fill="#E0E0E0"/>
<circle cx="52" cy="224" r="4" fill="#E0E0E0"/>
<circle cx="52" cy="244" r="4" fill="#E0E0E0"/>
<circle cx="52" cy="264" r="4" fill="#E0E0E0"/>
<circle cx="92" cy="144" r="4" fill="#E0E0E0"/>
<circle cx="92" cy="164" r="4" fill="#E0E0E0"/>
<circle cx="92" cy="184" r="4" fill="#E0E0E0"/>
<circle cx="92" cy="204" r="4" fill="#E0E0E0"/>
<circle cx="92" cy="224" r="4" fill="#E0E0E0"/>
<circle cx="92" cy="244" r="4" fill="#E0E0E0"/>
<circle cx="92" cy="264" r="4" fill="#E0E0E0"/>
<circle cx="132" cy="144" r="4" fill="#E0E0E0"/>
<circle cx="132" cy="164" r="4" fill="#E0E0E0"/>
<circle cx="132" cy="184" r="4" fill="#E0E0E0"/>
<circle cx="132" cy="204" r="4" fill="#E0E0E0"/>
<circle cx="132" cy="224" r="4" fill="#E0E0E0"/>
<circle cx="132" cy="244" r="4" fill="#E0E0E0"/>
<circle cx="132" cy="264" r="4" fill="#E0E0E0"/>
</svg>
