<svg width="56" height="56" viewBox="0 0 56 56" fill="none" xmlns="http://www.w3.org/2000/svg">
<g clip-path="url(#clip0_274_1933)">
<path d="M27.5385 47.3478L44.3478 47.0613C45.0163 47.0613 45.6849 47.0613 46.4489 46.9658C47.213 46.8703 47.8815 46.6793 48.5501 46.2973C49.8872 45.6287 50.9378 44.3871 51.4153 43.05C51.7018 42.3815 51.7018 41.6174 51.7018 40.9489L51.6063 38.8477L51.5586 37.1763L51.5108 38.8477C51.4153 40.2803 51.6063 41.7129 51.0333 42.9545C50.2692 44.7692 48.5501 46.1063 46.4489 46.2018H44.3478L27.5385 45.9152H23.3362L22.3672 47.4066L27.5385 47.3478Z" fill="#222222"/>
<path d="M51.5108 35.505H51.6063H52.3704H52.7524H53.3254C54.4715 35.3139 55.4266 34.4544 55.8086 33.3083C55.9996 33.0218 55.9996 32.5442 55.9996 32.3532V29.106V25.8588C55.9996 25.6677 55.9996 25.1902 55.9041 24.8082C55.6176 23.6621 54.6625 22.8025 53.4209 22.6115H52.8479H51.6063C49.6007 22.6115 49.5052 22.6115 46.831 22.707L43.5837 22.8025C42.9152 22.8025 42.4376 22.8025 41.8646 22.898C41.2915 22.9935 40.7185 23.1846 40.1455 23.4711C38.0443 24.5217 36.7072 26.8138 36.9937 29.0105C37.1847 26.8138 38.6173 24.9992 40.5275 24.3306C41.005 24.1396 41.4826 24.0441 41.9601 24.0441H43.4882C46.4489 24.1396 48.2636 24.2351 49.9827 24.2351C50.1737 24.2351 52.4659 24.3306 52.3704 24.3306H52.7524H53.0389C53.5164 24.4262 53.8985 24.8082 53.994 25.1902V25.7632V29.0105V32.2577V32.8308C53.8985 33.3083 53.5164 33.5948 53.0389 33.6903H52.7524H51.5108C49.5052 33.6903 48.9321 33.6903 46.6399 33.7858L43.5837 34.0724H42.8197H42.0556C41.5781 34.0724 41.1005 33.8813 40.623 33.7858C38.7129 33.1173 37.2802 31.2071 37.0892 29.106C36.8027 31.3027 38.1398 33.5948 40.241 34.6454C40.814 34.9319 41.2915 35.1229 41.9601 35.2184C42.2466 35.314 42.5331 35.314 42.8197 35.314H43.5837C46.831 35.4095 48.1681 35.505 50.0782 35.505H51.5108Z" fill="#222222"/>
<path fill-rule="evenodd" clip-rule="evenodd" d="M51.6063 22.6115L51.7018 19.2688L51.7973 17.1676C51.7973 16.4991 51.7018 15.735 51.5108 15.0665C51.0333 13.6339 49.9827 12.4878 48.6456 11.8192C47.977 11.4372 47.213 11.2462 46.5444 11.1507C45.9714 11.1507 45.4939 11.0552 45.0163 11.0552C44.6343 9.81357 44.1568 8.66749 43.6792 7.4259L42.8197 5.42025L42.4376 4.46518C42.3421 4.17866 42.0556 3.70112 41.7691 3.31909C41.1005 2.65055 40.241 2.17301 39.1904 2.26852C38.9039 2.26852 38.7129 2.26852 38.5218 2.36402C38.2353 2.45953 38.1398 2.45953 37.9488 2.55504L36.8982 2.84156L32.8869 4.36967C30.2127 5.42025 27.5385 6.47083 24.8643 7.71242C22.7632 8.66749 20.662 9.62256 18.6564 10.6731L14.9316 10.5776C13.4035 10.4821 11.6843 11.0552 10.4428 12.1057C9.20116 13.1563 8.43711 14.6844 8.24609 16.3081V16.8811V18.5047L8.24609 29.4377L10.1562 28.4438V17.5496V16.9766V16.4991C10.2517 15.353 10.8248 14.2069 11.6843 13.4428C12.5439 12.6788 13.69 12.2013 14.9316 12.2968H19.1339L27.5385 12.2012L44.3478 11.9147C45.0163 11.9147 45.7804 11.8192 46.4489 11.9147C48.5501 12.0102 50.2692 13.3473 51.0333 15.162C51.6063 16.4036 51.4153 17.8362 51.5108 19.2688L51.6063 22.6115ZM33.46 6.18431C30.7858 7.13938 28.1116 8.18995 25.3419 9.04952L20.1845 10.7686L27.5385 10.8642C33.7465 10.9597 43.5837 11.1507 44.8253 11.1507C44.1568 10.1001 43.4882 8.95401 42.8197 7.90343L41.6736 5.99329C41.2915 5.42025 41.005 4.65619 40.623 4.36967C40.241 3.98764 39.7634 3.79663 39.2859 3.89214C39.1904 3.89214 39.0949 3.89214 38.8084 3.98764L38.4263 4.17866L37.4713 4.56069L33.46 6.18431Z" fill="#222222"/>
<path d="M43.3916 32.2576C44.2511 32.1621 45.0152 31.7801 45.3972 31.1115C45.8747 30.5385 45.9703 29.6789 45.7792 29.1059C45.3972 30.3475 44.2511 30.9205 43.3916 30.7295C42.532 30.634 41.959 29.7744 41.959 29.1059C41.959 28.3418 42.532 27.5778 43.3916 27.4822C44.2511 27.2912 45.3972 27.8643 45.7792 29.1059C45.9703 28.4373 45.8747 27.6733 45.3972 27.1002C44.9197 26.5272 44.1556 26.0496 43.3916 25.9541C42.6275 25.8586 41.6724 26.1451 41.0994 26.7182C40.4309 27.2912 40.0488 28.1508 40.0488 29.0104C40.0488 29.8699 40.4309 30.7295 41.0994 31.398C41.6724 31.9711 42.532 32.3531 43.3916 32.2576Z" fill="#222222"/>
<path fill-rule="evenodd" clip-rule="evenodd" d="M14.6714 47.3158C17.6514 45.3094 21.3368 43.4483 21.5462 39.3707C21.6831 36.7044 19.7995 34.0104 16.8422 34.2075C16.1797 34.1866 15.5007 34.3224 14.8818 34.6121C14.6365 34.7269 14.4012 34.9265 14.1738 35.1195L14.1723 35.1208C13.4263 35.7533 13.4363 35.6824 12.9697 35.2349C11.9415 34.2465 10.1925 33.7802 8.65213 34.1802C6.73987 34.6752 5.22788 36.4624 5.05724 38.4302C4.90744 40.156 5.81801 41.6934 6.83706 42.9013L7.67764 43.8158C9.25365 45.4059 10.7758 46.5777 12.5641 47.9805C12.6415 48.0408 12.8642 48.1377 12.8642 48.1377C12.8642 48.1377 13.8189 47.9085 14.044 47.7495L14.6714 47.3158ZM8.87447 35.1782C7.26039 35.5954 6.32473 36.8805 6.18053 38.5414C5.91703 41.5774 9.28365 44.1389 11.729 45.9883C12.1014 46.2698 12.4799 46.5563 12.8642 46.8545C18.1735 42.9256 18.4439 42.7534 19.1666 41.8208C20.0839 40.6359 20.3684 39.0737 19.9623 37.716C19.2029 35.1761 16.5446 34.443 14.659 36.0448C13.5657 36.9735 13.1868 36.8376 12.4488 36.1275C11.5936 35.3093 10.1549 34.8488 8.87447 35.1782Z" fill="#222222"/>
<path d="M17.2405 37.0045C17.7139 37.1964 18.0089 37.7776 17.8843 38.2731C17.7634 38.7554 18.4919 38.9426 18.6139 38.4562C18.9722 37.0296 17.3451 35.7464 17.0336 36.5143C16.9555 36.7068 17.048 36.9261 17.2405 37.0045Z" fill="#ED1C24"/>
<path d="M17.1865 40.2229C17.0913 40.4075 17.1635 40.6347 17.3481 40.7297L17.482 40.7978L17.7993 40.1157L17.6933 40.0619C17.5099 39.9659 17.2822 40.0388 17.1865 40.2229Z" fill="#ED1C24"/>
<path fill-rule="evenodd" clip-rule="evenodd" d="M0.00837225 40.7527C-0.0943078 43.8331 0.727131 46.7082 3.60217 49.7886C4.93701 51.2261 6.27185 52.1502 8.12009 52.869C12.1246 54.3065 16.7452 53.9984 20.339 51.7395C23.1114 49.9939 25.3703 46.9135 25.9864 43.6278C28.7588 35.0026 21.6739 25.8641 11.7139 27.199L9.14689 27.815C4.73165 29.2525 1.44589 32.949 0.419094 37.775L0.00837225 40.7527ZM13.7675 51.2261C20.031 51.2261 25.0623 46.1948 25.0623 39.9313C25.0623 33.6678 20.031 28.6365 13.7675 28.6365C5.03969 28.6365 0.111052 36.6455 3.39681 44.3465C5.14237 48.4537 9.24957 51.2261 13.7675 51.2261Z" fill="#ED1C24"/>
</g>
<defs>
<clipPath id="clip0_274_1933">
<rect width="56" height="56" fill="white"/>
</clipPath>
</defs>
</svg>
