<svg width="56" height="56" viewBox="0 0 56 56" fill="none" xmlns="http://www.w3.org/2000/svg">
<g clip-path="url(#clip0_274_1937)">
<path d="M15.1803 16.0862C16.8709 17.6743 19.1762 18.5452 21.379 18.3915C20.252 18.3402 19.3811 17.8627 18.3565 17.4016C17.3319 16.9405 16.461 16.2746 15.6926 15.5061C12.5676 12.1762 12.8591 7.36992 15.9329 4.34739C19.1091 1.22241 23.8742 1.27364 26.9479 4.34739C28.4848 5.83304 29.4732 7.73578 29.5245 9.83618C29.5757 11.9878 28.5773 13.9693 27.0916 15.5061C26.3744 16.3258 25.6311 17.1107 24.6065 17.5718C23.5819 18.0329 22.5061 18.3402 21.379 18.3915L21.9425 18.4427C22.6598 18.4427 23.4282 18.3402 24.1454 18.0841C25.3237 17.7255 26.6556 17.0083 27.629 16.0862C28.3462 15.4202 28.9609 14.6005 29.422 13.7296C29.7294 13.0636 29.8831 12.244 30.088 11.5267C30.2417 10.9632 30.2929 10.3485 30.2929 9.78495C30.3441 7.42841 29.3708 5.07186 27.7314 3.3813C24.2479 -0.204751 18.4077 -0.153522 14.9754 3.3813C11.4918 7.0698 11.6967 12.7562 15.1803 16.0862Z" fill="#222222"/>
<path d="M30.0534 11.5267C30.1739 11.5536 29.9341 11.6165 30.0534 11.6504C32.4046 12.3191 34.8995 14.3526 35.5695 16.6497C36.2535 18.9295 35.6388 21.4528 34.0866 23.1721H35.3339C36.7709 21.1699 37.1157 18.622 36.2867 16.3423C35.3913 13.7057 32.7683 11.8201 30.0534 11.5267Z" fill="#222222"/>
<path d="M21.8913 19.3648C21.9425 19.7234 21.9425 20.082 21.9938 20.4406C22.171 21.4535 22.5986 22.4414 23.2333 23.3114L23.8431 23.1721C22.7304 21.9526 22.0167 20.3374 21.947 18.5959H21.9134C21.8913 18.8524 21.8913 19.094 21.8913 19.3648Z" fill="#222222"/>
<path d="M22.9939 9.83627C22.6573 9.70163 22.1861 9.56698 21.7148 9.43234V6.87417C22.2534 6.87417 22.792 7.00881 23.3305 7.14345C23.3978 7.14345 23.4652 7.21077 23.5325 7.21077C23.6671 7.21077 23.7344 7.14345 23.8691 7.07613C23.9364 7.00881 24.0037 6.87417 24.0037 6.73953C24.0037 6.53757 23.9364 6.40292 23.7344 6.3356C23.1286 6.13364 22.5227 5.999 21.8495 5.999V5.19116C21.8495 5.12384 21.8495 5.05652 21.7822 4.9892C21.7148 4.92188 21.6475 4.92188 21.5802 4.92188C21.5129 4.92188 21.3109 4.9892 21.2436 4.9892C21.1763 5.05652 21.1763 5.12384 21.1763 5.19116V5.999C20.6377 5.999 20.1665 6.13364 19.8299 6.3356C19.4259 6.53757 19.1567 6.80685 18.9547 7.14345C18.7527 7.48005 18.6854 7.81665 18.6854 8.22058C18.6854 8.69182 18.8201 9.02842 19.022 9.2977C19.224 9.56698 19.5606 9.76894 19.8972 9.90359C20.2338 10.0382 20.6377 10.1729 21.1763 10.3075V12.731C20.4358 12.731 19.8299 12.5964 19.224 12.3271C19.1567 12.3271 19.0893 12.2598 19.022 12.2598C18.8874 12.2598 18.8201 12.3271 18.6854 12.3944C18.6181 12.4618 18.5508 12.5964 18.5508 12.731C18.5508 12.7984 18.5508 12.933 18.6181 13.0003C18.6854 13.0676 18.7527 13.135 18.8201 13.135C19.4933 13.4716 20.3011 13.6062 21.109 13.6735V14.4814C21.109 14.5487 21.109 14.616 21.1763 14.6833C21.2436 14.7507 21.2436 14.7507 21.3782 14.7507C21.5129 14.7507 21.5129 14.7507 21.5802 14.6833C21.6475 14.616 21.6475 14.616 21.6475 14.4814V13.6735C22.1861 13.6735 22.59 13.5389 22.9939 13.3369C23.3978 13.135 23.6671 12.933 23.8691 12.5964C24.0711 12.2598 24.2057 11.9232 24.2057 11.5866C24.2057 11.1154 24.0711 10.7114 23.8691 10.4421C23.5998 10.1729 23.3305 9.97091 22.9939 9.83627ZM21.1763 9.2977C20.6377 9.16306 20.3011 9.02842 20.0318 8.82646C19.7625 8.6245 19.6279 8.42254 19.6279 8.08594C19.6279 7.74933 19.7625 7.48005 20.0318 7.27809C20.3011 7.07613 20.705 6.94149 21.1763 6.87417V9.2977ZM21.7148 12.7984V10.5095C22.2534 10.6441 22.59 10.7788 22.8593 10.9807C23.1286 11.1154 23.2632 11.3846 23.2632 11.6539C23.2632 12.2598 22.7246 12.731 21.7148 12.7984Z" fill="#ED1C24"/>
<path d="M27.5906 20.8C27.5344 20.8 27.4783 20.7438 27.4783 20.7438C27.3659 20.7438 27.3097 20.8 27.2535 20.8562C27.1973 20.9124 27.1973 20.9686 27.1973 21.081C27.1973 21.1372 27.1973 21.1934 27.2535 21.2496C27.3097 21.3058 27.3659 21.362 27.4221 21.362C27.9278 21.5868 28.4336 21.6992 29.0518 21.6992V22.2611C29.0518 22.3173 29.0518 22.3735 29.108 22.3735C29.1642 22.4297 29.1642 22.4297 29.2204 22.4297C29.2765 22.4297 29.3327 22.4297 29.3327 22.3735C29.3889 22.3735 29.3889 22.3173 29.3889 22.2611V21.6992C29.7261 21.6992 30.0633 21.5868 30.3443 21.4744C30.6253 21.362 30.7939 21.1934 30.9625 20.9686C31.131 20.7438 31.1872 20.519 31.1872 20.2381C31.1872 19.9009 31.131 19.6199 30.9625 19.4513C30.7939 19.2827 30.5691 19.1141 30.3443 19.0017C30.1195 18.8893 29.7823 18.8331 29.4451 18.7208V16.9225C29.8385 16.9225 30.2319 16.9787 30.5691 17.1472H30.6815C30.7939 17.1472 30.8501 17.091 30.9063 17.0348C30.9625 16.9787 30.9625 16.9225 30.9625 16.8101C30.9625 16.6415 30.9063 16.5853 30.7377 16.5291C30.3443 16.3605 29.8947 16.3043 29.3889 16.3043V15.7423C29.3889 15.6861 29.3889 15.6299 29.3327 15.6299C29.2765 15.6299 29.2765 15.5737 29.2204 15.5737C29.1642 15.5737 29.108 15.5737 29.108 15.6299C29.108 15.6861 29.0518 15.6861 29.0518 15.7423V16.3043C28.6584 16.3043 28.3774 16.4167 28.0964 16.5291C27.5906 16.8101 27.3097 17.2596 27.3097 17.8216C27.3097 18.1026 27.3659 18.3836 27.5344 18.5522C27.703 18.7208 27.9278 18.8893 28.1526 19.0017C28.3774 19.1141 28.7146 19.2265 29.0518 19.2827V21.0248C28.4898 21.081 28.0402 20.9686 27.5906 20.8ZM29.3327 19.4513C29.6699 19.5637 29.9509 19.6199 30.1195 19.7323C30.2881 19.8447 30.4005 20.0133 30.4005 20.1819C30.4005 20.6876 30.0633 21.0248 29.3327 21.0248V19.4513ZM28.1526 18.3274C27.984 18.215 27.8716 18.0464 27.8716 17.8216C27.8716 17.5968 27.984 17.372 28.1526 17.2596C28.3212 17.091 28.6022 17.0348 28.9394 16.9787V18.6646C28.6022 18.5522 28.3212 18.496 28.1526 18.3274Z" fill="#ED1C24"/>
<path d="M21.8324 20.9526C20.2018 19.322 18.1903 19.8683 16.8772 21.1603C16.2972 21.7306 16.1411 22.4183 16.0686 23.2069L15.4141 22.8347C15.492 22.0334 15.8281 21.244 16.4351 20.6013C17.8542 19.1399 20.6162 19.005 22.0564 20.4876C22.7342 21.1866 23.1159 22.4436 23.0947 23.4178L22.777 23.439C22.7559 22.5706 22.4678 21.5668 21.8324 20.9526Z" fill="#222222"/>
<path fill-rule="evenodd" clip-rule="evenodd" d="M20.0782 23.439C19.939 23.3834 19.7442 23.3277 19.5493 23.272V22.2144C19.772 22.2144 19.9947 22.27 20.2173 22.3257C20.2452 22.3257 20.273 22.3535 20.3008 22.3535C20.3565 22.3535 20.3843 22.3257 20.44 22.2979C20.4678 22.27 20.4957 22.2144 20.4957 22.1587C20.4957 22.0752 20.4678 22.0195 20.3843 21.9917C20.1338 21.9082 19.8833 21.8526 19.605 21.8526V21.5186C19.605 21.4907 19.605 21.4629 19.5772 21.4351C19.5493 21.4072 19.5215 21.4072 19.4937 21.4072C19.4658 21.4072 19.3823 21.4351 19.3545 21.4351C19.3267 21.4629 19.3267 21.4907 19.3267 21.5186V21.8526C19.104 21.8526 18.9092 21.9082 18.77 21.9917C18.603 22.0752 18.4917 22.1865 18.4082 22.3257C18.3247 22.4649 18.2969 22.604 18.2969 22.771C18.2969 22.9659 18.3525 23.105 18.436 23.2164C18.5195 23.3277 18.6587 23.4112 18.7979 23.4669L20.0782 23.439ZM18.8535 23.0215C18.9649 23.105 19.104 23.1607 19.3267 23.2164V22.2144C19.1319 22.2422 18.9649 22.2979 18.8535 22.3814C18.7422 22.4649 18.6865 22.5762 18.6865 22.7154C18.6865 22.8545 18.7422 22.938 18.8535 23.0215Z" fill="#ED1C24"/>
<path d="M38.2622 42.1643C39.0448 42.0773 39.7405 41.7295 40.0883 41.1208C40.5231 40.5991 40.61 39.8165 40.4361 39.2947C40.0883 40.4252 39.0448 40.9469 38.2622 40.773C37.4796 40.686 36.9579 39.9034 36.9579 39.2947C36.9579 38.5991 37.4796 37.9034 38.2622 37.8165C39.0448 37.6426 40.0883 38.1643 40.4361 39.2947C40.61 38.686 40.5231 37.9904 40.0883 37.4686C39.6535 36.9469 38.9579 36.5121 38.2622 36.4252C37.5666 36.3382 36.697 36.5991 36.1753 37.1208C35.5666 37.6426 35.2188 38.4252 35.2188 39.2078C35.2188 39.9904 35.5666 40.773 36.1753 41.3817C36.697 41.9034 37.4796 42.2513 38.2622 42.1643Z" fill="#222222"/>
<path d="M22.8714 50.2515C24.0888 50.1646 25.2193 49.9037 26.4366 49.5559C25.2193 49.208 24.0888 49.0341 22.8714 48.8602C20.3497 48.5993 18.0888 48.5993 15.741 48.8602C14.5236 48.9472 13.3932 49.208 12.1758 49.5559C13.3932 49.9037 14.5236 50.0776 15.741 50.2515C18.0888 50.5124 20.3497 50.5124 22.8714 50.2515Z" fill="#222222"/>
<path fill-rule="evenodd" clip-rule="evenodd" d="M45.6965 46.6428L45.74 45.121H45.653L45.6965 46.6428Z" fill="#222222"/>
<path d="M45.653 45.121H45.74H46.4356H46.7834H47.3052C48.3486 44.9471 49.2182 44.1645 49.566 43.121C49.74 42.8602 49.74 42.4254 49.74 42.2515V39.2949V36.3384C49.74 36.1645 49.74 35.7297 49.653 35.3819C49.3921 34.3384 48.5226 33.5558 47.3921 33.3819H46.8704H45.74C43.9139 33.3819 43.8269 33.3819 41.3921 33.4689L38.4356 33.5558C37.8269 33.5558 37.3921 33.5558 36.8704 33.6428C36.3487 33.7297 35.8269 33.9036 35.3052 34.1645C33.3921 35.121 32.1747 37.208 32.4356 39.208C32.6095 37.208 33.9139 35.5558 35.653 34.9471C36.0878 34.7732 36.5226 34.6863 36.9573 34.6863H38.3487C41.0443 34.7732 42.6965 34.8602 44.2617 34.8602C44.4356 34.8602 46.5226 34.9471 46.4356 34.9471H46.7834H47.0443C47.4791 35.0341 47.8269 35.3819 47.9139 35.7297V36.2515V39.208V42.1645V42.6862C47.8269 43.121 47.4791 43.3819 47.0443 43.4689H46.7834H45.653C43.8269 43.4689 43.3052 43.4689 41.2182 43.5558L38.4356 43.8167H37.74H37.0443C36.6095 43.8167 36.1747 43.6428 35.74 43.5558C34.0008 42.9471 32.6965 41.208 32.5226 39.2949C32.2617 41.2949 33.4791 43.3819 35.3921 44.3384C35.9139 44.5993 36.3487 44.7732 36.9573 44.8602C37.2182 44.9471 37.4791 44.9471 37.74 44.9471H38.4356C41.3921 45.0341 42.6095 45.121 44.3487 45.121H45.653Z" fill="#222222"/>
<path d="M6.26172 49.8167V50.2515V50.7732C6.43563 52.2514 7.13128 53.6428 8.26172 54.5993C9.39215 55.5558 10.9574 56.0775 12.3487 55.9906H16.1748L23.8269 55.9036L39.1313 55.6428C39.74 55.6428 40.3487 55.6428 41.0443 55.5558C41.74 55.4688 42.3487 55.2949 42.9573 54.9471C44.1747 54.3384 45.1313 53.208 45.566 51.9906C45.8269 51.3819 45.8269 50.6862 45.8269 50.0775L45.74 48.1645L45.6965 46.6428L45.653 48.1645C45.566 49.4688 45.74 50.7732 45.2182 51.9036C44.5226 53.5558 42.9573 54.7732 41.0443 54.8601H39.1313L23.8269 54.5993H16.1748H12.3487C11.2182 54.5993 10.1748 54.2514 9.39215 53.5558C8.60954 52.8601 8.0878 51.8167 8.00085 50.7732V50.2515V48.7732V39.208V28.7732V28.2515V27.8167C8.0878 26.7732 8.60954 25.7297 9.39215 25.0341C10.1748 24.3384 11.2182 23.9037 12.3487 23.9906H16.1748L22.3434 23.9037V22.6863L17.1313 22.5993L15.74 22.5124L12.3487 22.4254C10.9574 22.3384 9.39215 22.8602 8.26172 23.8167C7.13128 24.7732 6.43563 26.1645 6.26172 27.6428V28.1645V29.6428V39.208V49.8167Z" fill="#222222"/>
<path d="M45.74 33.3819L45.8269 30.3384L45.9139 28.4254C45.9139 27.8167 45.8269 27.121 45.653 26.5123C45.2182 25.208 44.2617 24.1645 43.0443 23.5558C42.4356 23.208 41.74 23.0341 41.1313 22.9471H39.566C39.566 22.9471 35.8839 22.8918 31.6592 22.8279V23.7589L39.1313 23.6428C39.74 23.6428 40.4356 23.5558 41.0443 23.6428C42.9573 23.7297 44.5226 24.9471 45.2182 26.5993C45.74 27.7297 45.566 29.0341 45.653 30.3384L45.74 33.3819Z" fill="#222222"/>
<path d="M31.6592 23.7589V22.8279L22.3434 22.6863V23.9037L31.6592 23.7589Z" fill="#222222"/>
</g>
<defs>
<clipPath id="clip0_274_1937">
<rect width="56" height="56" fill="white"/>
</clipPath>
</defs>
</svg>
