<svg width="56" height="56" viewBox="0 0 56 56" fill="none" xmlns="http://www.w3.org/2000/svg">
<path fill-rule="evenodd" clip-rule="evenodd" d="M48.5171 2.56083C48.2143 2.54827 47.8458 2.57406 47.6001 2.61166L45.2729 2.96812C44.2397 3.13169 43.2279 3.41004 42.205 3.62661C41.1916 3.88426 40.1977 4.21631 39.194 4.50876C35.2271 5.84543 31.4909 7.82177 28.1109 10.2611C26.5897 11.3725 25.149 12.591 23.7915 13.8936L23.2251 13.6346C22.8154 13.4377 22.4297 13.3115 22.0575 13.1937L19.7883 12.4449L15.2374 11.0012L12.9514 10.308C12.1031 10.0116 10.9334 9.98509 10.0054 10.398C9.53023 10.5957 9.08508 10.8781 8.71091 11.2428C8.52597 11.426 8.35295 11.6269 8.20921 11.8432L7.86437 12.3792L6.5886 14.3977C4.48142 17.7202 4.3358 18.0106 3.43673 19.4672L3.12483 19.9762C3.0088 20.1617 2.86059 20.4514 2.7747 20.7009C2.40389 21.7533 2.57255 22.9753 3.24421 23.8692C4.25863 25.2275 6.15616 25.6733 7.65749 24.7997L8.69711 24.1326L12.3669 21.6921C13.6882 22.2896 15.0076 22.8908 16.3373 23.472C15.1773 25.5245 14.1925 27.6708 13.4199 29.892L13.413 29.9118C13.3756 30.0196 13.402 30.1441 13.4905 30.2274C14.1719 30.869 14.8641 31.4998 15.5473 32.1394L16.1383 33.0715C17.0223 33.8249 17.9155 34.5689 18.8225 35.2993L18.982 35.1643L15.8623 31.8582C15.2681 31.2234 14.682 30.5805 14.0861 29.9475C17.3182 22.573 22.5408 16.155 29.107 11.6696C31.9724 9.6812 35.0971 8.08594 38.3651 6.89146C40.0684 8.76767 41.8126 10.6027 43.5827 12.4121C45.3605 14.2486 47.1849 16.0386 49.0121 17.8256C47.8245 21.0229 46.2812 24.0948 44.3281 26.905C42.0639 30.2062 39.3294 33.1979 36.2068 35.7348C35.37 36.4133 34.5026 37.0551 33.6153 37.6701C33.1986 37.915 32.7854 38.1666 32.362 38.3981C32.262 38.4532 32.1912 38.5379 32.1365 38.6315C30.1918 39.8663 28.1556 40.9653 26.0316 41.8885C24.0427 40.0158 22.5755 38.2925 20.3571 36.536L20.2323 36.6376C21.0981 37.7317 21.9922 38.7976 22.8956 39.8541L23.8646 40.4644C24.4949 41.1371 25.1164 41.8186 25.7482 42.4895C25.827 42.5729 25.9503 42.6078 26.066 42.5681L26.0869 42.5609C28.2524 41.8175 30.3483 40.8711 32.3562 39.7568C32.943 41.0532 33.5477 42.3405 34.1463 43.631L31.785 47.2566C31.559 47.6113 31.3715 47.8774 31.114 48.3049C30.8454 48.7908 30.6919 49.3406 30.6807 49.8985C30.6553 51.0289 31.1951 52.1121 32.1091 52.7827C33.0226 53.4492 34.2432 53.6199 35.3025 53.2526C35.552 53.1696 35.8471 53.0176 36.0332 52.8988L36.5382 52.5797L37.5479 51.9416L41.5821 49.3812L43.5841 48.0766L44.1129 47.7264C44.3241 47.5837 44.5174 47.4105 44.6968 47.2296C45.0539 46.8634 45.3302 46.4275 45.5237 45.9621C45.9196 45.0468 45.8811 43.9133 45.58 43.0813L44.8626 40.8019L43.3531 36.2678C42.4998 33.817 42.4041 33.4587 42.1166 32.872L41.9126 32.4347C43.291 31.0166 44.5732 29.5023 45.7366 27.899C48.1806 24.5178 50.1118 20.7613 51.4655 16.8036C52.1397 14.8231 52.646 12.7863 53.01 10.7265C53.1126 10.2132 53.1865 9.69537 53.2551 9.17671C53.3195 8.66134 53.426 8.17077 53.4156 7.48718C53.3904 6.20569 52.833 4.95887 51.9448 4.05193C51.0437 3.1591 49.8002 2.58861 48.5171 2.56083ZM42.6872 5.54297C42.4133 5.61068 42.142 5.689 41.8708 5.76732C41.8187 5.78238 41.7665 5.79745 41.7143 5.81243C41.1942 6.01496 40.6823 6.23378 40.1717 6.45551C41.7992 7.95047 43.4026 9.46966 44.9809 11.0138C46.4877 12.4724 47.9609 13.9645 49.4292 15.4617C50.0803 13.7959 50.6196 12.0832 51.0517 10.3355C51.1418 9.86161 51.2083 9.38384 51.2682 8.9052C51.2804 8.81073 51.2934 8.71541 51.3063 8.62065C51.3612 8.21695 51.4147 7.82338 51.4011 7.54827C51.3822 6.77966 51.0405 6.0379 50.5008 5.4868C49.9516 4.94701 49.2148 4.59489 48.4462 4.57637C48.2403 4.57059 48.0942 4.57401 47.8358 4.6095L47.0959 4.71831L45.6158 4.93495C44.9842 5.03004 44.3612 5.17147 43.7382 5.31293C43.3884 5.39233 43.0386 5.47175 42.6872 5.54297ZM11.9813 20.2632C12.1865 20.1458 12.43 20.1544 12.6216 20.2634C14.016 21.0619 15.4157 21.8502 16.8016 22.6653C18.5443 19.7402 20.6593 17.0267 23.0718 14.599L22.8806 14.541C22.5544 14.4305 22.176 14.3354 21.7773 14.2528L19.4449 13.726L14.7928 12.6184L12.4768 12.0379C11.8121 11.8501 11.2887 11.8964 10.756 12.1373C10.5029 12.2573 10.2701 12.4187 10.0838 12.6198C9.9924 12.7223 9.90117 12.8217 9.82865 12.9398C9.76054 13.0366 9.63072 13.2588 9.53476 13.4123L8.28764 15.4479C6.22486 18.8261 6.06334 19.0294 5.13211 20.5136L4.81324 21.0182C4.71822 21.1704 4.68777 21.2375 4.63656 21.3618C4.4666 21.8126 4.54223 22.3414 4.80989 22.7408C5.0763 23.137 5.56805 23.4185 6.06416 23.418C6.31466 23.423 6.56262 23.3625 6.78504 23.2478L7.77992 22.6654L11.9813 20.2632ZM43.519 41.1718L42.4711 36.5045L41.9749 34.1647C41.9009 33.7682 41.821 33.3824 41.7053 33.0266L41.6203 32.7363C39.36 35.0153 36.8388 37.0261 34.1278 38.7162C34.0754 38.7541 34.0232 38.7921 33.971 38.8302C33.829 38.9336 33.6871 39.037 33.5426 39.1372C34.0329 40.0027 34.5134 40.8732 34.994 41.7437C35.2836 42.2683 35.5731 42.7928 35.8649 43.3163C36.0062 43.5698 35.9929 43.8677 35.856 44.1011L35.8296 44.1455L33.4029 48.2586L32.8234 49.244C32.7115 49.4562 32.6473 49.6958 32.6474 49.9344C32.6341 50.4018 32.9009 50.894 33.2764 51.1582C33.659 51.4285 34.187 51.4961 34.6333 51.3322C34.6504 51.325 34.6663 51.3184 34.6815 51.3121C34.7772 51.2723 34.843 51.245 34.9742 51.166L35.4829 50.8544L36.5001 50.2311L40.5742 47.7456L42.6263 46.5272C42.6791 46.4957 42.7292 46.4661 42.7767 46.438C43.0713 46.2637 43.269 46.1468 43.4424 45.9787C43.6513 45.7846 43.8189 45.5427 43.9431 45.2797C44.2014 44.7345 44.2598 44.1749 44.0768 43.4939L43.519 41.1718Z" fill="#222222"/>
<path d="M41.4594 14.5342C42.563 16.2298 42.1152 18.2743 40.9034 19.232C39.7105 20.2428 37.9149 20.1002 36.927 19.0738C35.9038 18.0901 35.7565 16.2947 36.7653 15.1016C37.7206 13.8919 39.761 13.4331 41.4594 14.5342C40.9326 13.6787 39.9328 13.0791 38.8298 12.9487C37.7281 12.8256 36.5241 13.1851 35.6417 13.9779C34.7321 14.746 34.1999 15.951 34.1531 17.1693C34.1086 18.3949 34.6098 19.643 35.4901 20.5159C36.3648 21.3909 37.6127 21.891 38.8378 21.8426C40.0561 21.7953 41.2588 21.2591 42.0248 20.3493C42.8165 19.4671 43.173 18.2615 43.0471 17.1611C42.9145 16.0589 42.3134 15.0622 41.4594 14.5342Z" fill="#ED1C24"/>
<path fill-rule="evenodd" clip-rule="evenodd" d="M15.5429 32.1406C13.7292 34.024 12.2597 36.1086 10.9393 38.3313C10.2879 39.4821 9.64876 40.6514 9.18094 41.9466C8.94851 42.5957 8.74257 43.2677 8.6358 44.0224C8.59454 44.4087 8.55607 44.8021 8.62853 45.2651C8.69453 45.7118 8.86524 46.2553 9.29914 46.6982C9.73688 47.1342 10.282 47.301 10.7278 47.369C11.1909 47.4423 11.5849 47.4045 11.9718 47.3636C12.7275 47.2577 13.4001 47.052 14.0496 46.8196C15.3483 46.3588 16.5178 45.7173 17.6682 45.0647C19.8931 43.7492 21.9748 42.2776 23.8602 40.4656L24.1441 40.1382C24.2247 39.9495 24.1847 39.725 24.0205 39.5845C22.814 38.5525 21.6019 37.5263 20.3527 36.5372C20.5879 36.3526 20.8243 36.1693 21.0477 35.9713C22.2739 34.8853 23.53 33.3905 24.1213 31.8766C22.5489 32.2866 20.9172 33.359 19.695 34.4499C19.4557 34.6632 19.2295 34.8913 19.0039 35.1202C18.1496 34.0592 17.2748 33.0187 16.3938 31.9844L16.3648 31.9534C16.2264 31.8182 16.0253 31.7877 15.8578 31.8594L15.5429 32.1406ZM13.3957 44.9625C14.5334 44.5613 15.6893 44.0583 16.8113 43.4872C18.8927 42.4069 20.9926 41.22 22.8912 39.8553C21.9878 38.7988 21.0936 37.7329 20.2278 36.6388C19.8426 36.9342 19.4458 37.2167 19.0265 37.4738C18.2936 37.908 17.5282 38.3058 16.6214 38.5445C16.9645 37.6718 17.4492 36.9583 17.9662 36.2813C18.2363 35.9386 18.5212 35.6128 18.8181 35.3004C17.911 34.5701 17.0178 33.8261 16.1339 33.0727C14.7668 34.9797 13.5787 37.0872 12.5018 39.1788C11.9309 40.3014 11.4267 41.4578 11.0319 42.5989C10.838 43.1673 10.6819 43.7426 10.6183 44.2693C10.5403 44.7954 10.6688 45.2421 10.7341 45.258C10.759 45.3212 11.2003 45.4519 11.7267 45.3744C12.2527 45.3116 12.8276 45.1561 13.3957 44.9625Z" fill="#ED1C24"/>
<path d="M17.9621 36.2833C18.2321 35.9406 18.517 35.6148 18.8139 35.3025L18.9998 35.1222C19.2253 34.8933 19.4516 34.6652 19.6909 34.4519C20.913 33.3611 22.5448 32.2886 24.1171 31.8787C23.5259 33.3925 22.2697 34.8874 21.0435 35.9733C20.8202 36.1713 20.5838 36.3546 20.3485 36.5392L20.2236 36.6408C19.8384 36.9363 19.4417 37.2187 19.0223 37.4758C18.2894 37.9101 17.524 38.3079 16.6172 38.5465C16.9604 37.6739 17.445 36.9603 17.9621 36.2833Z" fill="#222222"/>
</svg>
