<svg width="56" height="56" viewBox="0 0 56 56" fill="none" xmlns="http://www.w3.org/2000/svg">
<path fill-rule="evenodd" clip-rule="evenodd" d="M28.105 26.6765C28.0796 26.6956 28.0541 26.7147 28.0286 26.7338C27.6468 27.0198 27.2649 27.3002 26.8831 27.4911C25.4891 28.2877 23.9004 28.6948 22.4025 28.6173C22.4365 28.6155 22.4705 28.6135 22.5044 28.6113C22.4709 28.6091 22.4375 28.6067 22.4041 28.6041C22.3697 28.6067 22.3353 28.6091 22.3007 28.6113C22.3346 28.6135 22.3686 28.6155 22.4025 28.6173" fill="#222222"/>
<path d="M4.48051 51.8285C4.98966 51.9303 5.39698 51.8285 5.8043 51.8285H7.02625H9.47017C15.9873 51.8285 23.9018 51.7266 30.4189 51.6248V49.8937C24.0036 49.8937 16.0891 49.7919 9.572 49.7919H7.12808H5.90613H4.786C3.56404 49.69 2.44391 48.7736 2.0366 47.5516C1.93477 47.2461 1.93477 46.9406 1.83294 46.6351V45.4132V42.9693C1.73111 42.0528 1.73111 41.34 1.83294 40.6272C1.93477 39.9144 2.13842 39.0997 2.34208 38.3869C2.85123 36.9613 3.7677 35.6375 4.786 34.6192C5.29515 34.1101 5.90613 33.6009 6.61893 33.1936L8.65553 31.8698C10.183 30.8515 11.8123 29.8332 13.3397 28.8149C14.358 28.1021 15.3763 27.4911 16.4964 26.7783C17.1074 26.982 17.5147 27.2875 17.922 27.4911C19.316 28.2877 20.9047 28.6948 22.4025 28.6173C22.3686 28.6155 22.3346 28.6135 22.3007 28.6113C22.3353 28.6091 22.3697 28.6067 22.4041 28.6041C19.2916 28.3622 16.6817 26.2433 14.969 23.8253C13.2379 21.3813 12.1177 18.4283 11.9141 15.4752C11.7104 12.5222 12.8305 9.56909 14.7653 7.5325C16.7001 5.39407 19.5513 4.17212 22.4025 4.17212C25.2538 4.17212 28.105 5.39407 30.0398 7.5325C32.0764 9.56909 33.0947 12.5222 32.891 15.4752C32.6874 18.4283 31.5672 21.3813 29.8361 23.8253C28.1234 26.2433 25.6132 28.3622 22.4041 28.6041C22.4375 28.6067 22.4709 28.6091 22.5044 28.6113C22.4705 28.6135 22.4365 28.6155 22.4025 28.6173C23.9004 28.6948 25.4891 28.2877 26.8831 27.4911C27.2649 27.3002 27.6468 27.0198 28.0286 26.7338L28.105 26.6765C28.716 27.2875 29.327 27.8985 29.938 28.4076C30.2434 28.7131 30.6508 28.9168 30.9562 29.2222C30.0398 30.7497 28.8178 32.0735 27.494 32.9899C25.8648 34.0082 24.1337 34.5174 22.3007 34.5174C20.4678 34.5174 18.6348 34.0082 17.1074 32.9899C15.58 31.9716 14.2562 30.546 13.3397 28.8149C13.5434 30.8515 14.5617 32.7863 16.1909 34.2119C17.8202 35.6375 20.1623 36.554 22.4025 36.554C24.6428 36.554 26.8831 35.7393 28.6142 34.2119C30.0398 32.9899 31.0581 31.157 31.4654 29.3241C31.7709 29.5277 32.0764 29.7314 32.4837 29.935C33.2983 30.4442 34.113 30.8515 34.9276 31.157C35.5386 31.4625 35.794 31.6643 36.6415 32.1753C36.9657 32.3707 37.3696 32.5991 37.8086 32.8679L38.6773 32.3395C38.246 32.0608 37.8349 31.8156 37.4325 31.5563C35.3418 30.2087 33.2253 29.3241 30.4189 27.4911C29.6081 26.9616 29.1233 26.7783 28.3087 26.5747C29.1233 25.9637 29.9379 25.149 30.6508 24.3344C32.6874 21.7887 34.113 18.7338 34.5203 15.4752C34.9276 12.1148 33.7057 8.65263 31.4654 6.10688C29.2251 3.56114 25.7629 2.03369 22.4025 2.03369C18.9403 2.03369 15.58 3.56114 13.3397 6.10688C11.0994 8.65263 9.87749 12.1148 10.2848 15.4752C10.6921 18.8356 12.1177 21.8905 14.1543 24.3344C14.8671 25.149 15.6818 25.9637 16.4964 26.5747C13.6452 28.0003 10.8958 29.5277 8.14638 30.9533L6.00796 32.1753C5.29515 32.5826 4.48051 33.0918 3.86953 33.6009C2.54574 34.7211 1.52745 36.1467 0.814638 37.7759C0.610978 38.6924 0.305489 39.507 0.20366 40.4235C5.02633e-08 41.2382 0 42.2565 0 42.9693V45.4132V46.6351C0 47.1443 0.10183 47.6534 0.20366 48.1626C0.712808 50.0973 2.44391 51.523 4.48051 51.8285Z" fill="#222222"/>
<path d="M55.9935 44.8024C55.9906 44.7407 55.9947 44.7478 55.9854 44.6142C55.9369 44.1606 55.5732 43.8254 55.1713 43.7855C55.127 43.779 55.0516 43.7791 55.0329 43.7803L55.0283 43.7805L55.0897 39.5923C55.0907 39.1884 55.1024 38.838 55.0947 38.3902C55.0699 37.8801 54.8371 37.382 54.464 37.0332C54.0957 36.6801 53.578 36.4764 53.0704 36.4768L51.8966 36.4662L48.1841 36.4507C48.2629 35.8577 48.3282 35.269 48.3746 34.6527C48.4039 33.7992 47.977 32.9219 47.253 32.3895C46.8936 32.122 46.4644 31.9377 46.0129 31.8687C45.9009 31.8444 45.7864 31.8452 45.6726 31.8338L45.3785 31.8223L44.804 31.8033L42.5062 31.7749L40.2083 31.8047L39.6339 31.8237L39.3397 31.8351C39.226 31.8464 39.1116 31.8457 38.9997 31.8699C38.5483 31.9386 38.1198 32.1243 37.7602 32.3908C37.0366 32.9228 36.6101 33.7999 36.6392 34.6527C36.6851 35.2685 36.7502 35.8568 36.8285 36.4494L33.1161 36.4639L31.9424 36.4745C31.4342 36.474 30.9159 36.6779 30.5472 37.0313C30.1735 37.3807 29.9404 37.8793 29.9156 38.3901C29.9078 38.8382 29.9195 39.1883 29.9205 39.5923L29.981 43.852C29.51 43.8239 29.1322 44.1766 29.0788 44.619L29.0598 44.9413L29.0325 45.4972L29.0179 46.0531L29.0166 46.192C29.0178 46.2539 29.012 46.2459 29.0197 46.3809C29.0601 46.8267 29.4056 47.1812 29.8378 47.2357C29.8804 47.2429 29.9489 47.2441 29.9726 47.2441L29.9166 51.2522L29.9114 51.8204C29.907 52.0292 29.9352 52.3054 30.0153 52.5327C30.2511 53.248 30.8803 53.7844 31.6435 53.8967C31.9148 53.9326 32.0925 53.9185 32.2796 53.924L33.4159 53.9345L42.5064 53.9667L51.5969 53.9275L52.7332 53.9171C52.9203 53.9116 53.0982 53.9256 53.3683 53.8898C54.1319 53.7774 54.7569 53.2404 54.991 52.5305C55.0708 52.3038 55.0989 52.0289 55.0946 51.8204L55.0894 51.2522L55.0294 47.2154L55.0329 47.2156C55.0516 47.2168 55.1271 47.2168 55.1715 47.2104C55.3803 47.1898 55.5764 47.087 55.7217 46.9401C55.8683 46.7932 55.9637 46.5914 55.9863 46.3803C55.9956 46.2465 55.9915 46.2537 55.9943 46.1921C55.9948 46.1377 56.001 45.4429 56.0005 45.4972L55.9955 44.9413L55.9935 44.8024ZM30.0409 44.7166L30.1661 44.7037L30.3758 44.6802L30.3811 44.6812L32.5606 44.6442C32.5259 45.0488 32.5013 45.2641 32.4585 46.2832C31.887 46.2373 31.3156 46.2031 30.7442 46.183L30.1883 46.1715L30.087 46.1705L30.0859 46.0531L30.0713 45.4972L30.044 44.9413L30.0365 44.8023C30.0348 44.782 30.0335 44.7402 30.0319 44.7176C30.0353 44.7173 30.0376 44.7169 30.0409 44.7166ZM51.202 48.076L50.0886 47.9889L49.5319 47.959C49.3585 47.9487 49.11 47.9409 49.0936 47.9236C48.9629 47.8821 48.8707 47.7528 48.8744 47.6231C48.8774 46.8808 48.8451 46.1386 48.8005 45.3963C48.7805 45.0252 48.7422 44.6541 48.7139 44.283L48.661 43.7263C48.6473 43.5421 48.6124 43.3353 48.6234 43.2369C48.6313 43.1306 48.6824 43.0275 48.7546 42.9378C48.7603 42.9327 48.7643 42.9266 48.7702 42.9215C48.8452 42.8584 48.9368 42.8195 49.0299 42.8007C49.1221 42.7822 49.2017 42.7932 49.3786 42.7963L50.1895 42.8176C50.248 42.8188 51.2586 42.8399 51.2032 42.8387C51.2558 42.8412 51.2922 42.8455 51.3354 42.8575C51.4174 42.8808 51.4956 42.9211 51.5569 42.9812C51.6188 43.0398 51.6679 43.112 51.6934 43.1912C51.7088 43.2298 51.7142 43.2713 51.7192 43.3119L51.7211 43.3751C51.7192 43.4693 51.7009 44.3438 51.7021 44.2884C51.6999 44.4099 51.766 44.5127 51.8616 44.5734C51.8981 44.793 51.8618 45.0126 51.9095 45.2322C51.9029 45.3542 51.8987 45.4761 51.8914 45.5981C51.8843 45.7263 51.8717 45.8546 51.8616 45.9828C51.8325 46.1287 51.8851 46.2746 51.8607 46.4205C51.7648 46.4816 51.6987 46.5851 51.7013 46.707C51.7033 46.8012 51.7217 47.6747 51.7205 47.6193L51.7186 47.6825C51.7136 47.723 51.7082 47.7644 51.6929 47.8031C51.6738 47.8624 51.6385 47.9157 51.5974 47.9645C51.4815 48.0577 51.336 48.1029 51.202 48.076ZM47.9421 44.4599C47.9162 44.772 47.8861 45.0842 47.8693 45.3963C47.8475 45.759 47.8289 46.1216 47.8157 46.4842C46.0459 46.3727 44.2762 46.3025 42.5064 46.2471C40.7421 46.1997 38.9779 46.1811 37.2136 46.1718L37.2042 44.8023C37.9693 44.7927 38.7352 44.7699 39.5038 44.7508C40.4465 44.7309 41.4019 44.6744 42.3619 44.6365L45.2933 44.4749L46.3095 44.4123C46.8537 44.4284 47.3979 44.4444 47.9421 44.4599ZM36.392 47.7573C36.2957 47.997 36.0461 48.1182 35.8354 48.076L34.7222 47.9889L34.1655 47.959C33.9925 47.9487 33.7427 47.9409 33.7281 47.9236C33.5976 47.8826 33.5026 47.7494 33.5072 47.6231C33.5103 46.8809 33.478 46.1387 33.4333 45.3966C33.4134 45.0255 33.375 44.6544 33.3468 44.2833L33.3093 43.8889C33.3082 43.8346 33.2975 43.3209 33.2987 43.3753L33.3005 43.3128C33.3055 43.2727 33.3108 43.2319 33.3259 43.1938C33.351 43.1157 33.3994 43.0445 33.4605 42.9866C33.5209 42.9274 33.598 42.8875 33.6788 42.8645C33.7215 42.8527 33.7573 42.8484 33.8093 42.8459L34.012 42.8417L34.8228 42.8249L35.6336 42.8066C35.8156 42.8033 35.8902 42.7928 35.9795 42.8109C36.0706 42.8294 36.1608 42.8679 36.2348 42.9301C36.389 43.063 36.4679 43.2214 36.4601 43.4766L36.4696 43.8094C36.2862 43.8895 36.1567 44.0707 36.1553 44.2837C36.1521 44.7414 36.1381 46.7706 36.1385 46.7143C36.14 46.933 36.2732 47.1188 36.4616 47.2007L36.4578 47.328C36.441 47.4945 36.4344 47.6734 36.392 47.7573ZM52.2192 46.36C52.1976 46.2343 52.1749 46.1086 52.1498 45.9828C52.1398 45.8546 52.1271 45.7263 52.12 45.5981C52.1127 45.4761 52.1085 45.3542 52.1019 45.2322C52.1453 45.0327 52.1844 44.8331 52.2184 44.6335L53.0611 44.6485C53.4636 44.6917 53.5132 44.7273 53.9157 44.7537C55.0309 44.9155 54.8031 44.4026 54.9213 45.4972C54.802 46.5927 55.0309 46.0767 53.9157 46.2395C53.5115 46.2656 53.4603 46.3014 53.0562 46.345L52.2192 46.36ZM37.1656 34.6811C37.2568 33.9956 37.6461 33.7951 38.1912 33.4679C38.4696 33.3103 38.7751 33.2182 39.0829 33.1869C39.1593 33.1737 39.2382 33.1833 39.3151 33.1788L39.5954 33.1865L40.1698 33.2055L42.4677 33.2353L44.7655 33.2069L45.34 33.1879L45.6202 33.1801C45.697 33.1846 45.7759 33.1749 45.8523 33.1881C46.16 33.2192 46.4648 33.3125 46.7433 33.4692C47.288 33.796 47.754 33.9963 47.8453 34.6812C47.913 35.2535 47.9726 35.8541 48.0501 36.4502L42.5064 36.4272L36.9621 36.4488C37.039 35.8532 37.0985 35.2531 37.1656 34.6811ZM31.0005 38.8044C31.0193 38.5332 31.1465 38.2753 31.348 38.0936C31.5502 37.9104 31.8115 37.8119 32.0869 37.816L33.2607 37.8266L42.651 37.8633L52.0412 37.8243L53.215 37.8136C53.7964 37.8049 53.7682 37.895 53.8064 38.4471L53.821 39.5923L53.8831 43.824C53.4914 43.8501 53.4526 43.8844 53.0609 43.9264L52.3807 43.9385C52.3796 43.8842 52.3678 43.3208 52.369 43.3751C52.3664 43.3312 52.3649 43.282 52.3583 43.2362C52.3443 43.1434 52.3234 43.0509 52.2868 42.9645C52.2187 42.7896 52.1048 42.6362 51.9644 42.5162C51.8248 42.3948 51.6528 42.3124 51.4728 42.272C51.3846 42.2514 51.2856 42.2448 51.2032 42.2458C51.1309 42.2473 50.1341 42.268 50.1895 42.2669L49.3786 42.2882L49.1759 42.294C49.0954 42.2965 49.003 42.306 48.9199 42.3286C48.7509 42.3731 48.5919 42.4564 48.4661 42.5748C48.4489 42.5892 48.4378 42.6098 48.4219 42.6257C48.2749 42.7493 48.1566 42.9117 48.0968 43.1065C48.0209 43.3712 48.0365 43.541 48.0087 43.7263L47.9719 44.1142C47.4571 44.1288 46.9423 44.1441 46.4276 44.1592L45.548 44.1L42.651 43.9385C41.6681 43.9005 40.6807 43.8441 39.6806 43.8241C38.7521 43.8023 37.8202 43.7723 36.8874 43.7677L36.8958 43.4766C36.932 43.1934 36.8159 42.788 36.5527 42.5675C36.4257 42.4484 36.2659 42.3639 36.095 42.3188C36.0112 42.2958 35.9171 42.2861 35.8363 42.2837L35.6336 42.2779L34.8228 42.2596C34.7644 42.2584 33.7443 42.2372 33.8093 42.2386C33.7263 42.2377 33.6267 42.2443 33.538 42.2651C33.3568 42.3058 33.1839 42.389 33.0434 42.511C32.9022 42.6318 32.7878 42.7863 32.7194 42.9622C32.6825 43.0491 32.6615 43.1422 32.6474 43.2355C32.6409 43.2816 32.6393 43.3312 32.6368 43.3753C32.6357 43.4296 32.6251 43.9434 32.6262 43.889L32.6221 43.9318L30.986 43.8889V39.9495L31.0005 38.8044ZM30.0177 44.7191C30.0119 44.7253 30.0067 44.7338 30.0013 44.7356C29.9926 44.7405 29.9786 44.7362 29.9703 44.7293C29.953 44.7266 29.9829 44.7225 30.0177 44.7191ZM29.982 46.1696L29.9798 46.1696C29.9536 46.1686 29.9791 46.1695 29.982 46.1696ZM53.816 51.8204C53.8138 51.9902 53.7973 52.096 53.7523 52.2279C53.6201 52.6062 53.6334 52.6229 53.2324 52.6732C53.127 52.689 52.9243 52.6811 52.7332 52.6805L51.5969 52.6701L42.5064 52.6309L33.4159 52.663L32.2796 52.6735C32.0885 52.6741 31.8856 52.682 31.7813 52.6663C31.3823 52.6163 31.2421 52.6167 31.111 52.2416C31.0661 52.1104 31.0498 52.0058 31.0475 51.8363L31.0423 51.2681L30.986 47.2446C31.5352 47.2248 31.8874 47.1761 32.4366 47.1323C32.4341 47.2959 32.4276 47.4595 32.4282 47.6231C32.423 48.2473 32.8903 48.8195 33.4931 48.9367C33.843 48.9964 33.9689 48.9426 34.1655 48.9454L34.7222 48.9154L35.8354 48.8283C36.3743 48.8082 36.8409 48.3782 36.9131 47.8872C36.9478 47.6525 36.9135 47.4985 36.8983 47.3381L36.8955 47.2446C38.7658 47.2359 40.6361 47.217 42.5064 47.1668C44.2733 47.1114 46.0403 47.0413 47.8072 46.9301C47.802 47.1611 47.7944 47.3921 47.7954 47.6231C47.7881 48.2437 48.2563 48.8223 48.8603 48.937C49.2085 48.996 49.3356 48.9428 49.5319 48.9454L50.0886 48.9154L51.202 48.8283C51.5529 48.8154 51.8713 48.627 52.0722 48.3624C52.2397 48.1755 52.3213 48.0075 52.3589 47.7583C52.3654 47.7124 52.367 47.6632 52.3696 47.6193C52.3707 47.5649 52.3826 47.0024 52.3814 47.0567L53.056 47.0688C53.4489 47.1112 53.4889 47.1457 53.8819 47.1715L53.8213 51.2522L53.816 51.8204Z" fill="#ED1C24"/>
</svg>
