<svg width="107" height="107" viewBox="0 0 107 107" fill="none" xmlns="http://www.w3.org/2000/svg">
<circle cx="4.10563" cy="72.0901" r="2.98303" transform="rotate(-65.7321 4.10563 72.0901)" fill="#E0E0E0"/>
<circle cx="17.7033" cy="78.2202" r="2.98303" transform="rotate(-65.7321 17.7033 78.2202)" fill="#E0E0E0"/>
<circle cx="31.3009" cy="84.3506" r="2.98303" transform="rotate(-65.7321 31.3009 84.3506)" fill="#E0E0E0"/>
<circle cx="44.8986" cy="90.4807" r="2.98303" transform="rotate(-65.7321 44.8986 90.4807)" fill="#E0E0E0"/>
<circle cx="58.4943" cy="96.6108" r="2.98303" transform="rotate(-65.7321 58.4943 96.6108)" fill="#E0E0E0"/>
<circle cx="72.092" cy="102.741" r="2.98303" transform="rotate(-65.7321 72.092 102.741)" fill="#E0E0E0"/>
<circle cx="16.3673" cy="44.8958" r="2.98303" transform="rotate(-65.7321 16.3673 44.8958)" fill="#E0E0E0"/>
<circle cx="29.963" cy="51.0259" r="2.98303" transform="rotate(-65.7321 29.963 51.0259)" fill="#E0E0E0"/>
<circle cx="43.5607" cy="57.1563" r="2.98303" transform="rotate(-65.7321 43.5607 57.1563)" fill="#E0E0E0"/>
<circle cx="57.1584" cy="63.2864" r="2.98303" transform="rotate(-65.7321 57.1584 63.2864)" fill="#E0E0E0"/>
<circle cx="70.756" cy="69.4165" r="2.98303" transform="rotate(-65.7321 70.756 69.4165)" fill="#E0E0E0"/>
<circle cx="84.3517" cy="75.5466" r="2.98303" transform="rotate(-65.7321 84.3517 75.5466)" fill="#E0E0E0"/>
<circle cx="28.6271" cy="17.7014" r="2.98303" transform="rotate(-65.7321 28.6271 17.7014)" fill="#E0E0E0"/>
<circle cx="42.2248" cy="23.8316" r="2.98303" transform="rotate(-65.7321 42.2248 23.8316)" fill="#E0E0E0"/>
<circle cx="55.8224" cy="29.9619" r="2.98303" transform="rotate(-65.7321 55.8224 29.9619)" fill="#E0E0E0"/>
<circle cx="69.4181" cy="36.0921" r="2.98303" transform="rotate(-65.7321 69.4181 36.0921)" fill="#E0E0E0"/>
<circle cx="83.0158" cy="42.2222" r="2.98303" transform="rotate(-65.7321 83.0158 42.2222)" fill="#E0E0E0"/>
<circle cx="96.6134" cy="48.3523" r="2.98303" transform="rotate(-65.7321 96.6134 48.3523)" fill="#E0E0E0"/>
<circle cx="10.2365" cy="58.4929" r="2.98303" transform="rotate(-65.7321 10.2365 58.4929)" fill="#E0E0E0"/>
<circle cx="23.8341" cy="64.6231" r="2.98303" transform="rotate(-65.7321 23.8341 64.6231)" fill="#E0E0E0"/>
<circle cx="37.4318" cy="70.7534" r="2.98303" transform="rotate(-65.7321 37.4318 70.7534)" fill="#E0E0E0"/>
<circle cx="51.0275" cy="76.8836" r="2.98303" transform="rotate(-65.7321 51.0275 76.8836)" fill="#E0E0E0"/>
<circle cx="64.6252" cy="83.0137" r="2.98303" transform="rotate(-65.7321 64.6252 83.0137)" fill="#E0E0E0"/>
<circle cx="78.2228" cy="89.1438" r="2.98303" transform="rotate(-65.7321 78.2228 89.1438)" fill="#E0E0E0"/>
<circle cx="22.4963" cy="31.2986" r="2.98303" transform="rotate(-65.7321 22.4963 31.2986)" fill="#E0E0E0"/>
<circle cx="36.0939" cy="37.4287" r="2.98303" transform="rotate(-65.7321 36.0939 37.4287)" fill="#E0E0E0"/>
<circle cx="49.6916" cy="43.5591" r="2.98303" transform="rotate(-65.7321 49.6916 43.5591)" fill="#E0E0E0"/>
<circle cx="63.2892" cy="49.6892" r="2.98303" transform="rotate(-65.7321 63.2892 49.6892)" fill="#E0E0E0"/>
<circle cx="76.8849" cy="55.8193" r="2.98303" transform="rotate(-65.7321 76.8849 55.8193)" fill="#E0E0E0"/>
<circle cx="90.4826" cy="61.9495" r="2.98303" transform="rotate(-65.7321 90.4826 61.9495)" fill="#E0E0E0"/>
<circle cx="34.758" cy="4.10426" r="2.98303" transform="rotate(-65.7321 34.758 4.10426)" fill="#E0E0E0"/>
<circle cx="48.3537" cy="10.2344" r="2.98303" transform="rotate(-65.7321 48.3537 10.2344)" fill="#E0E0E0"/>
<circle cx="61.9513" cy="16.3648" r="2.98303" transform="rotate(-65.7321 61.9513 16.3648)" fill="#E0E0E0"/>
<circle cx="75.549" cy="22.4949" r="2.98303" transform="rotate(-65.7321 75.549 22.4949)" fill="#E0E0E0"/>
<circle cx="89.1466" cy="28.625" r="2.98303" transform="rotate(-65.7321 89.1466 28.625)" fill="#E0E0E0"/>
<circle cx="102.742" cy="34.7551" r="2.98303" transform="rotate(-65.7321 102.742 34.7551)" fill="#E0E0E0"/>
</svg>
