<svg width="134" height="228" viewBox="0 0 134 228" fill="none" xmlns="http://www.w3.org/2000/svg">
<g opacity="0.5">
<circle cx="10" cy="224" r="4" transform="rotate(-90 10 224)" fill="#E0E0E0"/>
<circle cx="30" cy="224" r="4" transform="rotate(-90 30 224)" fill="#E0E0E0"/>
<circle cx="50" cy="224" r="4" transform="rotate(-90 50 224)" fill="#E0E0E0"/>
<circle cx="70" cy="224" r="4" transform="rotate(-90 70 224)" fill="#E0E0E0"/>
<circle cx="90" cy="224" r="4" transform="rotate(-90 90 224)" fill="#E0E0E0"/>
<circle cx="110" cy="224" r="4" transform="rotate(-90 110 224)" fill="#E0E0E0"/>
<circle cx="130" cy="224" r="4" transform="rotate(-90 130 224)" fill="#E0E0E0"/>
<circle cx="10" cy="184" r="4" transform="rotate(-90 10 184)" fill="#E0E0E0"/>
<circle cx="30" cy="184" r="4" transform="rotate(-90 30 184)" fill="#E0E0E0"/>
<circle cx="50" cy="184" r="4" transform="rotate(-90 50 184)" fill="#E0E0E0"/>
<circle cx="70" cy="184" r="4" transform="rotate(-90 70 184)" fill="#E0E0E0"/>
<circle cx="90" cy="184" r="4" transform="rotate(-90 90 184)" fill="#E0E0E0"/>
<circle cx="110" cy="184" r="4" transform="rotate(-90 110 184)" fill="#E0E0E0"/>
<circle cx="130" cy="184" r="4" transform="rotate(-90 130 184)" fill="#E0E0E0"/>
<circle cx="10" cy="144" r="4" transform="rotate(-90 10 144)" fill="#E0E0E0"/>
<circle cx="30" cy="144" r="4" transform="rotate(-90 30 144)" fill="#E0E0E0"/>
<circle cx="50" cy="144" r="4" transform="rotate(-90 50 144)" fill="#E0E0E0"/>
<circle cx="70" cy="144" r="4" transform="rotate(-90 70 144)" fill="#E0E0E0"/>
<circle cx="90" cy="144" r="4" transform="rotate(-90 90 144)" fill="#E0E0E0"/>
<circle cx="110" cy="144" r="4" transform="rotate(-90 110 144)" fill="#E0E0E0"/>
<circle cx="130" cy="144" r="4" transform="rotate(-90 130 144)" fill="#E0E0E0"/>
<circle cx="10" cy="204" r="4" transform="rotate(-90 10 204)" fill="#E0E0E0"/>
<circle cx="30" cy="204" r="4" transform="rotate(-90 30 204)" fill="#E0E0E0"/>
<circle cx="50" cy="204" r="4" transform="rotate(-90 50 204)" fill="#E0E0E0"/>
<circle cx="70" cy="204" r="4" transform="rotate(-90 70 204)" fill="#E0E0E0"/>
<circle cx="90" cy="204" r="4" transform="rotate(-90 90 204)" fill="#E0E0E0"/>
<circle cx="110" cy="204" r="4" transform="rotate(-90 110 204)" fill="#E0E0E0"/>
<circle cx="130" cy="204" r="4" transform="rotate(-90 130 204)" fill="#E0E0E0"/>
<circle cx="10" cy="164" r="4" transform="rotate(-90 10 164)" fill="#E0E0E0"/>
<circle cx="30" cy="164" r="4" transform="rotate(-90 30 164)" fill="#E0E0E0"/>
<circle cx="50" cy="164" r="4" transform="rotate(-90 50 164)" fill="#E0E0E0"/>
<circle cx="70" cy="164" r="4" transform="rotate(-90 70 164)" fill="#E0E0E0"/>
<circle cx="90" cy="164" r="4" transform="rotate(-90 90 164)" fill="#E0E0E0"/>
<circle cx="110" cy="164" r="4" transform="rotate(-90 110 164)" fill="#E0E0E0"/>
<circle cx="130" cy="164" r="4" transform="rotate(-90 130 164)" fill="#E0E0E0"/>
<circle cx="10" cy="124" r="4" transform="rotate(-90 10 124)" fill="#E0E0E0"/>
<circle cx="30" cy="124" r="4" transform="rotate(-90 30 124)" fill="#E0E0E0"/>
<circle cx="50" cy="124" r="4" transform="rotate(-90 50 124)" fill="#E0E0E0"/>
<circle cx="70" cy="124" r="4" transform="rotate(-90 70 124)" fill="#E0E0E0"/>
<circle cx="90" cy="124" r="4" transform="rotate(-90 90 124)" fill="#E0E0E0"/>
<circle cx="110" cy="124" r="4" transform="rotate(-90 110 124)" fill="#E0E0E0"/>
<circle cx="130" cy="124" r="4" transform="rotate(-90 130 124)" fill="#E0E0E0"/>
<circle cx="10" cy="104" r="4" transform="rotate(-90 10 104)" fill="#E0E0E0"/>
<circle cx="30" cy="104" r="4" transform="rotate(-90 30 104)" fill="#E0E0E0"/>
<circle cx="50" cy="104" r="4" transform="rotate(-90 50 104)" fill="#E0E0E0"/>
<circle cx="70" cy="104" r="4" transform="rotate(-90 70 104)" fill="#E0E0E0"/>
<circle cx="90" cy="104" r="4" transform="rotate(-90 90 104)" fill="#E0E0E0"/>
<circle cx="110" cy="104" r="4" transform="rotate(-90 110 104)" fill="#E0E0E0"/>
<circle cx="130" cy="104" r="4" transform="rotate(-90 130 104)" fill="#E0E0E0"/>
<circle cx="10" cy="64" r="4" transform="rotate(-90 10 64)" fill="#E0E0E0"/>
<circle cx="30" cy="64" r="4" transform="rotate(-90 30 64)" fill="#E0E0E0"/>
<circle cx="50" cy="64" r="4" transform="rotate(-90 50 64)" fill="#E0E0E0"/>
<circle cx="70" cy="64" r="4" transform="rotate(-90 70 64)" fill="#E0E0E0"/>
<circle cx="90" cy="64" r="4" transform="rotate(-90 90 64)" fill="#E0E0E0"/>
<circle cx="110" cy="64" r="4" transform="rotate(-90 110 64)" fill="#E0E0E0"/>
<circle cx="130" cy="64" r="4" transform="rotate(-90 130 64)" fill="#E0E0E0"/>
<circle cx="10" cy="24" r="4" transform="rotate(-90 10 24)" fill="#E0E0E0"/>
<circle cx="30" cy="24" r="4" transform="rotate(-90 30 24)" fill="#E0E0E0"/>
<circle cx="50" cy="24" r="4" transform="rotate(-90 50 24)" fill="#E0E0E0"/>
<circle cx="70" cy="24" r="4" transform="rotate(-90 70 24)" fill="#E0E0E0"/>
<circle cx="90" cy="24" r="4" transform="rotate(-90 90 24)" fill="#E0E0E0"/>
<circle cx="110" cy="24" r="4" transform="rotate(-90 110 24)" fill="#E0E0E0"/>
<circle cx="130" cy="24" r="4" transform="rotate(-90 130 24)" fill="#E0E0E0"/>
<circle cx="10" cy="84" r="4" transform="rotate(-90 10 84)" fill="#E0E0E0"/>
<circle cx="30" cy="84" r="4" transform="rotate(-90 30 84)" fill="#E0E0E0"/>
<circle cx="50" cy="84" r="4" transform="rotate(-90 50 84)" fill="#E0E0E0"/>
<circle cx="70" cy="84" r="4" transform="rotate(-90 70 84)" fill="#E0E0E0"/>
<circle cx="90" cy="84" r="4" transform="rotate(-90 90 84)" fill="#E0E0E0"/>
<circle cx="110" cy="84" r="4" transform="rotate(-90 110 84)" fill="#E0E0E0"/>
<circle cx="130" cy="84" r="4" transform="rotate(-90 130 84)" fill="#E0E0E0"/>
<circle cx="10" cy="44" r="4" transform="rotate(-90 10 44)" fill="#E0E0E0"/>
<circle cx="30" cy="44" r="4" transform="rotate(-90 30 44)" fill="#E0E0E0"/>
<circle cx="50" cy="44" r="4" transform="rotate(-90 50 44)" fill="#E0E0E0"/>
<circle cx="70" cy="44" r="4" transform="rotate(-90 70 44)" fill="#E0E0E0"/>
<circle cx="90" cy="44" r="4" transform="rotate(-90 90 44)" fill="#E0E0E0"/>
<circle cx="110" cy="44" r="4" transform="rotate(-90 110 44)" fill="#E0E0E0"/>
<circle cx="130" cy="44" r="4" transform="rotate(-90 130 44)" fill="#E0E0E0"/>
<circle cx="10" cy="4" r="4" transform="rotate(-90 10 4)" fill="#E0E0E0"/>
<circle cx="30" cy="4" r="4" transform="rotate(-90 30 4)" fill="#E0E0E0"/>
<circle cx="50" cy="4" r="4" transform="rotate(-90 50 4)" fill="#E0E0E0"/>
<circle cx="70" cy="4" r="4" transform="rotate(-90 70 4)" fill="#E0E0E0"/>
<circle cx="90" cy="4" r="4" transform="rotate(-90 90 4)" fill="#E0E0E0"/>
<circle cx="110" cy="4" r="4" transform="rotate(-90 110 4)" fill="#E0E0E0"/>
<circle cx="130" cy="4" r="4" transform="rotate(-90 130 4)" fill="#E0E0E0"/>
</g>
</svg>
