<svg width="41" height="44" viewBox="0 0 41 44" fill="none" xmlns="http://www.w3.org/2000/svg">
<path d="M1.71192 27.9346C2.23556 28.7201 3.02101 29.331 3.89374 29.7674C4.76647 30.2037 5.72647 30.6401 6.68647 30.9892C6.59919 31.3383 6.59919 31.9492 6.51192 32.6474C6.42465 33.3456 6.42465 34.2183 6.33738 35.2656C6.33738 35.7892 6.2501 36.3128 6.33738 37.011C6.42465 37.6219 6.59919 38.3201 7.03556 38.931C7.90828 40.0656 9.30465 40.851 10.7883 41.3746C12.2719 41.8983 13.8428 42.3346 15.501 42.6837C20.9119 43.8183 26.6719 43.6437 32.5192 42.1601C33.1301 41.9856 33.8283 41.811 34.4392 41.6365H34.5265C35.661 41.2874 36.7083 40.9383 37.6683 40.4146C38.4537 39.9783 39.2392 39.4546 39.7628 38.7565C40.3737 38.0583 40.7228 37.1856 40.8101 36.4001C40.8974 35.6146 40.8974 34.8292 40.8101 34.131C40.7228 33.4328 40.7228 32.8219 40.6356 32.1237C40.5483 30.8146 40.2865 29.5928 39.7628 28.6328C39.3265 27.6728 38.6283 26.9746 37.9301 26.5383C37.0574 26.0146 36.3592 25.7528 36.0101 25.7528C36.0101 25.6656 36.0101 25.5783 36.0101 25.491C36.0974 24.8801 36.0974 24.2692 36.0101 23.7456C35.9228 22.6983 35.9228 21.7383 35.8356 20.9528C35.7483 20.2546 35.7483 19.731 35.661 19.3819C36.5337 18.9456 37.3192 18.5092 38.1046 17.9855C38.7155 17.5492 39.4137 17.0255 39.9374 16.3274C40.461 15.6292 40.7228 14.7565 40.8101 13.971C40.8974 13.1855 40.8974 12.4001 40.8974 11.7019C40.8974 11.0037 40.8974 10.3055 40.8974 9.52009C40.8974 8.82191 40.7228 7.94918 40.461 7.251C40.1992 6.55282 39.7628 5.94191 39.2392 5.331C38.2792 4.19645 37.0574 3.49827 35.9228 2.88736C34.701 2.27645 33.4792 1.92736 32.3446 1.57827C28.3301 0.530999 24.2283 0.618271 20.1265 0.967362C18.5556 1.14191 17.1592 1.22918 16.0246 1.40373C13.7556 1.75282 12.5337 2.18918 12.5337 2.27645C12.5337 2.36373 13.7556 2.10191 16.0246 1.92736C17.1592 1.84009 18.5555 1.75282 20.1265 1.66554C24.141 1.491 28.1556 1.491 31.9956 2.53827C33.3919 2.88736 34.5265 3.23645 35.661 3.76009C37.6683 4.72009 39.4137 6.20373 39.8501 8.47282C39.2392 9.171 38.1919 10.2183 36.5337 11.1783C35.1374 11.9637 33.3046 12.6619 31.2974 13.0983C29.2028 13.4474 26.8465 13.5346 24.3156 13.4474C20.1265 13.2728 15.7628 12.9237 11.7483 11.6146C9.21737 10.8292 7.55919 9.86918 7.03556 9.69464C7.03556 9.52009 7.03556 9.25827 7.03556 9.08373C7.03556 8.211 7.03556 7.33827 7.12283 6.55282C7.2101 5.85464 7.64647 5.24373 8.1701 4.80736C8.60646 4.371 9.1301 4.02191 9.65374 3.76009C11.4865 2.62554 12.7956 2.36373 12.7083 2.27645C12.7083 2.27645 12.3592 2.27645 11.8356 2.36373C11.2246 2.53827 10.3519 2.71282 9.30465 3.23645C8.78101 3.49827 8.1701 3.84736 7.64647 4.28373C7.12283 4.72009 6.51192 5.41827 6.33738 6.291C6.16283 7.16373 6.16283 8.03646 6.16283 8.90918C6.16283 9.78191 6.16283 10.8292 6.16283 11.8765C6.16283 12.4001 6.2501 12.9237 6.33738 13.4474C6.42465 13.8837 6.42465 14.4074 6.59919 14.8437C6.51192 14.8437 6.33738 14.7565 6.16283 14.7565C5.72647 14.6692 5.11556 14.7565 4.41738 15.1055C3.63192 15.5419 2.84647 16.2401 2.23556 17.2001C1.62465 18.1601 1.18828 19.3819 1.01374 20.7783C0.839193 22.1746 0.839193 23.6583 0.926466 25.3165C1.01374 26.1019 1.10101 27.0619 1.71192 27.9346ZM2.58465 27.3237C2.14828 26.7128 2.06101 26.0146 1.97374 25.2292C1.79919 23.7455 1.79919 22.3492 1.88647 21.1274C2.06101 21.3019 2.23556 21.5637 2.58465 21.8255C3.02101 22.2619 3.71919 22.8728 4.59192 23.3965C4.24283 23.8328 3.80647 24.8801 3.80647 26.1892C3.80647 27.0619 3.98101 27.8474 4.15556 28.371C4.24283 28.5456 4.24283 28.6328 4.3301 28.7201C3.54465 28.2837 3.02101 27.8474 2.58465 27.3237ZM32.6065 16.6765C32.5192 15.4546 32.4319 14.4946 32.2574 13.971C32.8683 13.7965 33.4792 13.6219 34.0028 13.4474C34.0028 13.971 34.0028 14.931 34.0901 15.9783C34.1774 17.0255 34.2646 17.8983 34.5265 18.5092C34.2646 18.5965 34.0028 18.6837 33.741 18.771C33.3919 18.8583 32.9555 19.0328 32.5192 19.1201C32.6065 18.4219 32.6065 17.6365 32.6065 16.6765ZM35.3119 15.8037C35.2246 14.6692 34.8756 13.6219 34.6137 13.1855C35.0501 13.011 35.4865 12.7492 35.9228 12.5746C35.8356 13.0983 35.9228 14.0583 35.9228 15.1928C36.0101 16.1528 36.1846 17.0255 36.3592 17.5492C36.0101 17.7237 35.5737 17.9855 35.2246 18.1601C35.3119 17.5492 35.3992 16.6765 35.3119 15.8037ZM34.2646 25.4037C34.0901 24.0946 33.6537 22.9601 33.2174 22.5237C33.5665 22.2619 33.8283 22.0001 34.0901 21.7383C34.6137 21.2146 34.8756 20.691 35.1374 20.3419C35.3119 20.0801 35.4865 19.9056 35.5737 19.731C35.4865 20.8655 35.4865 22.4365 35.4865 23.571C35.4865 24.0946 35.4865 24.7055 35.3992 25.2292C35.3119 25.8401 35.1374 26.2765 34.701 26.8001C34.5265 26.9746 34.3519 27.1492 34.1774 27.3237C34.3519 26.7128 34.3519 26.1019 34.2646 25.4037ZM32.6937 22.9601C32.6937 23.571 32.8683 24.531 33.0428 25.5783C33.1301 26.5383 33.2174 27.411 33.3046 28.0219C32.6937 28.4583 32.0828 28.8074 31.3846 29.2437C31.4719 28.7201 31.4719 27.9346 31.3846 27.2365C31.1228 25.9274 30.6865 24.8801 30.3374 24.531C31.0356 24.0946 31.7337 23.6583 32.3446 23.3092C32.4319 23.1346 32.6065 23.0474 32.6937 22.9601ZM30.1628 27.411C30.3374 28.371 30.4246 29.1565 30.5119 29.6801C29.7265 30.0292 28.7665 30.3783 27.8937 30.6401C27.981 30.0292 27.981 29.2437 27.8065 28.4583C27.5446 27.3237 27.1956 26.3637 26.8465 25.7528C27.8937 25.491 28.941 25.1419 29.8137 24.7055C29.8137 25.2292 29.9883 26.2765 30.1628 27.411ZM26.5846 28.6328C26.7592 29.5056 26.8465 30.291 26.9337 30.9019C26.8465 30.9019 26.8465 30.9019 26.7592 30.9019C25.7119 31.1637 24.5774 31.3383 23.4428 31.4255C23.6174 30.8146 23.7919 30.0292 23.7046 29.0692C23.6174 28.1092 23.2683 27.411 23.0937 26.8874C23.0065 26.6255 22.9192 26.451 22.7446 26.2765C23.9665 26.1892 25.101 26.0146 26.1483 25.8401C26.2356 26.5383 26.4101 27.4983 26.5846 28.6328ZM22.4828 29.331C22.5701 30.2037 22.5701 31.0765 22.6574 31.6001C21.7846 31.6874 20.9119 31.6874 20.0392 31.6874C20.1265 31.0765 20.0392 30.1165 19.9519 29.0692C19.8646 28.0219 19.7774 27.1492 19.6028 26.5383C20.5628 26.5383 21.5228 26.451 22.3956 26.3637C22.1337 27.0619 22.3956 28.1092 22.4828 29.331ZM18.7301 29.1565C18.8174 30.2037 19.0792 31.0765 19.341 31.6874C18.2937 31.6874 17.2465 31.6001 16.1992 31.5128C16.1992 30.9892 16.0246 30.0292 16.0246 28.9819C15.9374 28.0219 15.9374 27.0619 15.8501 26.5383C16.8101 26.6256 17.8574 26.6256 18.9046 26.6256C18.7301 27.1492 18.6428 28.1092 18.7301 29.1565ZM14.7156 29.0692C14.8028 30.1165 15.0646 30.9019 15.4137 31.5128C14.1046 31.3383 12.7956 31.1637 11.4865 30.9892C11.4865 30.8146 11.4865 30.6401 11.4865 30.4656C11.5737 29.9419 11.661 29.1565 11.5737 28.2837C11.5737 27.411 11.5737 26.7128 11.5737 26.2765C11.5737 26.1892 11.5737 26.1892 11.5737 26.1019H11.7483C12.7956 26.2765 13.8428 26.3637 14.9774 26.451C14.8028 26.9746 14.6283 27.9346 14.7156 29.0692ZM10.7883 25.9274C10.5265 26.5383 10.3519 27.411 10.3519 28.1965C10.3519 29.0692 10.4392 29.8546 10.6137 30.4655C10.6137 30.5528 10.701 30.6401 10.701 30.7274C9.65374 30.5528 8.69374 30.291 7.73374 30.0292C7.82101 29.4183 7.82101 28.6328 7.90828 27.6728C7.90828 26.8001 7.90828 25.9274 7.90828 25.4037C7.90828 25.2292 7.90828 25.1419 7.90828 24.9674C8.78101 25.3165 9.74101 25.6656 10.7883 25.9274C10.7883 25.9274 10.7883 25.8401 10.7883 25.9274ZM7.03556 25.2292C6.77374 25.8401 6.68647 26.7128 6.59919 27.6728C6.59919 28.4583 6.68647 29.1565 6.77374 29.7674C6.07556 29.5056 5.46465 29.2437 4.85374 28.9819C4.94101 28.8074 4.85374 28.6328 4.94101 28.1965C4.94101 27.6728 4.94101 26.9746 4.94101 26.1892C4.94101 25.1419 5.02828 24.2692 4.94101 23.7456C5.63919 24.1819 6.33738 24.531 7.2101 24.8801C7.2101 24.9674 7.12283 25.0546 7.03556 25.2292ZM7.82101 38.3201C7.03556 37.4474 7.12283 36.3128 7.03556 35.2656C7.03556 34.4801 7.03556 33.6946 7.03556 33.0837C7.38465 33.3456 8.25737 33.8692 9.39192 34.3928C9.04283 34.5674 8.60646 35.7892 8.78101 37.4474C8.86828 38.2328 9.04283 38.931 9.21737 39.4546C8.69374 39.1056 8.1701 38.7565 7.82101 38.3201ZM10.0901 39.891C10.1774 39.3674 10.0901 38.4074 10.0028 37.3601C9.91556 36.051 9.82828 34.9165 9.65374 34.5674C11.0501 35.1783 12.0101 35.5274 13.3192 35.9637C13.0574 36.4874 12.7956 37.4474 12.7956 38.6692C12.7956 39.5419 12.8828 40.2401 12.9701 40.851C12.3592 40.6765 11.7483 40.5019 11.2246 40.3274C10.7883 40.1528 10.4392 40.0656 10.0901 39.891ZM13.8428 41.0256C13.9301 40.4146 14.0174 39.6292 14.0174 38.6692C14.0174 37.6219 14.0174 36.7492 13.9301 36.1383C14.8028 36.4001 15.6756 36.5746 16.6356 36.7492C16.461 37.1856 16.461 38.2328 16.2865 39.2801C16.1992 40.1528 16.1119 40.9383 16.0246 41.4619C15.9374 41.4619 15.8501 41.4619 15.7628 41.4619C15.1519 41.2874 14.4537 41.2001 13.8428 41.0256ZM20.2137 39.7165C20.1265 40.5892 19.9519 41.3746 19.9519 41.9855C18.9046 41.8983 17.9446 41.811 16.8974 41.6365C17.1592 41.1128 17.421 40.4146 17.5956 39.4546C17.7701 38.3201 17.5083 37.3601 17.3337 36.8365C18.381 37.011 19.5156 37.0983 20.6501 37.1856C20.5628 37.2728 20.5628 37.4474 20.4756 37.6219C20.301 38.2328 20.301 38.931 20.2137 39.7165ZM20.7374 41.9856C20.9992 41.4619 21.261 40.7637 21.4356 39.8037C21.5228 38.931 21.4356 38.0583 21.3483 37.5346C21.3483 37.3601 21.261 37.1856 21.261 37.0983C22.1337 37.1856 23.0065 37.1856 23.9665 37.1856H24.2283C24.141 37.3601 24.141 37.5346 24.0537 37.7965C23.9665 38.3201 24.0537 39.0183 24.0537 39.7165C24.141 40.9383 24.0537 41.3746 24.141 41.8983C23.0065 42.0728 21.8719 42.0728 20.7374 41.9856ZM26.6719 41.8983C26.061 41.9855 25.4501 41.9855 24.8392 42.0728C24.8392 41.9856 24.9265 41.9856 24.9265 41.9856C25.1883 41.4619 25.3628 40.6765 25.2756 39.891C25.1883 39.1056 25.0137 38.4074 24.8392 37.8837C24.7519 37.7092 24.6646 37.5346 24.5774 37.3601C25.6246 37.3601 26.5846 37.2728 27.5446 37.1856C27.3701 37.7092 27.1956 38.6692 27.021 39.8037C26.9337 40.5892 26.8465 41.2874 26.7592 41.8983C26.8465 41.811 26.7592 41.8983 26.6719 41.8983ZM30.5119 39.1928C30.5992 39.9783 30.5992 40.6765 30.6865 41.2001C29.8137 41.3746 28.8537 41.5492 27.981 41.6365C28.1556 41.1128 28.3301 40.5892 28.4174 39.891C28.5919 38.5819 28.4174 37.5346 28.2428 37.011C29.0283 36.9237 29.8137 36.8365 30.5992 36.6619C30.4246 37.0983 30.4246 38.0583 30.5119 39.1928ZM32.2574 40.851C31.9956 40.9383 31.7337 40.9383 31.5592 41.0256C31.7337 40.5019 31.821 39.891 31.7337 39.1056C31.6465 37.8837 31.2974 36.9237 30.9483 36.5746C32.0828 36.3128 33.1301 36.051 34.0901 35.7019C34.0028 36.2255 34.0901 37.2728 34.0901 38.4074C34.0901 39.1055 34.0901 39.8037 34.1774 40.3274C33.4792 40.5892 32.8683 40.7637 32.2574 40.851ZM34.5265 35.5274C35.2246 35.2656 35.8356 35.0037 36.3592 34.6546C36.621 34.4801 36.8828 34.3928 37.0574 34.2183C36.8828 34.6546 36.9701 35.6146 36.8828 36.8365C36.8828 37.7965 36.8828 38.6692 36.9701 39.1928C36.3592 39.4546 35.7483 39.7165 35.0501 39.891C35.1374 39.4546 35.2246 38.8437 35.1374 38.2328C35.2246 37.011 34.7883 35.9637 34.5265 35.5274ZM39.9374 36.051C39.8501 36.7492 39.5883 37.3601 39.0646 37.8837C38.7155 38.2328 38.3665 38.5819 37.9301 38.8437C38.1046 38.3201 38.1919 37.7092 38.1919 36.9237C38.1919 35.4401 37.6683 34.3055 37.3192 34.131C38.2792 33.5201 38.9774 32.9092 39.4137 32.3855C39.5883 32.1237 39.7628 31.9492 39.8501 31.7746V31.9492C39.9374 33.2583 40.1119 34.7419 39.9374 36.051ZM37.8428 26.7128C38.3665 27.1492 38.9774 27.7601 39.3265 28.7201C39.6756 29.5056 39.7628 30.3783 39.8501 31.4256C39.3265 31.8619 38.0174 32.9965 35.9228 33.9565C34.5265 34.5674 32.6937 35.1783 30.6865 35.5274C28.6792 35.8765 26.3228 36.051 23.8792 36.051C21.4356 36.051 19.0792 35.8765 17.0719 35.7019C14.9774 35.4401 13.1446 35.0037 11.661 34.4801C9.21737 33.6946 7.55919 32.9965 7.03556 32.8219C7.03556 32.2983 7.03556 31.6001 6.94828 30.9892C9.56646 31.8619 12.3592 32.2983 15.3265 32.6474C20.9119 33.2583 27.1083 32.9092 31.9083 30.1165C33.3046 29.2437 34.5265 28.371 35.4865 27.2365C35.7483 26.9746 35.9228 26.6255 36.0101 26.2765C36.0974 26.1019 36.0974 25.9274 36.1846 25.6655C36.5337 25.8401 37.1446 26.1019 37.8428 26.7128ZM39.8501 9.171C39.8501 9.171 39.8501 9.34555 39.8501 9.43282V11.5274C39.8501 11.5274 39.8501 12.9237 39.7628 13.6219C39.6756 14.3201 39.501 14.931 39.1519 15.3674C39.1519 15.4546 39.0646 15.4546 39.0646 15.5419C39.1519 15.0183 39.2392 14.2328 39.1519 13.4474C39.0646 12.1383 38.8028 11.091 38.4537 10.6546C39.0646 10.131 39.5883 9.60736 39.8501 9.171ZM36.9701 11.8765C37.3192 11.6146 37.6683 11.3528 38.0174 11.091C37.9301 11.6146 37.9301 12.4874 37.9301 13.4474C38.0174 14.6692 38.1919 15.7165 38.4537 16.1528C38.1919 16.3274 38.0174 16.5019 37.6683 16.6765C37.4937 16.7637 37.3192 16.851 37.1446 17.0255C37.2319 16.5019 37.2319 15.8037 37.1446 15.0183C37.0574 13.7092 36.621 12.5746 36.2719 12.2255C36.5337 12.1383 36.7956 12.051 36.9701 11.8765ZM31.4719 14.1455C31.5592 14.1455 31.5592 14.1455 31.6465 14.0583C31.4719 14.5819 31.2974 15.5419 31.3846 16.6765C31.4719 17.7237 31.6465 18.5965 31.9083 19.1201C31.821 19.1201 31.7337 19.1201 31.7337 19.1201C31.3846 19.2074 31.0356 19.2074 30.6865 19.2074H30.0756L29.6392 19.2946C29.6392 19.2074 29.6392 19.2074 29.6392 19.1201C29.7265 18.5092 29.7265 17.7237 29.6392 16.7637C29.6392 15.9783 29.4646 15.1055 29.3774 14.3201C29.9883 14.4074 30.7737 14.3201 31.4719 14.1455ZM28.4174 14.5819C28.3301 15.1928 28.3301 16.0655 28.3301 16.9383C28.3301 17.811 28.5046 18.6837 28.6792 19.2946C28.6792 19.3819 28.6792 19.3819 28.7665 19.4692C27.6319 19.5565 26.4974 19.6437 25.3628 19.731C25.4501 19.1201 25.4501 18.2474 25.4501 17.2874C25.3628 16.4146 25.2756 15.5419 25.101 15.0183C25.101 14.931 25.0137 14.7565 25.0137 14.6692C26.1483 14.6692 27.2828 14.6692 28.4174 14.5819ZM24.2283 14.5819C24.2283 14.6692 24.141 14.7565 24.141 14.931C24.0537 15.6292 24.0537 16.4146 24.0537 17.2874C24.141 18.2474 24.2283 19.1201 24.4028 19.731C23.2683 19.731 22.1337 19.731 21.0865 19.6437C21.0865 19.5565 21.0865 19.4692 21.1737 19.3819C21.3483 18.0728 21.261 16.0655 20.9992 14.7565C20.9992 14.5819 20.9119 14.4946 20.9119 14.3201C21.9592 14.4946 23.0937 14.5819 24.2283 14.5819ZM20.2137 14.3201C20.2137 14.4946 20.1265 14.6692 20.1265 14.8437C19.9519 16.1528 20.0392 18.2474 20.301 19.4692C20.301 19.5565 20.301 19.6437 20.3883 19.6437C19.2537 19.5565 18.2065 19.4692 17.1592 19.2946C17.3337 18.771 17.3337 17.7237 17.2465 16.5892C17.1592 15.8037 17.0719 15.0183 16.9846 14.5819C16.9846 14.3201 16.8974 14.0583 16.8974 13.8837H17.0719C18.0319 14.0583 19.1665 14.2328 20.2137 14.3201ZM12.5337 15.1055C12.5337 14.2328 12.3592 13.3601 12.2719 12.7492C13.4937 13.1855 14.8901 13.5346 16.3737 13.7965C15.7628 14.4074 15.8501 15.891 15.8501 16.6765C15.9374 17.811 16.1992 18.771 16.461 19.2074C15.0646 19.0328 13.6683 18.771 12.3592 18.3346C12.4465 18.1601 12.4465 17.8983 12.4465 17.3746C12.5337 16.851 12.621 15.9783 12.5337 15.1055ZM11.4865 12.4001C11.4865 12.4874 11.3992 12.5746 11.3992 12.6619C11.2246 13.3601 11.2246 14.1455 11.2246 15.1055C11.3119 16.0655 11.3119 16.9383 11.5737 17.5492C11.661 17.8983 11.8356 18.0728 11.9228 18.2474C11.0501 17.9855 10.2646 17.6365 9.56646 17.2001C9.47919 17.1128 9.39192 17.1128 9.39192 17.0255C9.56646 16.6765 9.47919 15.4546 9.39192 13.971C9.30465 12.8365 9.30465 11.8765 9.21737 11.3528C9.82828 11.7019 10.5265 12.051 11.3119 12.3128C11.3992 12.4001 11.4865 12.4001 11.4865 12.4001ZM8.69374 11.091C8.43192 11.5274 8.08283 12.6619 8.1701 14.0583C8.1701 15.0183 8.43192 15.891 8.69374 16.5019C8.1701 16.0655 7.73374 15.4546 7.55919 14.8437C7.38465 14.4074 7.29737 13.8837 7.2101 13.3601C7.12283 12.8365 7.12283 12.3128 7.03556 11.8765C6.94828 11.1783 6.94828 10.5674 6.94828 9.86918C7.29737 10.131 7.82101 10.6546 8.69374 11.091ZM2.84647 17.5492C3.3701 16.6765 3.98101 15.9783 4.59192 15.6292C5.55192 15.0183 6.33737 15.1055 6.59919 15.1055C6.59919 15.1928 6.59919 15.1928 6.68647 15.2801C7.12283 16.4146 7.99556 17.4619 9.04283 18.1601C11.2246 19.5565 13.8428 20.0801 16.461 20.5165C19.1665 20.9528 22.0465 21.1274 25.0137 21.0401C27.8065 20.9528 29.7265 20.691 30.0756 20.691H30.5992C31.0355 20.691 31.3846 20.6037 31.821 20.5165C32.6065 20.4292 33.3919 20.1674 34.1774 19.9055C34.6137 19.731 35.0501 19.5565 35.4865 19.3819C35.3119 19.5565 35.1374 19.731 34.8755 19.9928C34.5265 20.3419 34.1774 20.7783 33.6537 21.2146C33.1301 21.651 32.5192 22.0874 31.821 22.5237C30.3374 23.3965 28.5919 24.3565 26.4974 24.7055C24.3156 25.0546 21.8719 25.3165 19.2537 25.3165C16.6356 25.3165 14.1919 25.2292 12.0101 24.9674C9.82828 24.6183 7.90828 24.0946 6.33738 23.3965C3.89374 22.3492 2.49738 21.1274 1.97374 20.691C2.06101 19.4692 2.32283 18.4219 2.84647 17.5492Z" fill="#222222"/>
</svg>
