<svg width="52" height="30" viewBox="0 0 52 30" fill="none" xmlns="http://www.w3.org/2000/svg">
<path d="M47.6115 23.6653C49.2737 23.7599 50.2096 23.785 50.4555 23.7948C50.8549 23.7971 51.1805 23.4752 51.1829 23.0758L51.1832 23.0226C51.2037 19.5072 49.3686 16.2352 46.3788 14.4893C46.7927 13.8914 47.1111 13.2289 47.2881 12.5263C47.5746 11.3683 47.4937 10.1443 47.1182 9.01523C46.7124 7.89806 45.9989 6.88199 45.0233 6.18174C44.0606 5.46956 42.8425 5.11166 41.6588 5.12987C40.4854 5.15883 39.2833 5.5478 38.3833 6.29869C37.4721 7.02629 36.8063 8.01961 36.4764 9.11119C35.8832 11.1151 36.4709 13.3613 37.912 14.7412C36.987 15.2604 36.1748 15.9412 35.5207 16.7403C34.5303 15.928 33.4428 15.2386 32.2808 14.7068C34.5622 11.9583 34.9445 8.21991 33.3781 5.09259C32.9434 4.27103 32.3906 3.5228 31.7423 2.87177C31.0785 2.23448 30.3141 1.716 29.4951 1.32275C28.6694 0.938943 27.7779 0.717707 26.8844 0.645743C25.9855 0.576638 25.0946 0.710871 24.2394 0.919988C25.9856 0.617467 27.784 0.907062 29.2873 1.7339C30.0303 2.15966 30.7042 2.69261 31.2726 3.32177C31.8257 3.96484 32.2782 4.68262 32.6173 5.44923C33.2438 7.00093 33.4209 8.72228 33.0566 10.3303C32.7068 11.937 31.8238 13.3973 30.6055 14.4453C30.5259 14.5144 30.458 14.6045 30.4148 14.7084C30.2657 15.067 30.4356 15.4784 30.7941 15.6275L30.8199 15.6383C35.2969 17.4996 38.7458 21.9829 39.2396 27.3932L26.0008 27.3483C21.5747 27.372 17.1486 27.3698 12.7225 27.4257C12.9325 25.0645 13.7288 22.758 15.0224 20.7571C16.491 18.4816 18.6454 16.6466 21.153 15.5613L21.1919 15.5446C21.2761 15.5078 21.3533 15.4515 21.4165 15.3764C21.636 15.1154 21.6023 14.7259 21.3413 14.5064C19.256 12.7529 18.2553 9.79665 18.7766 7.01634C19.2604 4.24822 21.3894 1.73216 24.2394 0.919988C22.7925 1.18417 21.4021 1.89722 20.3311 2.95927C19.2521 4.01151 18.4568 5.37249 18.0758 6.86191C17.6975 8.34363 17.6818 9.93821 18.0948 11.4475C18.4278 12.6469 19.0339 13.7729 19.847 14.7362C18.6534 15.2642 17.5388 15.9621 16.5269 16.7929C15.865 15.9722 15.0417 15.2684 14.0938 14.7401C15.5368 13.3625 16.1252 11.1172 15.5223 9.10976C15.1771 8.03049 14.5304 7.02243 13.6078 6.30255C12.709 5.55364 11.5154 5.15796 10.3314 5.12745C9.15603 5.11086 7.92998 5.45725 6.96313 6.17478C5.99814 6.8854 5.26564 7.88811 4.87556 9.02052C4.49535 10.1583 4.42929 11.3584 4.71727 12.5294C4.8932 13.2349 5.21592 13.8951 5.63192 14.4908C2.66489 16.2257 0.800487 19.4756 0.818489 23.0226L0.818799 23.0799L0.819234 23.098C0.83303 23.4952 1.16625 23.8059 1.56342 23.7921C3.44945 23.7262 5.33555 23.6162 7.22159 23.5031C8.78845 23.402 10.3553 23.2817 11.9222 23.1337C11.2747 24.788 10.8962 26.5518 10.8162 28.3296L10.8154 28.3572C10.8079 28.8629 11.2118 29.279 11.7176 29.2865L11.7423 29.2869C16.4952 29.3576 21.248 29.3472 26.0008 29.3726C44.1445 29.3111 31.765 29.3534 40.3116 29.3233C40.8379 29.3002 41.2458 28.8548 41.2227 28.3285C41.1448 26.5516 40.7658 24.7921 40.1246 23.1369C41.6787 23.2843 43.2329 23.404 44.7871 23.5053C45.7285 23.5752 46.67 23.6116 47.6115 23.6653ZM2.41499 22.3399C2.63386 20.9852 3.14389 19.6955 3.92132 18.5988C4.84871 17.3123 6.13175 16.3036 7.57873 15.7345C7.71458 15.6804 7.84496 15.5938 7.9498 15.4783C8.31782 15.0729 8.28762 14.446 7.88225 14.0779L7.8769 14.0731C6.68733 12.993 6.26909 11.202 6.76669 9.65707C7.26478 8.13638 8.70586 6.96309 10.3334 6.94202C11.9368 6.88497 13.5519 7.95548 14.1759 9.57236C14.8237 11.1657 14.51 13.1955 13.2109 14.5333L13.1736 14.5716C12.9919 14.76 13.0694 15.0793 13.3241 15.159C14.4371 15.5074 15.4876 16.1057 16.4175 16.8855C14.4856 18.5024 12.9682 20.5353 11.9851 22.9658C10.3973 22.8147 6.32057 22.5019 2.41499 22.3399ZM35.6391 16.8406C36.5532 16.0825 37.5871 15.506 38.6765 15.1561C38.9277 15.0742 39.0045 14.7602 38.8232 14.5724L38.7872 14.5351C37.4942 13.1962 37.176 11.1664 37.8202 9.56516C38.4381 7.95206 40.0432 6.86409 41.6612 6.93972C43.2744 6.97638 44.7276 8.13675 45.2329 9.66229C45.727 11.1874 45.3181 13.0032 44.1317 14.0718C43.575 14.5774 43.7511 15.4699 44.4311 15.736C45.8768 16.3017 47.1553 17.3136 48.0811 18.5989C48.8564 19.6953 49.3628 20.9847 49.5817 22.3384C48.925 22.3654 48.2682 22.3911 47.6115 22.4285C46.67 22.4821 45.7285 22.5185 44.7871 22.5885C43.2113 22.6912 41.6356 22.8123 40.0597 22.9628C39.0749 20.5048 37.614 18.4944 35.6391 16.8406Z" fill="#222222"/>
</svg>
