<svg width="38" height="44" viewBox="0 0 38 44" fill="none" xmlns="http://www.w3.org/2000/svg">
<path d="M13.8473 31.7975C14.0009 31.9156 14.1687 32.0158 14.3424 32.1073V35.0254C14.3424 35.8583 15.0205 36.5364 15.8536 36.5364H16.5625C17.3957 36.5364 18.0734 35.8583 18.0734 35.0254V31.8989C18.826 31.3877 19.3748 30.5956 19.5606 29.726C20.0957 27.2401 17.8746 25.1076 15.1056 25.9035C13.8348 26.2675 12.904 27.1569 12.6164 28.2812C12.2931 29.5404 12.7984 30.9859 13.8473 31.7975V31.7975ZM13.5718 28.5259C13.7719 27.7444 14.4471 27.1184 15.3775 26.8512C17.4313 26.2656 18.976 27.7544 18.5961 29.5192C18.4481 30.2121 17.9781 30.8394 17.3389 31.1984C17.2172 31.2665 17.0871 31.4533 17.0871 31.6286V35.0254C17.0871 35.3144 16.8518 35.5501 16.5625 35.5501H15.8536C15.564 35.5501 15.3287 35.3144 15.3287 35.0254C15.3287 34.9696 15.3288 35.5157 15.3283 31.7988C15.3273 31.5949 15.1938 31.416 15.0244 31.3458C15.0239 31.3455 15.0236 31.345 15.023 31.3448C13.8282 30.8516 13.3046 29.5662 13.5718 28.5259Z" fill="#222222"/>
<path d="M30.3252 3.26328C29.4828 4.42359 28.7883 5.68858 28.2614 7.02291C28.1334 7.34739 28.3742 7.69714 28.7202 7.69714C28.9167 7.69714 29.1023 7.57899 29.179 7.38507C29.6754 6.12779 30.3297 4.93601 31.1234 3.84247C31.2833 3.62222 31.2345 3.314 31.0139 3.15412C30.7933 2.99358 30.4851 3.04239 30.3252 3.26328Z" fill="#222222"/>
<path d="M36.1871 6.33583C36.0346 6.10981 35.7283 6.05073 35.5023 6.20356L30.8109 9.37243C30.5852 9.52462 30.5258 9.83091 30.6783 10.0569C30.8307 10.2826 31.1368 10.3418 31.3632 10.1892L36.0545 7.02034C36.2802 6.86815 36.3396 6.56186 36.1871 6.33583Z" fill="#222222"/>
<path d="M37.4978 13.1861C37.5261 12.9151 37.3299 12.6724 37.0589 12.6435L32.1797 12.1298C31.912 12.1067 31.6667 12.2981 31.6375 12.5684C31.6092 12.8394 31.8054 13.0821 32.0764 13.111L36.9555 13.6247C37.2221 13.6538 37.4687 13.4596 37.4978 13.1861Z" fill="#222222"/>
<path d="M1.86946 40.6534C3.097 42.2824 5.26456 42.9135 7.29752 42.9621C8.62576 42.9941 10.2483 42.9148 11.7821 42.8488C16.78 43.0838 21.7136 43.2408 26.6936 42.7481C28.8521 42.535 30.52 40.7576 30.573 38.6142C30.7017 33.404 30.6234 27.2409 30.3521 21.2608C30.2676 19.3916 28.9749 17.8473 27.2418 17.3544C27.4097 14.3443 27.5416 11.2449 26.613 8.24944C23.6589 -1.27924 13.4356 -0.0306307 9.36765 3.72728C5.73207 7.08578 4.74223 12.1275 4.49955 17.0938C3.20805 17.5821 2.19165 18.7358 1.66514 20.0419C0.955556 21.8024 0.974338 23.7584 0.90832 25.6566C0.721581 31.0285 -0.3136 37.756 1.86946 40.6534V40.6534ZM9.47312 5.90569C11.5173 3.14456 15.6465 0.944645 19.5872 2.08634C22.8941 3.04439 24.8982 6.04888 25.671 8.54096C26.5377 11.3371 26.423 14.3059 26.2625 17.1962C25.9946 17.1838 25.1169 17.1773 23.0394 17.1428C23.131 15.3295 23.226 12.6491 22.7131 10.877C22.0481 8.58077 20.596 6.883 18.8289 6.33462C16.2697 5.54096 13.6077 7.03903 12.301 8.92945C10.8634 11.0106 10.6285 14.9484 10.7061 16.9051C7.3158 16.8451 7.18995 16.8205 6.62466 16.8984C6.52565 13.6234 7.2043 8.9707 9.47312 5.90569V5.90569ZM22.0527 17.126C18.5068 17.063 15.4638 16.9914 11.6939 16.9211C11.6016 14.8464 11.8994 11.2457 13.1127 9.49066C14.2149 7.89627 16.4324 6.62294 18.5367 7.27726C20.2434 7.80637 21.3238 9.62551 21.7659 11.1512C22.2376 12.7817 22.1419 15.3754 22.0527 17.126V17.126ZM3.54953 21.3751C3.6127 19.4832 5.18425 17.8363 7.31334 17.8363C13.4911 17.917 20.2649 18.1066 26.1003 18.1734C27.8532 18.194 29.2881 19.5701 29.3671 21.3057C29.6371 27.2633 29.7151 33.402 29.5867 38.5898C29.5462 40.2368 28.2607 41.6026 26.5966 41.767C19.9009 42.428 13.2577 41.8976 6.8128 41.6296C5.03316 41.5551 3.29076 39.883 3.22751 38.1884C3.0127 32.441 3.35492 27.1991 3.54953 21.3751V21.3751Z" fill="#222222"/>
</svg>
