<svg width="32" height="40" viewBox="0 0 32 40" fill="none" xmlns="http://www.w3.org/2000/svg">
<path d="M0 22.7132C20.0518 47.3564 15.5607 44.406 31.1443 21.7583C28.7258 14.1195 23.3416 8.2612 19.3549 1.11336C14.3641 -5.40666 1.86391 18.6654 0 22.7132ZM17.9977 38.6567C17.856 38.835 17.6654 39.0402 17.492 39.2503C13.7984 34.8703 7.82316 27.494 4.26634 23.0382C12.7993 27.9851 21.8875 26.7953 30.291 22.7132L17.9977 38.6567ZM17.492 1.70654C21.6644 8.01403 26.187 15.0157 30.291 21.3843C21.3843 26.7586 12.3051 25.4814 3.41307 20.4784C6.31503 13.5136 12.8577 8.14955 17.492 1.70654Z" fill="#222222"/>
</svg>
