<svg width="120" height="121" viewBox="0 0 120 121" fill="none" xmlns="http://www.w3.org/2000/svg">
<path fill-rule="evenodd" clip-rule="evenodd" d="M60.1439 3.58808C28.8345 3.58808 3.45324 28.9693 3.45324 60.2787C3.45324 91.5881 28.8345 116.969 60.1439 116.969C96.4029 117.545 117.698 93.3147 117.698 62.0053C117.698 30.696 91.4533 3.58808 60.1439 3.58808ZM0 62.0053C0 26.6097 27.8809 0.422607 60.1439 0.422607C92.4069 0.422607 118.561 28.0158 118.561 60.2787C118.561 92.5417 96.9784 120.423 58.4173 120.423C26.1543 120.423 0 94.2683 0 62.0053Z" fill="#F9F9F9"/>
<path d="M3.45324 60.2787C3.45324 28.9693 28.8345 3.58808 60.1439 3.58808C91.4533 3.58808 117.698 30.696 117.698 62.0053C117.698 93.3147 96.4029 117.545 60.1439 116.969C28.8345 116.969 3.45324 91.5881 3.45324 60.2787Z" fill="#F9F9F9"/>
<path fill-rule="evenodd" clip-rule="evenodd" d="M60.8738 3.16547C29.1844 3.16547 3.49515 28.5467 3.49515 59.8561C3.49515 91.1655 29.1844 116.547 60.8738 116.547C97.5728 117.122 119.126 92.8921 119.126 61.5827C119.126 30.2734 92.5631 3.16547 60.8738 3.16547ZM0 61.5827C0 26.1871 28.2193 0 60.8738 0C93.5283 0 120 27.5932 120 59.8561C120 92.1191 98.1553 120 59.1262 120C26.4717 120 0 93.8457 0 61.5827Z" fill="#C4C4C4"/>
<path d="M99.5304 56.511C99.5336 56.6128 99.3739 56.4262 99.2814 56.3573C88.5372 48.3536 77.2503 48.5881 72.2236 49.2122C62.2864 50.4413 52.7861 56.3983 46.8945 64.4526L43.6738 61.2336C49.8263 52.7908 60.4961 48.3052 70.9084 47.1509C81.2294 46.007 91.6393 49.4099 99.4146 56.2394C99.4859 56.3122 99.5272 56.4091 99.5304 56.511Z" fill="#C4C4C4"/>
<path fill-rule="evenodd" clip-rule="evenodd" d="M36.6098 56.2199C35.7102 61.0391 34.9582 65.8684 34.0282 70.6548C33.9941 70.8547 34.0054 71.0596 34.0615 71.2545C34.1176 71.4493 34.217 71.6289 34.3522 71.78C34.4874 71.9311 34.655 72.0496 34.8425 72.1269C35.0299 72.2041 35.2324 72.2381 35.4348 72.2261C41.4198 71.8645 47.3567 71.3247 53.3051 70.7035C53.5721 70.6818 53.8267 70.5815 54.0368 70.4153C54.2469 70.2491 54.403 70.0244 54.4856 69.7695C54.5681 69.5147 54.5733 69.2411 54.5006 68.9833C54.4279 68.7255 54.2805 68.495 54.0769 68.3208C51.8542 66.1673 49.5163 64.1358 47.0736 62.2353L44.6956 60.2951C42.846 58.6434 41.0112 56.972 39.1913 55.2809C38.9759 55.1084 38.7198 54.9943 38.4475 54.9495C38.1752 54.9046 37.896 54.9307 37.6367 55.025C37.3774 55.1193 37.1467 55.2788 36.9669 55.4881C36.787 55.6973 36.664 55.9494 36.6098 56.2199ZM39.1508 59.6099C38.4357 62.9012 37.6906 66.1667 36.9941 69.474L37.285 69.4584C41.2266 69.2459 45.1935 69.0322 49.1189 68.5716C45.7302 65.6534 42.4075 62.6661 39.1508 59.6099Z" fill="#C4C4C4"/>
</svg>
