<svg width="94" height="208" viewBox="0 0 94 208" fill="none" xmlns="http://www.w3.org/2000/svg">
<circle cx="4" cy="4" r="4" fill="#E0E0E0"/>
<circle cx="4" cy="24" r="4" fill="#E0E0E0"/>
<circle cx="4" cy="44" r="4" fill="#E0E0E0"/>
<circle cx="4" cy="64" r="4" fill="#E0E0E0"/>
<circle cx="4" cy="84" r="4" fill="#E0E0E0"/>
<circle cx="4" cy="104" r="4" fill="#E0E0E0"/>
<circle cx="4" cy="124" r="4" fill="#E0E0E0"/>
<circle cx="44" cy="4" r="4" fill="#E0E0E0"/>
<circle cx="44" cy="24" r="4" fill="#E0E0E0"/>
<circle cx="44" cy="44" r="4" fill="#E0E0E0"/>
<circle cx="44" cy="64" r="4" fill="#E0E0E0"/>
<circle cx="44" cy="84" r="4" fill="#E0E0E0"/>
<circle cx="44" cy="104" r="4" fill="#E0E0E0"/>
<circle cx="44" cy="124" r="4" fill="#E0E0E0"/>
<circle cx="84" cy="4" r="4" fill="#E0E0E0"/>
<circle cx="84" cy="24" r="4" fill="#E0E0E0"/>
<circle cx="84" cy="44" r="4" fill="#E0E0E0"/>
<circle cx="84" cy="64" r="4" fill="#E0E0E0"/>
<circle cx="84" cy="84" r="4" fill="#E0E0E0"/>
<circle cx="84" cy="104" r="4" fill="#E0E0E0"/>
<circle cx="84" cy="124" r="4" fill="#E0E0E0"/>
<circle cx="24" cy="4" r="4" fill="#E0E0E0"/>
<circle cx="24" cy="24" r="4" fill="#E0E0E0"/>
<circle cx="24" cy="44" r="4" fill="#E0E0E0"/>
<circle cx="24" cy="64" r="4" fill="#E0E0E0"/>
<circle cx="24" cy="84" r="4" fill="#E0E0E0"/>
<circle cx="24" cy="104" r="4" fill="#E0E0E0"/>
<circle cx="24" cy="124" r="4" fill="#E0E0E0"/>
<circle cx="64" cy="4" r="4" fill="#E0E0E0"/>
<circle cx="64" cy="24" r="4" fill="#E0E0E0"/>
<circle cx="64" cy="44" r="4" fill="#E0E0E0"/>
<circle cx="64" cy="64" r="4" fill="#E0E0E0"/>
<circle cx="64" cy="84" r="4" fill="#E0E0E0"/>
<circle cx="64" cy="104" r="4" fill="#E0E0E0"/>
<circle cx="64" cy="124" r="4" fill="#E0E0E0"/>
<circle cx="4" cy="144" r="4" fill="#E0E0E0"/>
<circle cx="4" cy="164" r="4" fill="#E0E0E0"/>
<circle cx="4" cy="184" r="4" fill="#E0E0E0"/>
<circle cx="4" cy="204" r="4" fill="#E0E0E0"/>
<circle cx="44" cy="144" r="4" fill="#E0E0E0"/>
<circle cx="44" cy="164" r="4" fill="#E0E0E0"/>
<circle cx="44" cy="184" r="4" fill="#E0E0E0"/>
<circle cx="44" cy="204" r="4" fill="#E0E0E0"/>
<circle cx="84" cy="144" r="4" fill="#E0E0E0"/>
<circle cx="84" cy="164" r="4" fill="#E0E0E0"/>
<circle cx="84" cy="184" r="4" fill="#E0E0E0"/>
<circle cx="84" cy="204" r="4" fill="#E0E0E0"/>
<circle cx="24" cy="144" r="4" fill="#E0E0E0"/>
<circle cx="24" cy="164" r="4" fill="#E0E0E0"/>
<circle cx="24" cy="184" r="4" fill="#E0E0E0"/>
<circle cx="24" cy="204" r="4" fill="#E0E0E0"/>
<circle cx="64" cy="144" r="4" fill="#E0E0E0"/>
<circle cx="64" cy="164" r="4" fill="#E0E0E0"/>
<circle cx="64" cy="184" r="4" fill="#E0E0E0"/>
<circle cx="64" cy="204" r="4" fill="#E0E0E0"/>
</svg>
