<svg width="104" height="268" viewBox="0 0 104 268" fill="none" xmlns="http://www.w3.org/2000/svg">
<circle cy="4" r="4" fill="#E0E0E0"/>
<circle cy="24" r="4" fill="#E0E0E0"/>
<circle cy="44" r="4" fill="#E0E0E0"/>
<circle cy="64" r="4" fill="#E0E0E0"/>
<circle cy="84" r="4" fill="#E0E0E0"/>
<circle cy="104" r="4" fill="#E0E0E0"/>
<circle cy="124" r="4" fill="#E0E0E0"/>
<circle cx="40" cy="4" r="4" fill="#E0E0E0"/>
<circle cx="40" cy="24" r="4" fill="#E0E0E0"/>
<circle cx="40" cy="44" r="4" fill="#E0E0E0"/>
<circle cx="40" cy="64" r="4" fill="#E0E0E0"/>
<circle cx="40" cy="84" r="4" fill="#E0E0E0"/>
<circle cx="40" cy="104" r="4" fill="#E0E0E0"/>
<circle cx="40" cy="124" r="4" fill="#E0E0E0"/>
<circle cx="80" cy="4" r="4" fill="#E0E0E0"/>
<circle cx="80" cy="24" r="4" fill="#E0E0E0"/>
<circle cx="80" cy="44" r="4" fill="#E0E0E0"/>
<circle cx="80" cy="64" r="4" fill="#E0E0E0"/>
<circle cx="80" cy="84" r="4" fill="#E0E0E0"/>
<circle cx="80" cy="104" r="4" fill="#E0E0E0"/>
<circle cx="80" cy="124" r="4" fill="#E0E0E0"/>
<circle cx="20" cy="4" r="4" fill="#E0E0E0"/>
<circle cx="20" cy="24" r="4" fill="#E0E0E0"/>
<circle cx="20" cy="44" r="4" fill="#E0E0E0"/>
<circle cx="20" cy="64" r="4" fill="#E0E0E0"/>
<circle cx="20" cy="84" r="4" fill="#E0E0E0"/>
<circle cx="20" cy="104" r="4" fill="#E0E0E0"/>
<circle cx="20" cy="124" r="4" fill="#E0E0E0"/>
<circle cx="60" cy="4" r="4" fill="#E0E0E0"/>
<circle cx="60" cy="24" r="4" fill="#E0E0E0"/>
<circle cx="60" cy="44" r="4" fill="#E0E0E0"/>
<circle cx="60" cy="64" r="4" fill="#E0E0E0"/>
<circle cx="60" cy="84" r="4" fill="#E0E0E0"/>
<circle cx="60" cy="104" r="4" fill="#E0E0E0"/>
<circle cx="60" cy="124" r="4" fill="#E0E0E0"/>
<circle cx="100" cy="4" r="4" fill="#E0E0E0"/>
<circle cx="100" cy="24" r="4" fill="#E0E0E0"/>
<circle cx="100" cy="44" r="4" fill="#E0E0E0"/>
<circle cx="100" cy="64" r="4" fill="#E0E0E0"/>
<circle cx="100" cy="84" r="4" fill="#E0E0E0"/>
<circle cx="100" cy="104" r="4" fill="#E0E0E0"/>
<circle cx="100" cy="124" r="4" fill="#E0E0E0"/>
<circle cy="144" r="4" fill="#E0E0E0"/>
<circle cy="164" r="4" fill="#E0E0E0"/>
<circle cy="184" r="4" fill="#E0E0E0"/>
<circle cy="204" r="4" fill="#E0E0E0"/>
<circle cy="224" r="4" fill="#E0E0E0"/>
<circle cy="244" r="4" fill="#E0E0E0"/>
<circle cy="264" r="4" fill="#E0E0E0"/>
<circle cx="40" cy="144" r="4" fill="#E0E0E0"/>
<circle cx="40" cy="164" r="4" fill="#E0E0E0"/>
<circle cx="40" cy="184" r="4" fill="#E0E0E0"/>
<circle cx="40" cy="204" r="4" fill="#E0E0E0"/>
<circle cx="40" cy="224" r="4" fill="#E0E0E0"/>
<circle cx="40" cy="244" r="4" fill="#E0E0E0"/>
<circle cx="40" cy="264" r="4" fill="#E0E0E0"/>
<circle cx="80" cy="144" r="4" fill="#E0E0E0"/>
<circle cx="80" cy="164" r="4" fill="#E0E0E0"/>
<circle cx="80" cy="184" r="4" fill="#E0E0E0"/>
<circle cx="80" cy="204" r="4" fill="#E0E0E0"/>
<circle cx="80" cy="224" r="4" fill="#E0E0E0"/>
<circle cx="80" cy="244" r="4" fill="#E0E0E0"/>
<circle cx="80" cy="264" r="4" fill="#E0E0E0"/>
<circle cx="20" cy="144" r="4" fill="#E0E0E0"/>
<circle cx="20" cy="164" r="4" fill="#E0E0E0"/>
<circle cx="20" cy="184" r="4" fill="#E0E0E0"/>
<circle cx="20" cy="204" r="4" fill="#E0E0E0"/>
<circle cx="20" cy="224" r="4" fill="#E0E0E0"/>
<circle cx="20" cy="244" r="4" fill="#E0E0E0"/>
<circle cx="20" cy="264" r="4" fill="#E0E0E0"/>
<circle cx="60" cy="144" r="4" fill="#E0E0E0"/>
<circle cx="60" cy="164" r="4" fill="#E0E0E0"/>
<circle cx="60" cy="184" r="4" fill="#E0E0E0"/>
<circle cx="60" cy="204" r="4" fill="#E0E0E0"/>
<circle cx="60" cy="224" r="4" fill="#E0E0E0"/>
<circle cx="60" cy="244" r="4" fill="#E0E0E0"/>
<circle cx="60" cy="264" r="4" fill="#E0E0E0"/>
<circle cx="100" cy="144" r="4" fill="#E0E0E0"/>
<circle cx="100" cy="164" r="4" fill="#E0E0E0"/>
<circle cx="100" cy="184" r="4" fill="#E0E0E0"/>
<circle cx="100" cy="204" r="4" fill="#E0E0E0"/>
<circle cx="100" cy="224" r="4" fill="#E0E0E0"/>
<circle cx="100" cy="244" r="4" fill="#E0E0E0"/>
<circle cx="100" cy="264" r="4" fill="#E0E0E0"/>
</svg>
